M48
;Layer_Color=9474304
;FILE_FORMAT=4:4
METRIC,LZ
;TYPE=PLATED
T02F00S00C0.6500
T03F00S00C0.7110
T04F00S00C0.7112
T05F00S00C0.8900
T06F00S00C1.0200
T07F00S00C1.2000
T08F00S00C3.2000
;TYPE=NON_PLATED
T09F00S00C0.6500
%
T02
X003429Y003556
X003683
X003937
X004191
X004445
X004699
Y004572
X004445
X004191
X003937
X003683
X003429
T03
X00046Y00046
X00096
X00146
X00196
X00246
X00296
X00346
X00446
X00496
X00521Y00096
X00471
X00571
X00621
X00646Y00046
X00696
X00746
X00771Y00096
X00596Y00046
X00546
Y00146
X00596
X00646
X00621Y00196
X00646Y00246
X00746
Y00146
X00546Y00246
X00596Y00346
X00571Y00396
X00596Y00446
X00646
X00671Y00496
X00721
X00621
X00546Y00446
X00421Y00496
X00171
X00196Y00446
X00171Y00396
X00146Y00346
Y00246
X00296
X00346
X00371Y00196
X00421
X00471
X00496Y00246
X00446
Y00146
X00396
X00346
X00296
X00321Y00196
X00271
X00321Y00296
X00096Y00346
X00046
Y00246
X00071Y00196
X00096Y00146
X00046
X00071Y00496
X00096Y00546
X00046
X00071Y00596
X00096Y00646
X00046
Y00746
X00096
X00146
X00196
X00246
X00296
X00346
X00396
X00446
X00496
X00421Y00696
X00346Y00646
X00371Y00596
X00346Y00546
X00146
X00171Y00596
X00146Y00646
X00171Y00696
X00546Y00746
X00596
X00646
X00696
X00746
X00771Y00696
X00746Y00646
X00696
X00721Y00596
X00771
X00746Y00546
X00696
X00646
X00671Y00596
T04
X006096Y002794
X0071628Y0038608
X0060706Y005207
X0047625Y0052832
X00508Y004445
Y004191
Y003937
Y003683
X003175Y004445
X002559Y0051118
X002286Y0051054
X0022225Y00192786
X00093726Y00385572
X0021717Y006604
X00411734Y00620776
X0049535Y006604
X0047498Y0055118
X00563626Y00636016
X006096Y0066802
T05
X005842Y003048
X006604
X007366
X00762
X006858Y004826
X002794Y003048
X002286
X001778
X00127
Y004826
X00635Y005842
Y00635
T06
X002032Y005334
Y005588
Y005842
Y006096
X00254Y006604
X002794
X003048
X003302
T07
X004064Y000508
Y002508
T08
X001Y001
X007
X001Y007
X007
T09
X007366Y001962
Y00254
M30
