M48
;Layer_Color=9474304
;FILE_FORMAT=4:3
METRIC,TZ
;TYPE=PLATED
T02F00S00C0.650
T03F00S00C0.711
T04F00S00C0.890
T05F00S00C1.020
T06F00S00C1.200
T07F00S00C3.200
;TYPE=NON_PLATED
T08F00S00C0.650
%
T02
X34290Y35560
X36830
X39370
X41910
X44450
X46990
Y45720
X44450
X41910
X39370
X36830
X34290
T03
X4600Y4600
X9600
X14600
X19600
X24600
X29600
X34600
X44600
X49600
X52100Y9600
X47100
X57100
X62100
X64600Y4600
X69600
X74600
X77100Y9600
X59600Y4600
X54600
Y14600
X59600
X64600
X62100Y19600
X64600Y24600
X60960Y27940
X59600Y34600
X57100Y39600
X59600Y44600
X64600
X67100Y49600
X72100
X62100
X60706Y52070
X54600Y44600
Y24600
X74600
Y14600
X71628Y38608
X50800Y39370
Y41910
Y44450
Y36830
X49600Y24600
X44600
X47100Y19600
X42100
X37100
X32100
X27100
X22225Y19279
X29600Y14600
X34600
X39600
X44600
X34600Y24600
X29600
X32100Y29600
X31750Y44450
X19600Y44600
X17100Y49600
X22860Y51054
X25590Y51118
X42100Y49600
X47625Y52832
X17100Y39600
X14600Y34600
Y24600
X4600
X7100Y19600
X9600Y14600
X4600
Y34600
X9600
X9373Y38557
X7100Y49600
X9600Y54600
X4600
X7100Y59600
X9600Y64600
X4600
Y74600
X9600
X14600
X19600
X24600
X29600
X34600
X39600
X44600
X49600
X49535Y66040
X42100Y69600
X41173Y62078
X37100Y59600
X34600Y64600
Y54600
X47498Y55118
X14600Y54600
X17100Y59600
X14600Y64600
X17100Y69600
X21717Y66040
X56363Y63602
X60960Y66802
X59600Y74600
X64600
X69600
X74600
X77100Y69600
X74600Y64600
X69600
X72100Y59600
X77100
X74600Y54600
X69600
X64600
X67100Y59600
X54600Y74600
T04
X58420Y30480
X66040
X73660
X76200
X68580Y48260
X27940Y30480
X22860
X17780
X12700
Y48260
X63500Y58420
Y63500
T05
X20320Y53340
Y55880
Y58420
Y60960
X25400Y66040
X27940
X30480
X33020
T06
X40640Y5080
Y25080
T07
X10000Y10000
X70000
X10000Y70000
X70000
T08
X73660Y19620
Y25400
M30
