G04*
G04 #@! TF.GenerationSoftware,Altium Limited,Altium Designer,25.3.3 (18)*
G04*
G04 Layer_Physical_Order=2*
G04 Layer_Color=16711680*
%FSLAX43Y43*%
%MOMM*%
G71*
G04*
G04 #@! TF.SameCoordinates,3DA135E0-A4FD-4886-9DC2-4B5DFDF801B2*
G04*
G04*
G04 #@! TF.FilePolarity,Positive*
G04*
G01*
G75*
%ADD76C,0.508*%
%ADD82R,1.050X1.050*%
%ADD83C,1.050*%
%ADD84C,1.240*%
%ADD85C,0.650*%
%ADD86O,2.100X1.000*%
%ADD87O,1.800X1.000*%
%ADD88R,1.370X1.370*%
%ADD89C,1.370*%
%ADD90R,1.370X1.370*%
%ADD91C,2.100*%
%ADD92C,6.000*%
%ADD93C,1.270*%
G36*
X70950Y79648D02*
X71891Y79509D01*
X72814Y79278D01*
X73710Y78957D01*
X74570Y78550D01*
X75386Y78061D01*
X76150Y77494D01*
X76855Y76855D01*
X77494Y76150D01*
X78061Y75386D01*
X78550Y74570D01*
X78957Y73710D01*
X79278Y72814D01*
X79509Y71891D01*
X79648Y70950D01*
X79694Y70020D01*
X79690Y70000D01*
Y10000D01*
X79694Y9980D01*
X79648Y9050D01*
X79509Y8109D01*
X79278Y7186D01*
X78957Y6290D01*
X78550Y5430D01*
X78061Y4614D01*
X77494Y3850D01*
X76855Y3145D01*
X76150Y2506D01*
X75386Y1939D01*
X74570Y1450D01*
X73710Y1043D01*
X72814Y722D01*
X71891Y491D01*
X70950Y352D01*
X70020Y306D01*
X70000Y310D01*
X10000D01*
X9980Y306D01*
X9050Y352D01*
X8109Y491D01*
X7186Y722D01*
X6290Y1043D01*
X5430Y1450D01*
X4614Y1939D01*
X3850Y2506D01*
X3145Y3145D01*
X2506Y3850D01*
X1939Y4614D01*
X1450Y5430D01*
X1043Y6290D01*
X722Y7186D01*
X491Y8109D01*
X352Y9050D01*
X306Y9980D01*
X310Y10000D01*
Y70000D01*
X306Y70020D01*
X352Y70950D01*
X491Y71891D01*
X722Y72814D01*
X1043Y73710D01*
X1450Y74570D01*
X1939Y75386D01*
X2506Y76150D01*
X3145Y76855D01*
X3850Y77494D01*
X4614Y78061D01*
X5430Y78550D01*
X6290Y78957D01*
X7186Y79278D01*
X8109Y79509D01*
X9050Y79648D01*
X9980Y79694D01*
X10000Y79690D01*
X70000D01*
X70020Y79694D01*
X70950Y79648D01*
D02*
G37*
%LPC*%
G36*
X70256Y73254D02*
X69744D01*
X69238Y73174D01*
X68751Y73016D01*
X68295Y72783D01*
X67880Y72482D01*
X67518Y72120D01*
X67217Y71705D01*
X66984Y71249D01*
X66826Y70762D01*
X66746Y70256D01*
Y69744D01*
X66826Y69238D01*
X66984Y68751D01*
X67217Y68295D01*
X67518Y67880D01*
X67880Y67518D01*
X68295Y67217D01*
X68751Y66984D01*
X69238Y66826D01*
X69744Y66746D01*
X70256D01*
X70762Y66826D01*
X71249Y66984D01*
X71705Y67217D01*
X72120Y67518D01*
X72482Y67880D01*
X72783Y68295D01*
X73016Y68751D01*
X73174Y69238D01*
X73254Y69744D01*
Y70256D01*
X73174Y70762D01*
X73016Y71249D01*
X72783Y71705D01*
X72482Y72120D01*
X72120Y72482D01*
X71705Y72783D01*
X71249Y73016D01*
X70762Y73174D01*
X70256Y73254D01*
D02*
G37*
G36*
X10256D02*
X9744D01*
X9238Y73174D01*
X8751Y73016D01*
X8295Y72783D01*
X7880Y72482D01*
X7518Y72120D01*
X7217Y71705D01*
X6984Y71249D01*
X6826Y70762D01*
X6746Y70256D01*
Y69744D01*
X6826Y69238D01*
X6984Y68751D01*
X7217Y68295D01*
X7518Y67880D01*
X7880Y67518D01*
X8295Y67217D01*
X8751Y66984D01*
X9238Y66826D01*
X9744Y66746D01*
X10256D01*
X10762Y66826D01*
X11249Y66984D01*
X11705Y67217D01*
X12120Y67518D01*
X12482Y67880D01*
X12783Y68295D01*
X13016Y68751D01*
X13174Y69238D01*
X13254Y69744D01*
Y70256D01*
X13174Y70762D01*
X13016Y71249D01*
X12783Y71705D01*
X12482Y72120D01*
X12120Y72482D01*
X11705Y72783D01*
X11249Y73016D01*
X10762Y73174D01*
X10256Y73254D01*
D02*
G37*
G36*
X28194Y67207D02*
Y66294D01*
X29107D01*
X29052Y66500D01*
X28895Y66773D01*
X28673Y66995D01*
X28400Y67152D01*
X28194Y67207D01*
D02*
G37*
G36*
X27686D02*
X27480Y67152D01*
X27207Y66995D01*
X26985Y66773D01*
X26828Y66500D01*
X26773Y66294D01*
X27686D01*
Y67207D01*
D02*
G37*
G36*
X33959Y66979D02*
X32081D01*
Y65101D01*
X33959D01*
Y66979D01*
D02*
G37*
G36*
X30604D02*
X30356D01*
X30118Y66915D01*
X29903Y66791D01*
X29729Y66617D01*
X29605Y66402D01*
X29541Y66164D01*
Y65916D01*
X29605Y65678D01*
X29729Y65463D01*
X29903Y65289D01*
X30118Y65165D01*
X30356Y65101D01*
X30604D01*
X30842Y65165D01*
X31057Y65289D01*
X31231Y65463D01*
X31355Y65678D01*
X31419Y65916D01*
Y66164D01*
X31355Y66402D01*
X31231Y66617D01*
X31057Y66791D01*
X30842Y66915D01*
X30604Y66979D01*
D02*
G37*
G36*
X25524D02*
X25276D01*
X25038Y66915D01*
X24823Y66791D01*
X24649Y66617D01*
X24525Y66402D01*
X24461Y66164D01*
Y65916D01*
X24525Y65678D01*
X24649Y65463D01*
X24823Y65289D01*
X25038Y65165D01*
X25276Y65101D01*
X25524D01*
X25762Y65165D01*
X25977Y65289D01*
X26151Y65463D01*
X26275Y65678D01*
X26339Y65916D01*
Y66164D01*
X26275Y66402D01*
X26151Y66617D01*
X25977Y66791D01*
X25762Y66915D01*
X25524Y66979D01*
D02*
G37*
G36*
X29107Y65786D02*
X28194D01*
Y64873D01*
X28400Y64928D01*
X28673Y65085D01*
X28895Y65307D01*
X29052Y65580D01*
X29107Y65786D01*
D02*
G37*
G36*
X27686D02*
X26773D01*
X26828Y65580D01*
X26985Y65307D01*
X27207Y65085D01*
X27480Y64928D01*
X27686Y64873D01*
Y65786D01*
D02*
G37*
G36*
X63615Y64374D02*
X63385D01*
X63163Y64314D01*
X62963Y64199D01*
X62801Y64037D01*
X62686Y63837D01*
X62626Y63615D01*
Y63385D01*
X62686Y63163D01*
X62801Y62963D01*
X62963Y62801D01*
X63163Y62686D01*
X63385Y62626D01*
X63615D01*
X63837Y62686D01*
X64037Y62801D01*
X64199Y62963D01*
X64314Y63163D01*
X64374Y63385D01*
Y63615D01*
X64314Y63837D01*
X64199Y64037D01*
X64037Y64199D01*
X63837Y64314D01*
X63615Y64374D01*
D02*
G37*
G36*
X21259Y61899D02*
X19381D01*
Y60021D01*
X21259D01*
Y61899D01*
D02*
G37*
G36*
X63615Y59294D02*
X63385D01*
X63163Y59234D01*
X62963Y59119D01*
X62801Y58957D01*
X62686Y58757D01*
X62626Y58535D01*
Y58305D01*
X62686Y58083D01*
X62801Y57883D01*
X62963Y57721D01*
X63163Y57606D01*
X63385Y57546D01*
X63615D01*
X63837Y57606D01*
X64037Y57721D01*
X64199Y57883D01*
X64314Y58083D01*
X64374Y58305D01*
Y58535D01*
X64314Y58757D01*
X64199Y58957D01*
X64037Y59119D01*
X63837Y59234D01*
X63615Y59294D01*
D02*
G37*
G36*
X20444Y59359D02*
X20196D01*
X19958Y59295D01*
X19743Y59171D01*
X19569Y58997D01*
X19445Y58782D01*
X19381Y58544D01*
Y58296D01*
X19445Y58058D01*
X19569Y57843D01*
X19743Y57669D01*
X19958Y57545D01*
X20196Y57481D01*
X20444D01*
X20682Y57545D01*
X20897Y57669D01*
X21071Y57843D01*
X21195Y58058D01*
X21259Y58296D01*
Y58544D01*
X21195Y58782D01*
X21071Y58997D01*
X20897Y59171D01*
X20682Y59295D01*
X20444Y59359D01*
D02*
G37*
G36*
Y56819D02*
X20196D01*
X19958Y56755D01*
X19743Y56631D01*
X19569Y56457D01*
X19445Y56242D01*
X19381Y56004D01*
Y55756D01*
X19445Y55518D01*
X19569Y55303D01*
X19743Y55129D01*
X19958Y55005D01*
X20196Y54941D01*
X20444D01*
X20682Y55005D01*
X20897Y55129D01*
X21071Y55303D01*
X21195Y55518D01*
X21259Y55756D01*
Y56004D01*
X21195Y56242D01*
X21071Y56457D01*
X20897Y56631D01*
X20682Y56755D01*
X20444Y56819D01*
D02*
G37*
G36*
X20574Y54507D02*
Y53594D01*
X21487D01*
X21432Y53800D01*
X21275Y54073D01*
X21053Y54295D01*
X20780Y54452D01*
X20574Y54507D01*
D02*
G37*
G36*
X20066D02*
X19860Y54452D01*
X19587Y54295D01*
X19365Y54073D01*
X19208Y53800D01*
X19153Y53594D01*
X20066D01*
Y54507D01*
D02*
G37*
G36*
X21487Y53086D02*
X20574D01*
Y52173D01*
X20780Y52228D01*
X21053Y52385D01*
X21275Y52607D01*
X21432Y52880D01*
X21487Y53086D01*
D02*
G37*
G36*
X20066D02*
X19153D01*
X19208Y52880D01*
X19365Y52607D01*
X19587Y52385D01*
X19860Y52228D01*
X20066Y52173D01*
Y53086D01*
D02*
G37*
G36*
X47615Y56007D02*
X47381D01*
X47155Y55946D01*
X46952Y55829D01*
X46787Y55664D01*
X46670Y55461D01*
X46609Y55235D01*
Y55001D01*
X46670Y54775D01*
X46787Y54572D01*
X46927Y54432D01*
X46930Y54428D01*
X46937Y54421D01*
X46952Y54407D01*
X46958Y54403D01*
X46959Y54402D01*
X46976Y54383D01*
X46992Y54363D01*
X47005Y54341D01*
X47017Y54316D01*
X47027Y54288D01*
X47036Y54256D01*
X47043Y54219D01*
X47044Y54210D01*
Y53672D01*
X47043Y53669D01*
X47037Y53627D01*
X47029Y53588D01*
X47019Y53552D01*
X47006Y53518D01*
X46992Y53487D01*
X46976Y53458D01*
X46958Y53431D01*
X46932Y53397D01*
X46932Y53396D01*
X46914Y53378D01*
X46797Y53175D01*
X46736Y52949D01*
Y52715D01*
X46797Y52489D01*
X46914Y52286D01*
X47079Y52121D01*
X47282Y52004D01*
X47508Y51943D01*
X47742D01*
X47968Y52004D01*
X48171Y52121D01*
X48336Y52286D01*
X48453Y52489D01*
X48514Y52715D01*
Y52949D01*
X48453Y53175D01*
X48336Y53378D01*
X48196Y53518D01*
X48193Y53522D01*
X48186Y53529D01*
X48171Y53543D01*
X48165Y53547D01*
X48164Y53548D01*
X48147Y53567D01*
X48131Y53587D01*
X48118Y53609D01*
X48106Y53634D01*
X48096Y53662D01*
X48087Y53694D01*
X48080Y53731D01*
X48079Y53740D01*
Y54278D01*
X48080Y54281D01*
X48086Y54323D01*
X48094Y54362D01*
X48104Y54398D01*
X48117Y54432D01*
X48131Y54463D01*
X48147Y54492D01*
X48165Y54519D01*
X48191Y54553D01*
X48191Y54554D01*
X48209Y54572D01*
X48326Y54775D01*
X48387Y55001D01*
Y55235D01*
X48326Y55461D01*
X48209Y55664D01*
X48044Y55829D01*
X47841Y55946D01*
X47615Y56007D01*
D02*
G37*
G36*
X49652Y66929D02*
X49418D01*
X49192Y66868D01*
X48989Y66751D01*
X48824Y66586D01*
X48707Y66383D01*
X48646Y66157D01*
Y66063D01*
X48641Y66042D01*
X48640Y66001D01*
X48636Y65971D01*
X48630Y65943D01*
X48621Y65913D01*
X48609Y65884D01*
X48594Y65854D01*
X48575Y65822D01*
X48551Y65790D01*
X48547Y65784D01*
X34398Y51636D01*
X26470D01*
X26463Y51637D01*
X26423Y51643D01*
X26387Y51652D01*
X26355Y51662D01*
X26326Y51675D01*
X26299Y51689D01*
X26274Y51705D01*
X26251Y51723D01*
X26220Y51752D01*
X26202Y51763D01*
X26136Y51829D01*
X25933Y51946D01*
X25707Y52007D01*
X25613D01*
X25592Y52012D01*
X25551Y52013D01*
X25521Y52017D01*
X25493Y52023D01*
X25463Y52032D01*
X25434Y52044D01*
X25404Y52059D01*
X25372Y52078D01*
X25340Y52102D01*
X25334Y52106D01*
X23467Y53974D01*
Y64808D01*
X23467Y64808D01*
X23427Y65006D01*
X23315Y65174D01*
X22705Y65784D01*
X22701Y65790D01*
X22677Y65822D01*
X22658Y65854D01*
X22643Y65884D01*
X22631Y65913D01*
X22622Y65943D01*
X22616Y65971D01*
X22612Y66001D01*
X22611Y66042D01*
X22606Y66063D01*
Y66157D01*
X22545Y66383D01*
X22428Y66586D01*
X22263Y66751D01*
X22060Y66868D01*
X21834Y66929D01*
X21600D01*
X21374Y66868D01*
X21171Y66751D01*
X21006Y66586D01*
X20889Y66383D01*
X20828Y66157D01*
Y65923D01*
X20889Y65697D01*
X21006Y65494D01*
X21171Y65329D01*
X21374Y65212D01*
X21600Y65151D01*
X21694D01*
X21715Y65146D01*
X21756Y65145D01*
X21786Y65141D01*
X21814Y65135D01*
X21844Y65126D01*
X21873Y65114D01*
X21903Y65099D01*
X21935Y65080D01*
X21967Y65056D01*
X21973Y65052D01*
X22431Y64594D01*
Y53759D01*
X22470Y53561D01*
X22583Y53393D01*
X24602Y51374D01*
X24606Y51368D01*
X24630Y51336D01*
X24649Y51304D01*
X24664Y51274D01*
X24676Y51245D01*
X24685Y51215D01*
X24691Y51187D01*
X24695Y51157D01*
X24696Y51116D01*
X24701Y51095D01*
Y51001D01*
X24762Y50775D01*
X24879Y50572D01*
X25044Y50407D01*
X25247Y50290D01*
X25473Y50229D01*
X25707D01*
X25933Y50290D01*
X26136Y50407D01*
X26202Y50473D01*
X26220Y50484D01*
X26251Y50513D01*
X26274Y50531D01*
X26299Y50547D01*
X26326Y50561D01*
X26355Y50574D01*
X26387Y50584D01*
X26423Y50593D01*
X26463Y50599D01*
X26470Y50600D01*
X34613D01*
X34811Y50639D01*
X34979Y50752D01*
X49279Y65052D01*
X49285Y65056D01*
X49317Y65080D01*
X49349Y65099D01*
X49379Y65114D01*
X49408Y65126D01*
X49438Y65135D01*
X49466Y65141D01*
X49496Y65145D01*
X49535Y65146D01*
X49574Y65145D01*
X49604Y65141D01*
X49632Y65135D01*
X49662Y65126D01*
X49691Y65114D01*
X49721Y65099D01*
X49753Y65080D01*
X49785Y65056D01*
X49791Y65052D01*
X60188Y54654D01*
Y52950D01*
X60187Y52943D01*
X60181Y52903D01*
X60172Y52867D01*
X60162Y52835D01*
X60149Y52806D01*
X60135Y52779D01*
X60119Y52754D01*
X60101Y52731D01*
X60072Y52700D01*
X60061Y52682D01*
X59995Y52616D01*
X59878Y52413D01*
X59817Y52187D01*
Y51953D01*
X59878Y51727D01*
X59995Y51524D01*
X60160Y51359D01*
X60363Y51242D01*
X60589Y51181D01*
X60823D01*
X61049Y51242D01*
X61252Y51359D01*
X61417Y51524D01*
X61534Y51727D01*
X61595Y51953D01*
Y52187D01*
X61534Y52413D01*
X61417Y52616D01*
X61351Y52682D01*
X61340Y52700D01*
X61311Y52731D01*
X61293Y52754D01*
X61277Y52779D01*
X61263Y52806D01*
X61250Y52835D01*
X61240Y52867D01*
X61231Y52903D01*
X61225Y52943D01*
X61224Y52950D01*
Y54869D01*
X61224Y54869D01*
X61185Y55067D01*
X61072Y55235D01*
X50523Y65784D01*
X50519Y65790D01*
X50495Y65822D01*
X50476Y65854D01*
X50461Y65884D01*
X50449Y65913D01*
X50440Y65943D01*
X50434Y65971D01*
X50430Y66001D01*
X50429Y66042D01*
X50424Y66063D01*
Y66157D01*
X50363Y66383D01*
X50246Y66586D01*
X50081Y66751D01*
X49878Y66868D01*
X49652Y66929D01*
D02*
G37*
G36*
X68695Y49134D02*
X68465D01*
X68243Y49074D01*
X68043Y48959D01*
X67881Y48797D01*
X67766Y48597D01*
X67706Y48375D01*
Y48145D01*
X67766Y47923D01*
X67881Y47723D01*
X68043Y47561D01*
X68243Y47446D01*
X68465Y47386D01*
X68695D01*
X68917Y47446D01*
X69117Y47561D01*
X69279Y47723D01*
X69394Y47923D01*
X69454Y48145D01*
Y48375D01*
X69394Y48597D01*
X69279Y48797D01*
X69117Y48959D01*
X68917Y49074D01*
X68695Y49134D01*
D02*
G37*
G36*
X12815D02*
X12585D01*
X12363Y49074D01*
X12163Y48959D01*
X12001Y48797D01*
X11886Y48597D01*
X11826Y48375D01*
Y48145D01*
X11886Y47923D01*
X12001Y47723D01*
X12163Y47561D01*
X12363Y47446D01*
X12585Y47386D01*
X12815D01*
X13037Y47446D01*
X13237Y47561D01*
X13399Y47723D01*
X13514Y47923D01*
X13574Y48145D01*
Y48375D01*
X13514Y48597D01*
X13399Y48797D01*
X13237Y48959D01*
X13037Y49074D01*
X12815Y49134D01*
D02*
G37*
G36*
X39473Y46499D02*
X39267D01*
X39069Y46446D01*
X38892Y46343D01*
X38747Y46198D01*
X38644Y46021D01*
X38591Y45823D01*
Y45617D01*
X38644Y45419D01*
X38747Y45242D01*
X38892Y45097D01*
X39069Y44994D01*
X39267Y44941D01*
X39473D01*
X39671Y44994D01*
X39848Y45097D01*
X39993Y45242D01*
X40096Y45419D01*
X40149Y45617D01*
Y45823D01*
X40096Y46021D01*
X39993Y46198D01*
X39848Y46343D01*
X39671Y46446D01*
X39473Y46499D01*
D02*
G37*
G36*
X47498Y48270D02*
X36322D01*
X36124Y48231D01*
X35956Y48118D01*
X34403Y46565D01*
X34385Y46551D01*
X34360Y46534D01*
X34340Y46521D01*
X34322Y46513D01*
X34310Y46507D01*
X34302Y46505D01*
X34298Y46504D01*
X34281Y46504D01*
X34263Y46499D01*
X34187D01*
X33989Y46446D01*
X33812Y46343D01*
X33667Y46198D01*
X33564Y46021D01*
X33511Y45823D01*
Y45617D01*
X33564Y45419D01*
X33667Y45242D01*
X33686Y45222D01*
X33581Y44968D01*
X32630D01*
X32623Y44969D01*
X32583Y44975D01*
X32547Y44984D01*
X32515Y44994D01*
X32486Y45007D01*
X32459Y45021D01*
X32434Y45037D01*
X32411Y45055D01*
X32380Y45084D01*
X32362Y45095D01*
X32296Y45161D01*
X32093Y45278D01*
X31867Y45339D01*
X31633D01*
X31407Y45278D01*
X31204Y45161D01*
X31039Y44996D01*
X30922Y44793D01*
X30861Y44567D01*
Y44333D01*
X30922Y44107D01*
X31039Y43904D01*
X31204Y43739D01*
X31407Y43622D01*
X31633Y43561D01*
X31867D01*
X32093Y43622D01*
X32296Y43739D01*
X32362Y43805D01*
X32380Y43816D01*
X32411Y43845D01*
X32434Y43863D01*
X32459Y43879D01*
X32486Y43893D01*
X32515Y43906D01*
X32547Y43916D01*
X32583Y43925D01*
X32623Y43931D01*
X32630Y43932D01*
X35560D01*
X35758Y43971D01*
X35926Y44084D01*
X36717Y44875D01*
X36735Y44889D01*
X36760Y44906D01*
X36780Y44919D01*
X36798Y44927D01*
X36810Y44932D01*
X36818Y44935D01*
X36822Y44936D01*
X36839Y44936D01*
X36857Y44941D01*
X36933D01*
X37131Y44994D01*
X37308Y45097D01*
X37453Y45242D01*
X37556Y45419D01*
X37609Y45617D01*
Y45823D01*
X37556Y46021D01*
X37453Y46198D01*
X37308Y46343D01*
X37131Y46446D01*
X36933Y46499D01*
X36727D01*
X36529Y46446D01*
X36352Y46343D01*
X36207Y46198D01*
X36104Y46021D01*
X36051Y45823D01*
Y45747D01*
X36046Y45729D01*
X36046Y45712D01*
X36045Y45708D01*
X36042Y45700D01*
X36037Y45688D01*
X36029Y45671D01*
X36016Y45650D01*
X36001Y45628D01*
X35978Y45600D01*
X35345Y44968D01*
X34999D01*
X34894Y45222D01*
X34913Y45242D01*
X35016Y45419D01*
X35069Y45617D01*
Y45693D01*
X35074Y45711D01*
X35074Y45728D01*
X35075Y45732D01*
X35077Y45740D01*
X35083Y45752D01*
X35091Y45770D01*
X35104Y45790D01*
X35119Y45812D01*
X35142Y45840D01*
X36537Y47234D01*
X42360D01*
X42457Y46999D01*
X42023Y46565D01*
X42005Y46551D01*
X41980Y46534D01*
X41959Y46521D01*
X41942Y46513D01*
X41930Y46507D01*
X41922Y46505D01*
X41918Y46504D01*
X41901Y46504D01*
X41883Y46499D01*
X41807D01*
X41609Y46446D01*
X41432Y46343D01*
X41287Y46198D01*
X41184Y46021D01*
X41131Y45823D01*
Y45617D01*
X41184Y45419D01*
X41287Y45242D01*
X41432Y45097D01*
X41609Y44994D01*
X41807Y44941D01*
X42013D01*
X42211Y44994D01*
X42388Y45097D01*
X42533Y45242D01*
X42636Y45419D01*
X42689Y45617D01*
Y45693D01*
X42694Y45711D01*
X42694Y45728D01*
X42695Y45732D01*
X42697Y45740D01*
X42703Y45752D01*
X42711Y45770D01*
X42724Y45790D01*
X42739Y45812D01*
X42762Y45840D01*
X43395Y46472D01*
X43741D01*
X43846Y46218D01*
X43827Y46198D01*
X43724Y46021D01*
X43671Y45823D01*
Y45617D01*
X43724Y45419D01*
X43827Y45242D01*
X43880Y45188D01*
X43890Y45172D01*
X43901Y45160D01*
X43903Y45157D01*
X43907Y45149D01*
X43912Y45137D01*
X43918Y45118D01*
X43924Y45095D01*
X43929Y45069D01*
X43932Y45033D01*
Y43180D01*
X43971Y42982D01*
X44084Y42814D01*
X49812Y37086D01*
X49816Y37080D01*
X49840Y37048D01*
X49859Y37016D01*
X49874Y36986D01*
X49886Y36957D01*
X49895Y36927D01*
X49901Y36899D01*
X49905Y36869D01*
X49906Y36828D01*
X49911Y36807D01*
Y36713D01*
X49972Y36487D01*
X50089Y36284D01*
X50254Y36119D01*
X50457Y36002D01*
X50683Y35941D01*
X50917D01*
X51143Y36002D01*
X51346Y36119D01*
X51511Y36284D01*
X51628Y36487D01*
X51689Y36713D01*
Y36947D01*
X51628Y37173D01*
X51511Y37376D01*
X51346Y37541D01*
X51143Y37658D01*
X50917Y37719D01*
X50823D01*
X50802Y37724D01*
X50761Y37725D01*
X50731Y37729D01*
X50703Y37735D01*
X50673Y37744D01*
X50644Y37756D01*
X50614Y37771D01*
X50582Y37790D01*
X50550Y37814D01*
X50544Y37818D01*
X44968Y43395D01*
Y45043D01*
X44971Y45065D01*
X44976Y45095D01*
X44982Y45118D01*
X44988Y45137D01*
X44993Y45149D01*
X44997Y45157D01*
X44999Y45160D01*
X45010Y45172D01*
X45020Y45188D01*
X45073Y45242D01*
X45176Y45419D01*
X45229Y45617D01*
Y45823D01*
X45176Y46021D01*
X45073Y46198D01*
X45054Y46218D01*
X45159Y46472D01*
X46281D01*
X46386Y46218D01*
X46367Y46198D01*
X46264Y46021D01*
X46211Y45823D01*
Y45617D01*
X46264Y45419D01*
X46367Y45242D01*
X46420Y45188D01*
X46430Y45172D01*
X46441Y45160D01*
X46443Y45157D01*
X46447Y45149D01*
X46452Y45137D01*
X46458Y45118D01*
X46464Y45095D01*
X46469Y45069D01*
X46472Y45033D01*
Y43180D01*
X46511Y42982D01*
X46624Y42814D01*
X49812Y39626D01*
X49816Y39620D01*
X49840Y39588D01*
X49859Y39556D01*
X49874Y39526D01*
X49886Y39497D01*
X49895Y39467D01*
X49901Y39439D01*
X49905Y39409D01*
X49906Y39368D01*
X49911Y39347D01*
Y39253D01*
X49972Y39027D01*
X50089Y38824D01*
X50254Y38659D01*
X50457Y38542D01*
X50683Y38481D01*
X50917D01*
X51143Y38542D01*
X51346Y38659D01*
X51511Y38824D01*
X51628Y39027D01*
X51689Y39253D01*
Y39487D01*
X51628Y39713D01*
X51511Y39916D01*
X51346Y40081D01*
X51143Y40198D01*
X50917Y40259D01*
X50823D01*
X50802Y40264D01*
X50761Y40265D01*
X50731Y40269D01*
X50703Y40275D01*
X50673Y40284D01*
X50644Y40296D01*
X50614Y40311D01*
X50582Y40330D01*
X50550Y40354D01*
X50544Y40358D01*
X47508Y43395D01*
Y45043D01*
X47511Y45065D01*
X47516Y45095D01*
X47522Y45118D01*
X47528Y45137D01*
X47533Y45149D01*
X47537Y45157D01*
X47539Y45160D01*
X47550Y45172D01*
X47560Y45188D01*
X47613Y45242D01*
X47696Y45385D01*
X47832Y45433D01*
X47988Y45452D01*
X49012Y44428D01*
Y43180D01*
X49051Y42982D01*
X49164Y42814D01*
X49812Y42166D01*
X49816Y42160D01*
X49840Y42128D01*
X49859Y42096D01*
X49874Y42066D01*
X49886Y42037D01*
X49895Y42008D01*
X49901Y41979D01*
X49905Y41949D01*
X49906Y41908D01*
X49911Y41887D01*
Y41793D01*
X49972Y41567D01*
X50089Y41364D01*
X50254Y41199D01*
X50457Y41082D01*
X50683Y41021D01*
X50917D01*
X51143Y41082D01*
X51346Y41199D01*
X51511Y41364D01*
X51628Y41567D01*
X51689Y41793D01*
Y42027D01*
X51628Y42253D01*
X51511Y42456D01*
X51346Y42621D01*
X51143Y42738D01*
X50917Y42799D01*
X50823D01*
X50802Y42804D01*
X50761Y42805D01*
X50731Y42809D01*
X50703Y42815D01*
X50673Y42824D01*
X50644Y42836D01*
X50614Y42851D01*
X50582Y42870D01*
X50550Y42894D01*
X50544Y42898D01*
X50089Y43354D01*
X50100Y43588D01*
X50326Y43697D01*
X50457Y43622D01*
X50683Y43561D01*
X50917D01*
X51143Y43622D01*
X51346Y43739D01*
X51511Y43904D01*
X51628Y44107D01*
X51689Y44333D01*
Y44567D01*
X51628Y44793D01*
X51511Y44996D01*
X51346Y45161D01*
X51143Y45278D01*
X50917Y45339D01*
X50823D01*
X50802Y45344D01*
X50761Y45345D01*
X50731Y45349D01*
X50703Y45355D01*
X50673Y45364D01*
X50644Y45376D01*
X50614Y45391D01*
X50582Y45410D01*
X50550Y45434D01*
X50544Y45438D01*
X47864Y48118D01*
X47696Y48231D01*
X47498Y48270D01*
D02*
G37*
G36*
X47093Y36339D02*
X46887D01*
X46689Y36286D01*
X46512Y36183D01*
X46367Y36038D01*
X46264Y35861D01*
X46211Y35663D01*
Y35457D01*
X46264Y35259D01*
X46367Y35082D01*
X46512Y34937D01*
X46689Y34834D01*
X46887Y34781D01*
X47093D01*
X47291Y34834D01*
X47468Y34937D01*
X47613Y35082D01*
X47716Y35259D01*
X47769Y35457D01*
Y35663D01*
X47716Y35861D01*
X47613Y36038D01*
X47468Y36183D01*
X47291Y36286D01*
X47093Y36339D01*
D02*
G37*
G36*
X44553D02*
X44347D01*
X44149Y36286D01*
X43972Y36183D01*
X43827Y36038D01*
X43724Y35861D01*
X43671Y35663D01*
Y35457D01*
X43724Y35259D01*
X43827Y35082D01*
X43972Y34937D01*
X44149Y34834D01*
X44347Y34781D01*
X44553D01*
X44751Y34834D01*
X44928Y34937D01*
X45073Y35082D01*
X45176Y35259D01*
X45229Y35457D01*
Y35663D01*
X45176Y35861D01*
X45073Y36038D01*
X44928Y36183D01*
X44751Y36286D01*
X44553Y36339D01*
D02*
G37*
G36*
X42013D02*
X41807D01*
X41609Y36286D01*
X41432Y36183D01*
X41287Y36038D01*
X41184Y35861D01*
X41131Y35663D01*
Y35457D01*
X41184Y35259D01*
X41287Y35082D01*
X41432Y34937D01*
X41609Y34834D01*
X41807Y34781D01*
X42013D01*
X42211Y34834D01*
X42388Y34937D01*
X42533Y35082D01*
X42636Y35259D01*
X42689Y35457D01*
Y35663D01*
X42636Y35861D01*
X42533Y36038D01*
X42388Y36183D01*
X42211Y36286D01*
X42013Y36339D01*
D02*
G37*
G36*
X39473D02*
X39267D01*
X39069Y36286D01*
X38892Y36183D01*
X38747Y36038D01*
X38644Y35861D01*
X38591Y35663D01*
Y35457D01*
X38644Y35259D01*
X38747Y35082D01*
X38892Y34937D01*
X39069Y34834D01*
X39267Y34781D01*
X39473D01*
X39671Y34834D01*
X39848Y34937D01*
X39993Y35082D01*
X40096Y35259D01*
X40149Y35457D01*
Y35663D01*
X40096Y35861D01*
X39993Y36038D01*
X39848Y36183D01*
X39671Y36286D01*
X39473Y36339D01*
D02*
G37*
G36*
X36933D02*
X36727D01*
X36529Y36286D01*
X36352Y36183D01*
X36207Y36038D01*
X36104Y35861D01*
X36051Y35663D01*
Y35457D01*
X36104Y35259D01*
X36207Y35082D01*
X36352Y34937D01*
X36529Y34834D01*
X36727Y34781D01*
X36933D01*
X37131Y34834D01*
X37308Y34937D01*
X37453Y35082D01*
X37556Y35259D01*
X37609Y35457D01*
Y35663D01*
X37556Y35861D01*
X37453Y36038D01*
X37308Y36183D01*
X37131Y36286D01*
X36933Y36339D01*
D02*
G37*
G36*
X35069D02*
X33511D01*
Y34781D01*
X35069D01*
Y36339D01*
D02*
G37*
G36*
X76454Y31580D02*
Y30734D01*
X77300D01*
X77251Y30915D01*
X77103Y31173D01*
X76893Y31383D01*
X76635Y31531D01*
X76454Y31580D01*
D02*
G37*
G36*
X75946D02*
X75765Y31531D01*
X75507Y31383D01*
X75297Y31173D01*
X75149Y30915D01*
X75100Y30734D01*
X75946D01*
Y31580D01*
D02*
G37*
G36*
X73775Y31354D02*
X73545D01*
X73323Y31294D01*
X73123Y31179D01*
X72961Y31017D01*
X72846Y30817D01*
X72786Y30595D01*
Y30365D01*
X72846Y30143D01*
X72961Y29943D01*
X73123Y29781D01*
X73323Y29666D01*
X73545Y29606D01*
X73775D01*
X73997Y29666D01*
X74197Y29781D01*
X74359Y29943D01*
X74474Y30143D01*
X74534Y30365D01*
Y30595D01*
X74474Y30817D01*
X74359Y31017D01*
X74197Y31179D01*
X73997Y31294D01*
X73775Y31354D01*
D02*
G37*
G36*
X66155D02*
X65925D01*
X65703Y31294D01*
X65503Y31179D01*
X65341Y31017D01*
X65226Y30817D01*
X65166Y30595D01*
Y30365D01*
X65226Y30143D01*
X65341Y29943D01*
X65503Y29781D01*
X65703Y29666D01*
X65925Y29606D01*
X66155D01*
X66377Y29666D01*
X66577Y29781D01*
X66739Y29943D01*
X66854Y30143D01*
X66914Y30365D01*
Y30595D01*
X66854Y30817D01*
X66739Y31017D01*
X66577Y31179D01*
X66377Y31294D01*
X66155Y31354D01*
D02*
G37*
G36*
X58535D02*
X58305D01*
X58083Y31294D01*
X57883Y31179D01*
X57721Y31017D01*
X57606Y30817D01*
X57546Y30595D01*
Y30365D01*
X57606Y30143D01*
X57721Y29943D01*
X57883Y29781D01*
X58083Y29666D01*
X58305Y29606D01*
X58535D01*
X58757Y29666D01*
X58957Y29781D01*
X59119Y29943D01*
X59234Y30143D01*
X59294Y30365D01*
Y30595D01*
X59234Y30817D01*
X59119Y31017D01*
X58957Y31179D01*
X58757Y31294D01*
X58535Y31354D01*
D02*
G37*
G36*
X28055D02*
X27825D01*
X27603Y31294D01*
X27403Y31179D01*
X27241Y31017D01*
X27126Y30817D01*
X27066Y30595D01*
Y30365D01*
X27126Y30143D01*
X27241Y29943D01*
X27403Y29781D01*
X27603Y29666D01*
X27825Y29606D01*
X28055D01*
X28277Y29666D01*
X28477Y29781D01*
X28639Y29943D01*
X28754Y30143D01*
X28814Y30365D01*
Y30595D01*
X28754Y30817D01*
X28639Y31017D01*
X28477Y31179D01*
X28277Y31294D01*
X28055Y31354D01*
D02*
G37*
G36*
X22975D02*
X22745D01*
X22523Y31294D01*
X22323Y31179D01*
X22161Y31017D01*
X22046Y30817D01*
X21986Y30595D01*
Y30365D01*
X22046Y30143D01*
X22161Y29943D01*
X22323Y29781D01*
X22523Y29666D01*
X22745Y29606D01*
X22975D01*
X23197Y29666D01*
X23397Y29781D01*
X23559Y29943D01*
X23674Y30143D01*
X23734Y30365D01*
Y30595D01*
X23674Y30817D01*
X23559Y31017D01*
X23397Y31179D01*
X23197Y31294D01*
X22975Y31354D01*
D02*
G37*
G36*
X17895D02*
X17665D01*
X17443Y31294D01*
X17243Y31179D01*
X17081Y31017D01*
X16966Y30817D01*
X16906Y30595D01*
Y30365D01*
X16966Y30143D01*
X17081Y29943D01*
X17243Y29781D01*
X17443Y29666D01*
X17665Y29606D01*
X17895D01*
X18117Y29666D01*
X18317Y29781D01*
X18479Y29943D01*
X18594Y30143D01*
X18654Y30365D01*
Y30595D01*
X18594Y30817D01*
X18479Y31017D01*
X18317Y31179D01*
X18117Y31294D01*
X17895Y31354D01*
D02*
G37*
G36*
X12815D02*
X12585D01*
X12363Y31294D01*
X12163Y31179D01*
X12001Y31017D01*
X11886Y30817D01*
X11826Y30595D01*
Y30365D01*
X11886Y30143D01*
X12001Y29943D01*
X12163Y29781D01*
X12363Y29666D01*
X12585Y29606D01*
X12815D01*
X13037Y29666D01*
X13237Y29781D01*
X13399Y29943D01*
X13514Y30143D01*
X13574Y30365D01*
Y30595D01*
X13514Y30817D01*
X13399Y31017D01*
X13237Y31179D01*
X13037Y31294D01*
X12815Y31354D01*
D02*
G37*
G36*
X77300Y30226D02*
X76454D01*
Y29380D01*
X76635Y29429D01*
X76893Y29577D01*
X77103Y29787D01*
X77251Y30045D01*
X77300Y30226D01*
D02*
G37*
G36*
X75946D02*
X75100D01*
X75149Y30045D01*
X75297Y29787D01*
X75507Y29577D01*
X75765Y29429D01*
X75946Y29380D01*
Y30226D01*
D02*
G37*
G36*
X77740Y27847D02*
X77594D01*
Y27084D01*
X78723D01*
X78722Y27093D01*
X78620Y27338D01*
X78459Y27549D01*
X78248Y27710D01*
X78003Y27812D01*
X77740Y27847D01*
D02*
G37*
G36*
X73710D02*
X73414D01*
Y27084D01*
X74693D01*
X74692Y27093D01*
X74591Y27338D01*
X74429Y27549D01*
X74218Y27710D01*
X73973Y27812D01*
X73710Y27847D01*
D02*
G37*
G36*
X77086D02*
X76940D01*
X76677Y27812D01*
X76432Y27710D01*
X76221Y27549D01*
X76060Y27338D01*
X75958Y27093D01*
X75957Y27084D01*
X77086D01*
Y27847D01*
D02*
G37*
G36*
X72906D02*
X72610D01*
X72347Y27812D01*
X72102Y27710D01*
X71891Y27549D01*
X71730Y27338D01*
X71628Y27093D01*
X71627Y27084D01*
X72906D01*
Y27847D01*
D02*
G37*
G36*
X78723Y26576D02*
X77594D01*
Y25813D01*
X77740D01*
X78003Y25848D01*
X78248Y25949D01*
X78459Y26111D01*
X78620Y26322D01*
X78722Y26567D01*
X78723Y26576D01*
D02*
G37*
G36*
X77086D02*
X75957D01*
X75958Y26567D01*
X76060Y26322D01*
X76221Y26111D01*
X76432Y25949D01*
X76677Y25848D01*
X76940Y25813D01*
X77086D01*
Y26576D01*
D02*
G37*
G36*
X74693D02*
X73160D01*
X71627D01*
X71628Y26567D01*
X71730Y26322D01*
X71891Y26111D01*
X72102Y25949D01*
X72347Y25848D01*
X72610Y25813D01*
X72930D01*
X73099Y25559D01*
X73081Y25515D01*
Y25285D01*
X73169Y25072D01*
X73332Y24909D01*
X73545Y24821D01*
X73775D01*
X73988Y24909D01*
X74151Y25072D01*
X74239Y25285D01*
Y25515D01*
X74151Y25728D01*
X74258Y25980D01*
X74429Y26111D01*
X74591Y26322D01*
X74692Y26567D01*
X74693Y26576D01*
D02*
G37*
G36*
X40812Y26384D02*
X40468D01*
X40137Y26295D01*
X39839Y26123D01*
X39597Y25881D01*
X39425Y25583D01*
X39336Y25252D01*
Y24908D01*
X39425Y24577D01*
X39597Y24279D01*
X39839Y24037D01*
X40137Y23865D01*
X40468Y23776D01*
X40812D01*
X41143Y23865D01*
X41441Y24037D01*
X41683Y24279D01*
X41855Y24577D01*
X41944Y24908D01*
Y25252D01*
X41855Y25583D01*
X41683Y25881D01*
X41441Y26123D01*
X41143Y26295D01*
X40812Y26384D01*
D02*
G37*
G36*
X77740Y19207D02*
X77594D01*
Y18444D01*
X78723D01*
X78722Y18453D01*
X78620Y18698D01*
X78459Y18909D01*
X78248Y19070D01*
X78003Y19172D01*
X77740Y19207D01*
D02*
G37*
G36*
X77086D02*
X76940D01*
X76677Y19172D01*
X76432Y19070D01*
X76221Y18909D01*
X76060Y18698D01*
X75958Y18453D01*
X75957Y18444D01*
X77086D01*
Y19207D01*
D02*
G37*
G36*
X73775Y20199D02*
X73545D01*
X73332Y20111D01*
X73169Y19948D01*
X73081Y19735D01*
Y19505D01*
X73099Y19461D01*
X72930Y19207D01*
X72610D01*
X72347Y19172D01*
X72102Y19070D01*
X71891Y18909D01*
X71730Y18698D01*
X71628Y18453D01*
X71627Y18444D01*
X73160D01*
X74693D01*
X74692Y18453D01*
X74591Y18698D01*
X74429Y18909D01*
X74258Y19040D01*
X74151Y19292D01*
X74239Y19505D01*
Y19735D01*
X74151Y19948D01*
X73988Y20111D01*
X73775Y20199D01*
D02*
G37*
G36*
X78723Y17936D02*
X77594D01*
Y17173D01*
X77740D01*
X78003Y17208D01*
X78248Y17310D01*
X78459Y17471D01*
X78620Y17682D01*
X78722Y17927D01*
X78723Y17936D01*
D02*
G37*
G36*
X77086D02*
X75957D01*
X75958Y17927D01*
X76060Y17682D01*
X76221Y17471D01*
X76432Y17310D01*
X76677Y17208D01*
X76940Y17173D01*
X77086D01*
Y17936D01*
D02*
G37*
G36*
X74693D02*
X73414D01*
Y17173D01*
X73710D01*
X73973Y17208D01*
X74218Y17310D01*
X74429Y17471D01*
X74591Y17682D01*
X74692Y17927D01*
X74693Y17936D01*
D02*
G37*
G36*
X72906D02*
X71627D01*
X71628Y17927D01*
X71730Y17682D01*
X71891Y17471D01*
X72102Y17310D01*
X72347Y17208D01*
X72610Y17173D01*
X72906D01*
Y17936D01*
D02*
G37*
G36*
X70256Y13254D02*
X69744D01*
X69238Y13174D01*
X68751Y13016D01*
X68295Y12783D01*
X67880Y12482D01*
X67518Y12120D01*
X67217Y11705D01*
X66984Y11249D01*
X66826Y10762D01*
X66746Y10256D01*
Y9744D01*
X66826Y9238D01*
X66984Y8751D01*
X67217Y8295D01*
X67518Y7880D01*
X67880Y7518D01*
X68295Y7217D01*
X68751Y6984D01*
X69238Y6826D01*
X69744Y6746D01*
X70256D01*
X70762Y6826D01*
X71249Y6984D01*
X71705Y7217D01*
X72120Y7518D01*
X72482Y7880D01*
X72783Y8295D01*
X73016Y8751D01*
X73174Y9238D01*
X73254Y9744D01*
Y10256D01*
X73174Y10762D01*
X73016Y11249D01*
X72783Y11705D01*
X72482Y12120D01*
X72120Y12482D01*
X71705Y12783D01*
X71249Y13016D01*
X70762Y13174D01*
X70256Y13254D01*
D02*
G37*
G36*
X10256D02*
X9744D01*
X9238Y13174D01*
X8751Y13016D01*
X8295Y12783D01*
X7880Y12482D01*
X7518Y12120D01*
X7217Y11705D01*
X6984Y11249D01*
X6826Y10762D01*
X6746Y10256D01*
Y9744D01*
X6826Y9238D01*
X6984Y8751D01*
X7217Y8295D01*
X7518Y7880D01*
X7880Y7518D01*
X8295Y7217D01*
X8751Y6984D01*
X9238Y6826D01*
X9744Y6746D01*
X10256D01*
X10762Y6826D01*
X11249Y6984D01*
X11705Y7217D01*
X12120Y7518D01*
X12482Y7880D01*
X12783Y8295D01*
X13016Y8751D01*
X13174Y9238D01*
X13254Y9744D01*
Y10256D01*
X13174Y10762D01*
X13016Y11249D01*
X12783Y11705D01*
X12482Y12120D01*
X12120Y12482D01*
X11705Y12783D01*
X11249Y13016D01*
X10762Y13174D01*
X10256Y13254D01*
D02*
G37*
G36*
X40894Y6618D02*
Y5334D01*
X42178D01*
X42138Y5534D01*
X42021Y5818D01*
X41850Y6073D01*
X41633Y6290D01*
X41378Y6461D01*
X41094Y6578D01*
X40894Y6618D01*
D02*
G37*
G36*
X40386D02*
X40186Y6578D01*
X39902Y6461D01*
X39647Y6290D01*
X39430Y6073D01*
X39259Y5818D01*
X39142Y5534D01*
X39102Y5334D01*
X40386D01*
Y6618D01*
D02*
G37*
G36*
X42178Y4826D02*
X40894D01*
Y3542D01*
X41094Y3582D01*
X41378Y3699D01*
X41633Y3870D01*
X41850Y4087D01*
X42021Y4342D01*
X42138Y4626D01*
X42178Y4826D01*
D02*
G37*
G36*
X40386D02*
X39102D01*
X39142Y4626D01*
X39259Y4342D01*
X39430Y4087D01*
X39647Y3870D01*
X39902Y3699D01*
X40186Y3582D01*
X40386Y3542D01*
Y4826D01*
D02*
G37*
%LPD*%
G36*
X47953Y54669D02*
X47924Y54625D01*
X47899Y54578D01*
X47877Y54529D01*
X47858Y54478D01*
X47843Y54425D01*
X47831Y54369D01*
X47822Y54311D01*
X47817Y54250D01*
X47815Y54187D01*
X47307Y54131D01*
X47305Y54195D01*
X47299Y54255D01*
X47289Y54312D01*
X47274Y54366D01*
X47256Y54417D01*
X47233Y54464D01*
X47206Y54509D01*
X47175Y54550D01*
X47140Y54588D01*
X47101Y54622D01*
X47986Y54711D01*
X47953Y54669D01*
D02*
G37*
G36*
X47818Y53755D02*
X47824Y53695D01*
X47834Y53638D01*
X47849Y53584D01*
X47867Y53533D01*
X47890Y53486D01*
X47917Y53441D01*
X47948Y53400D01*
X47983Y53362D01*
X48022Y53328D01*
X47137Y53239D01*
X47170Y53281D01*
X47199Y53325D01*
X47224Y53372D01*
X47246Y53421D01*
X47265Y53472D01*
X47280Y53525D01*
X47292Y53581D01*
X47301Y53639D01*
X47306Y53700D01*
X47307Y53763D01*
X47815Y53819D01*
X47818Y53755D01*
D02*
G37*
G36*
X50172Y65981D02*
X50178Y65928D01*
X50189Y65877D01*
X50205Y65826D01*
X50225Y65777D01*
X50250Y65727D01*
X50279Y65679D01*
X50313Y65632D01*
X50352Y65585D01*
X50396Y65539D01*
X50036Y65179D01*
X49990Y65223D01*
X49944Y65262D01*
X49896Y65296D01*
X49848Y65325D01*
X49798Y65350D01*
X49749Y65370D01*
X49698Y65386D01*
X49647Y65397D01*
X49594Y65403D01*
X49541Y65405D01*
X50170Y66034D01*
X50172Y65981D01*
D02*
G37*
G36*
X49529Y65405D02*
X49476Y65403D01*
X49424Y65397D01*
X49372Y65386D01*
X49321Y65370D01*
X49272Y65350D01*
X49222Y65325D01*
X49174Y65296D01*
X49127Y65262D01*
X49080Y65223D01*
X49034Y65179D01*
X48674Y65539D01*
X48718Y65585D01*
X48757Y65632D01*
X48791Y65679D01*
X48820Y65727D01*
X48845Y65777D01*
X48865Y65826D01*
X48881Y65877D01*
X48892Y65928D01*
X48898Y65981D01*
X48900Y66034D01*
X49529Y65405D01*
D02*
G37*
G36*
X22354Y65981D02*
X22360Y65928D01*
X22371Y65877D01*
X22387Y65826D01*
X22407Y65777D01*
X22432Y65727D01*
X22461Y65679D01*
X22495Y65632D01*
X22534Y65585D01*
X22578Y65539D01*
X22218Y65179D01*
X22172Y65223D01*
X22125Y65262D01*
X22078Y65296D01*
X22030Y65325D01*
X21980Y65350D01*
X21931Y65370D01*
X21880Y65386D01*
X21829Y65397D01*
X21776Y65403D01*
X21723Y65405D01*
X22352Y66034D01*
X22354Y65981D01*
D02*
G37*
G36*
X60962Y52970D02*
X60968Y52909D01*
X60977Y52852D01*
X60990Y52797D01*
X61008Y52744D01*
X61029Y52695D01*
X61053Y52648D01*
X61082Y52604D01*
X61114Y52562D01*
X61151Y52523D01*
X60262D01*
X60298Y52562D01*
X60330Y52604D01*
X60359Y52648D01*
X60383Y52695D01*
X60404Y52744D01*
X60422Y52797D01*
X60435Y52852D01*
X60444Y52909D01*
X60450Y52970D01*
X60452Y53033D01*
X60960D01*
X60962Y52970D01*
D02*
G37*
G36*
X25135Y51935D02*
X25181Y51896D01*
X25229Y51862D01*
X25277Y51833D01*
X25327Y51808D01*
X25376Y51788D01*
X25427Y51772D01*
X25478Y51761D01*
X25531Y51755D01*
X25584Y51753D01*
X24955Y51124D01*
X24953Y51177D01*
X24947Y51230D01*
X24936Y51281D01*
X24920Y51332D01*
X24900Y51381D01*
X24875Y51431D01*
X24846Y51479D01*
X24812Y51527D01*
X24773Y51573D01*
X24729Y51619D01*
X25089Y51979D01*
X25135Y51935D01*
D02*
G37*
G36*
X26082Y51526D02*
X26124Y51494D01*
X26168Y51465D01*
X26215Y51441D01*
X26264Y51420D01*
X26317Y51402D01*
X26372Y51389D01*
X26429Y51380D01*
X26490Y51374D01*
X26553Y51372D01*
Y50864D01*
X26490Y50862D01*
X26429Y50856D01*
X26372Y50847D01*
X26317Y50834D01*
X26264Y50816D01*
X26215Y50795D01*
X26168Y50771D01*
X26124Y50742D01*
X26082Y50710D01*
X26043Y50674D01*
Y51563D01*
X26082Y51526D01*
D02*
G37*
G36*
X42637Y46088D02*
X42599Y46048D01*
X42533Y45970D01*
X42507Y45932D01*
X42485Y45895D01*
X42467Y45860D01*
X42453Y45825D01*
X42443Y45791D01*
X42437Y45757D01*
X42435Y45725D01*
X41915Y46245D01*
X41947Y46247D01*
X41981Y46253D01*
X42015Y46263D01*
X42050Y46277D01*
X42085Y46295D01*
X42122Y46317D01*
X42160Y46343D01*
X42198Y46374D01*
X42278Y46447D01*
X42637Y46088D01*
D02*
G37*
G36*
X35017D02*
X34979Y46048D01*
X34913Y45970D01*
X34887Y45932D01*
X34865Y45895D01*
X34847Y45860D01*
X34833Y45825D01*
X34823Y45791D01*
X34817Y45757D01*
X34815Y45725D01*
X34295Y46245D01*
X34327Y46247D01*
X34361Y46253D01*
X34395Y46263D01*
X34430Y46277D01*
X34465Y46295D01*
X34502Y46317D01*
X34540Y46343D01*
X34578Y46374D01*
X34658Y46447D01*
X35017Y46088D01*
D02*
G37*
G36*
X36825Y45195D02*
X36793Y45193D01*
X36759Y45187D01*
X36725Y45177D01*
X36690Y45163D01*
X36655Y45145D01*
X36618Y45123D01*
X36580Y45097D01*
X36542Y45066D01*
X36462Y44993D01*
X36103Y45352D01*
X36141Y45392D01*
X36207Y45470D01*
X36233Y45508D01*
X36255Y45545D01*
X36273Y45580D01*
X36287Y45615D01*
X36297Y45649D01*
X36303Y45683D01*
X36305Y45715D01*
X36825Y45195D01*
D02*
G37*
G36*
X47336Y45321D02*
X47317Y45293D01*
X47300Y45262D01*
X47285Y45228D01*
X47272Y45190D01*
X47262Y45148D01*
X47254Y45103D01*
X47249Y45054D01*
X47244Y44946D01*
X46736D01*
X46735Y45001D01*
X46726Y45103D01*
X46718Y45148D01*
X46708Y45190D01*
X46695Y45228D01*
X46680Y45262D01*
X46663Y45293D01*
X46644Y45321D01*
X46623Y45345D01*
X47357D01*
X47336Y45321D01*
D02*
G37*
G36*
X44796D02*
X44777Y45293D01*
X44760Y45262D01*
X44745Y45228D01*
X44732Y45190D01*
X44722Y45148D01*
X44714Y45103D01*
X44709Y45054D01*
X44704Y44946D01*
X44196D01*
X44195Y45001D01*
X44186Y45103D01*
X44178Y45148D01*
X44168Y45190D01*
X44155Y45228D01*
X44140Y45262D01*
X44123Y45293D01*
X44104Y45321D01*
X44083Y45345D01*
X44818D01*
X44796Y45321D01*
D02*
G37*
G36*
X50345Y45267D02*
X50392Y45228D01*
X50439Y45194D01*
X50487Y45165D01*
X50537Y45140D01*
X50586Y45120D01*
X50637Y45104D01*
X50688Y45093D01*
X50741Y45087D01*
X50794Y45085D01*
X50165Y44456D01*
X50163Y44509D01*
X50157Y44562D01*
X50146Y44613D01*
X50130Y44664D01*
X50110Y44713D01*
X50085Y44763D01*
X50056Y44811D01*
X50022Y44858D01*
X49983Y44905D01*
X49939Y44951D01*
X50299Y45311D01*
X50345Y45267D01*
D02*
G37*
G36*
X32242Y44858D02*
X32284Y44826D01*
X32328Y44797D01*
X32375Y44773D01*
X32424Y44752D01*
X32477Y44734D01*
X32532Y44721D01*
X32589Y44712D01*
X32650Y44706D01*
X32713Y44704D01*
Y44196D01*
X32650Y44194D01*
X32589Y44188D01*
X32532Y44179D01*
X32477Y44166D01*
X32424Y44148D01*
X32375Y44127D01*
X32328Y44103D01*
X32284Y44074D01*
X32242Y44042D01*
X32203Y44006D01*
Y44895D01*
X32242Y44858D01*
D02*
G37*
G36*
X50345Y42727D02*
X50392Y42688D01*
X50439Y42654D01*
X50487Y42625D01*
X50537Y42600D01*
X50586Y42580D01*
X50637Y42564D01*
X50688Y42553D01*
X50741Y42547D01*
X50794Y42545D01*
X50165Y41916D01*
X50163Y41969D01*
X50157Y42022D01*
X50146Y42073D01*
X50130Y42124D01*
X50110Y42173D01*
X50085Y42223D01*
X50056Y42271D01*
X50022Y42319D01*
X49983Y42365D01*
X49939Y42411D01*
X50299Y42771D01*
X50345Y42727D01*
D02*
G37*
G36*
X50345Y40187D02*
X50392Y40148D01*
X50439Y40114D01*
X50487Y40085D01*
X50537Y40060D01*
X50586Y40040D01*
X50637Y40024D01*
X50688Y40013D01*
X50741Y40007D01*
X50794Y40005D01*
X50165Y39376D01*
X50163Y39429D01*
X50157Y39482D01*
X50146Y39533D01*
X50130Y39584D01*
X50110Y39633D01*
X50085Y39683D01*
X50056Y39731D01*
X50022Y39778D01*
X49983Y39825D01*
X49939Y39871D01*
X50299Y40231D01*
X50345Y40187D01*
D02*
G37*
G36*
Y37647D02*
X50392Y37608D01*
X50439Y37574D01*
X50487Y37545D01*
X50537Y37520D01*
X50586Y37500D01*
X50637Y37484D01*
X50688Y37473D01*
X50741Y37467D01*
X50794Y37465D01*
X50165Y36836D01*
X50163Y36889D01*
X50157Y36942D01*
X50146Y36993D01*
X50130Y37044D01*
X50110Y37093D01*
X50085Y37143D01*
X50056Y37191D01*
X50022Y37238D01*
X49983Y37285D01*
X49939Y37331D01*
X50299Y37691D01*
X50345Y37647D01*
D02*
G37*
D76*
X60706Y52070D02*
Y54869D01*
X49535Y66040D02*
X60706Y54869D01*
X34613Y51118D02*
X49535Y66040D01*
X22949Y53759D02*
X25590Y51118D01*
X22949Y53759D02*
Y64808D01*
X21717Y66040D02*
X22949Y64808D01*
X25590Y51118D02*
X34613D01*
X31750Y44450D02*
X35560D01*
X36830Y45720D01*
X47562Y52896D02*
X47625Y52832D01*
X47498Y55118D02*
X47562Y55055D01*
Y52896D02*
Y55055D01*
X43180Y46990D02*
X47182D01*
X49530Y44642D01*
Y43180D02*
Y44642D01*
X36322Y47752D02*
X47498D01*
X50800Y44450D01*
Y41910D02*
Y41910D01*
X49530Y43180D02*
X50800Y41910D01*
X46990Y43180D02*
Y45720D01*
Y43180D02*
X50800Y39370D01*
X44450Y43180D02*
Y45720D01*
Y43180D02*
X50800Y36830D01*
X34290Y45720D02*
X36322Y47752D01*
X41910Y45720D02*
X43180Y46990D01*
D82*
X34290Y35560D02*
D03*
D83*
X36830D02*
D03*
X39370D02*
D03*
X41910D02*
D03*
X44450D02*
D03*
X46990D02*
D03*
Y45720D02*
D03*
X44450D02*
D03*
X41910D02*
D03*
X39370D02*
D03*
X36830D02*
D03*
X34290D02*
D03*
D84*
X27940Y30480D02*
D03*
X58420D02*
D03*
X73660D02*
D03*
X68580Y48260D02*
D03*
X12700D02*
D03*
X63500Y63500D02*
D03*
Y58420D02*
D03*
X76200Y30480D02*
D03*
X17780D02*
D03*
X22860D02*
D03*
X12700D02*
D03*
X66040D02*
D03*
D85*
X73660Y19620D02*
D03*
Y25400D02*
D03*
D86*
X73160Y26830D02*
D03*
Y18190D02*
D03*
D87*
X77340Y26830D02*
D03*
Y18190D02*
D03*
D88*
X20320Y60960D02*
D03*
D89*
Y58420D02*
D03*
Y55880D02*
D03*
Y53340D02*
D03*
X30480Y66040D02*
D03*
X27940D02*
D03*
X25400D02*
D03*
D90*
X33020D02*
D03*
D91*
X40640Y5080D02*
D03*
Y25080D02*
D03*
D92*
X10000Y70000D02*
D03*
Y10000D02*
D03*
X70000D02*
D03*
Y70000D02*
D03*
D93*
X74600Y74600D02*
D03*
X77100Y69600D02*
D03*
X74600Y64600D02*
D03*
X77100Y59600D02*
D03*
X74600Y54600D02*
D03*
Y24600D02*
D03*
Y14600D02*
D03*
X77100Y9600D02*
D03*
X74600Y4600D02*
D03*
X69600Y74600D02*
D03*
Y64600D02*
D03*
X72100Y59600D02*
D03*
X69600Y54600D02*
D03*
X72100Y49600D02*
D03*
X69600Y4600D02*
D03*
X64600Y74600D02*
D03*
X67100Y59600D02*
D03*
X64600Y54600D02*
D03*
X67100Y49600D02*
D03*
X64600Y44600D02*
D03*
Y24600D02*
D03*
Y14600D02*
D03*
Y4600D02*
D03*
X59600Y74600D02*
D03*
X62100Y49600D02*
D03*
X59600Y44600D02*
D03*
Y34600D02*
D03*
X62100Y19600D02*
D03*
X59600Y14600D02*
D03*
X62100Y9600D02*
D03*
X59600Y4600D02*
D03*
X54600Y74600D02*
D03*
Y44600D02*
D03*
X57100Y39600D02*
D03*
X54600Y24600D02*
D03*
Y14600D02*
D03*
X57100Y9600D02*
D03*
X54600Y4600D02*
D03*
X49600Y74600D02*
D03*
Y24600D02*
D03*
X52100Y9600D02*
D03*
X49600Y4600D02*
D03*
X44600Y74600D02*
D03*
Y24600D02*
D03*
X47100Y19600D02*
D03*
X44600Y14600D02*
D03*
X47100Y9600D02*
D03*
X44600Y4600D02*
D03*
X39600Y74600D02*
D03*
X42100Y69600D02*
D03*
Y49600D02*
D03*
Y19600D02*
D03*
X39600Y14600D02*
D03*
X34600Y74600D02*
D03*
Y64600D02*
D03*
X37100Y59600D02*
D03*
X34600Y54600D02*
D03*
Y24600D02*
D03*
X37100Y19600D02*
D03*
X34600Y14600D02*
D03*
Y4600D02*
D03*
X29600Y74600D02*
D03*
X32100Y29600D02*
D03*
X29600Y24600D02*
D03*
X32100Y19600D02*
D03*
X29600Y14600D02*
D03*
Y4600D02*
D03*
X24600Y74600D02*
D03*
X27100Y19600D02*
D03*
X24600Y4600D02*
D03*
X19600Y74600D02*
D03*
Y44600D02*
D03*
Y4600D02*
D03*
X14600Y74600D02*
D03*
X17100Y69600D02*
D03*
X14600Y64600D02*
D03*
X17100Y59600D02*
D03*
X14600Y54600D02*
D03*
X17100Y49600D02*
D03*
Y39600D02*
D03*
X14600Y34600D02*
D03*
Y24600D02*
D03*
Y4600D02*
D03*
X9600Y74600D02*
D03*
Y64600D02*
D03*
Y54600D02*
D03*
Y34600D02*
D03*
Y14600D02*
D03*
Y4600D02*
D03*
X4600Y74600D02*
D03*
Y64600D02*
D03*
X7100Y59600D02*
D03*
X4600Y54600D02*
D03*
X7100Y49600D02*
D03*
X4600Y34600D02*
D03*
Y24600D02*
D03*
X7100Y19600D02*
D03*
X4600Y14600D02*
D03*
Y4600D02*
D03*
X56363Y63602D02*
D03*
X41173Y62078D02*
D03*
X22225Y19279D02*
D03*
X60960Y27940D02*
D03*
X71628Y38608D02*
D03*
X9373Y38557D02*
D03*
X22860Y51054D02*
D03*
X60960Y66802D02*
D03*
X21717Y66040D02*
D03*
X25590Y51118D02*
D03*
X60706Y52070D02*
D03*
X49535Y66040D02*
D03*
X31750Y44450D02*
D03*
X50800D02*
D03*
X47498Y55118D02*
D03*
X50800Y41910D02*
D03*
X47625Y52832D02*
D03*
X50800Y39370D02*
D03*
Y36830D02*
D03*
M02*
