G04*
G04 #@! TF.GenerationSoftware,Altium Limited,Altium Designer,25.3.3 (18)*
G04*
G04 Layer_Color=8388736*
%FSLAX43Y43*%
%MOMM*%
G71*
G04*
G04 #@! TF.SameCoordinates,3DA135E0-A4FD-4886-9DC2-4B5DFDF801B2*
G04*
G04*
G04 #@! TF.FilePolarity,Negative*
G04*
G01*
G75*
G04:AMPARAMS|DCode=10|XSize=1.604mm|YSize=3.262mm|CornerRadius=0.473mm|HoleSize=0mm|Usage=FLASHONLY|Rotation=180.000|XOffset=0mm|YOffset=0mm|HoleType=Round|Shape=RoundedRectangle|*
%AMROUNDEDRECTD10*
21,1,1.604,2.316,0,0,180.0*
21,1,0.658,3.262,0,0,180.0*
1,1,0.947,-0.329,1.158*
1,1,0.947,0.329,1.158*
1,1,0.947,0.329,-1.158*
1,1,0.947,-0.329,-1.158*
%
%ADD10ROUNDEDRECTD10*%
G04:AMPARAMS|DCode=11|XSize=1.604mm|YSize=0.952mm|CornerRadius=0.476mm|HoleSize=0mm|Usage=FLASHONLY|Rotation=180.000|XOffset=0mm|YOffset=0mm|HoleType=Round|Shape=RoundedRectangle|*
%AMROUNDEDRECTD11*
21,1,1.604,0.000,0,0,180.0*
21,1,0.652,0.952,0,0,180.0*
1,1,0.952,-0.326,0.000*
1,1,0.952,0.326,0.000*
1,1,0.952,0.326,0.000*
1,1,0.952,-0.326,0.000*
%
%ADD11ROUNDEDRECTD11*%
%ADD12R,1.604X0.952*%
%ADD15R,1.050X0.200*%
%ADD16R,1.050X0.500*%
%ADD31O,0.803X2.503*%
G04:AMPARAMS|DCode=32|XSize=1.903mm|YSize=0.813mm|CornerRadius=0.178mm|HoleSize=0mm|Usage=FLASHONLY|Rotation=0.000|XOffset=0mm|YOffset=0mm|HoleType=Round|Shape=RoundedRectangle|*
%AMROUNDEDRECTD32*
21,1,1.903,0.458,0,0,0.0*
21,1,1.548,0.813,0,0,0.0*
1,1,0.356,0.774,-0.229*
1,1,0.356,-0.774,-0.229*
1,1,0.356,-0.774,0.229*
1,1,0.356,0.774,0.229*
%
%ADD32ROUNDEDRECTD32*%
%ADD33R,1.703X0.653*%
%ADD34R,1.363X2.023*%
%ADD35R,1.321X1.956*%
%ADD36R,1.403X2.023*%
G04:AMPARAMS|DCode=37|XSize=2.023mm|YSize=1.353mm|CornerRadius=0.412mm|HoleSize=0mm|Usage=FLASHONLY|Rotation=270.000|XOffset=0mm|YOffset=0mm|HoleType=Round|Shape=RoundedRectangle|*
%AMROUNDEDRECTD37*
21,1,2.023,0.529,0,0,270.0*
21,1,1.199,1.353,0,0,270.0*
1,1,0.824,-0.265,-0.600*
1,1,0.824,-0.265,0.600*
1,1,0.824,0.265,0.600*
1,1,0.824,0.265,-0.600*
%
%ADD37ROUNDEDRECTD37*%
%ADD38R,1.956X1.321*%
%ADD39R,2.023X1.363*%
G04:AMPARAMS|DCode=40|XSize=1.173mm|YSize=1.933mm|CornerRadius=0.174mm|HoleSize=0mm|Usage=FLASHONLY|Rotation=0.000|XOffset=0mm|YOffset=0mm|HoleType=Round|Shape=RoundedRectangle|*
%AMROUNDEDRECTD40*
21,1,1.173,1.585,0,0,0.0*
21,1,0.825,1.933,0,0,0.0*
1,1,0.349,0.412,-0.792*
1,1,0.349,-0.412,-0.792*
1,1,0.349,-0.412,0.792*
1,1,0.349,0.412,0.792*
%
%ADD40ROUNDEDRECTD40*%
%ADD41R,1.603X2.303*%
%ADD42R,2.023X1.403*%
%ADD43R,1.913X1.583*%
%ADD44R,1.213X1.933*%
%ADD45R,1.803X2.003*%
%ADD46R,0.933X1.413*%
%ADD47R,1.253X1.253*%
%ADD48C,1.253*%
%ADD49C,1.443*%
%ADD50C,0.550*%
%ADD51O,2.303X1.203*%
%ADD52O,2.003X1.203*%
%ADD53R,1.573X1.573*%
%ADD54C,1.573*%
%ADD55R,1.573X1.573*%
%ADD56C,2.303*%
%ADD57C,6.203*%
D10*
X60105Y22860D02*
D03*
D11*
X66895Y25150D02*
D03*
Y22860D02*
D03*
D12*
Y20570D02*
D03*
D15*
X72585Y20760D02*
D03*
Y21260D02*
D03*
Y21760D02*
D03*
Y24260D02*
D03*
Y23760D02*
D03*
Y23260D02*
D03*
Y22260D02*
D03*
Y22760D02*
D03*
D16*
Y24910D02*
D03*
Y20110D02*
D03*
Y25710D02*
D03*
Y19310D02*
D03*
D31*
X27305Y22330D02*
D03*
X26035D02*
D03*
X24765D02*
D03*
X23495D02*
D03*
X22225D02*
D03*
X20955D02*
D03*
X19685D02*
D03*
X18415D02*
D03*
X27305Y13230D02*
D03*
X26035D02*
D03*
X24765D02*
D03*
X23495D02*
D03*
X22225D02*
D03*
X20955D02*
D03*
X19685D02*
D03*
X18415D02*
D03*
D32*
X54290Y62865D02*
D03*
Y61595D02*
D03*
Y60325D02*
D03*
Y59055D02*
D03*
Y57785D02*
D03*
Y56515D02*
D03*
Y55245D02*
D03*
Y53975D02*
D03*
Y52705D02*
D03*
Y51435D02*
D03*
X44770D02*
D03*
Y52705D02*
D03*
Y53975D02*
D03*
Y55245D02*
D03*
Y56515D02*
D03*
Y57785D02*
D03*
Y59055D02*
D03*
Y60325D02*
D03*
Y61595D02*
D03*
Y62865D02*
D03*
D33*
X30840Y61345D02*
D03*
Y60695D02*
D03*
Y60045D02*
D03*
Y59395D02*
D03*
Y58745D02*
D03*
Y58095D02*
D03*
Y57445D02*
D03*
Y56795D02*
D03*
Y56145D02*
D03*
Y55495D02*
D03*
X25040D02*
D03*
Y56145D02*
D03*
Y56795D02*
D03*
Y57445D02*
D03*
Y58095D02*
D03*
Y58745D02*
D03*
Y59395D02*
D03*
Y60045D02*
D03*
Y60695D02*
D03*
Y61345D02*
D03*
D34*
X31066Y63246D02*
D03*
X28116D02*
D03*
X51865Y66040D02*
D03*
X54815D02*
D03*
D35*
X25857Y63246D02*
D03*
X22911D02*
D03*
X12903Y26670D02*
D03*
X9957D02*
D03*
X14173Y36830D02*
D03*
X11227D02*
D03*
X70053D02*
D03*
X67107D02*
D03*
X20117Y26670D02*
D03*
X23063D02*
D03*
X17983D02*
D03*
X15037D02*
D03*
D36*
X22670Y53340D02*
D03*
X25590D02*
D03*
X11240Y40640D02*
D03*
X14160D02*
D03*
X67120D02*
D03*
X70040D02*
D03*
X28130Y26670D02*
D03*
X25210D02*
D03*
D37*
X47205Y66040D02*
D03*
X44235D02*
D03*
D38*
X58420Y64973D02*
D03*
Y62027D02*
D03*
Y55677D02*
D03*
Y58623D02*
D03*
D39*
X60960Y62025D02*
D03*
Y64975D02*
D03*
Y58625D02*
D03*
Y55675D02*
D03*
X12700Y19255D02*
D03*
Y16305D02*
D03*
D40*
X14155Y44450D02*
D03*
X11245D02*
D03*
X70035D02*
D03*
X67125D02*
D03*
X64955Y16510D02*
D03*
X62045D02*
D03*
D41*
X3120Y36620D02*
D03*
Y45720D02*
D03*
X7620Y36620D02*
D03*
Y45720D02*
D03*
X73660Y36620D02*
D03*
Y45720D02*
D03*
X78160Y36620D02*
D03*
Y45720D02*
D03*
D42*
X15240Y16320D02*
D03*
Y19240D02*
D03*
D43*
X57150Y20224D02*
D03*
Y22860D02*
D03*
D44*
X67070Y16510D02*
D03*
X70090D02*
D03*
D45*
X63370Y27940D02*
D03*
X66170D02*
D03*
D46*
X69850Y27080D02*
D03*
Y23720D02*
D03*
D47*
X34290Y35560D02*
D03*
D48*
X36830D02*
D03*
X39370D02*
D03*
X41910D02*
D03*
X44450D02*
D03*
X46990D02*
D03*
Y45720D02*
D03*
X44450D02*
D03*
X41910D02*
D03*
X39370D02*
D03*
X36830D02*
D03*
X34290D02*
D03*
D49*
X27940Y30480D02*
D03*
X58420D02*
D03*
X73660D02*
D03*
X68580Y48260D02*
D03*
X12700D02*
D03*
X63500Y63500D02*
D03*
Y58420D02*
D03*
X76200Y30480D02*
D03*
X17780D02*
D03*
X22860D02*
D03*
X12700D02*
D03*
X66040D02*
D03*
D50*
X73660Y19620D02*
D03*
Y25400D02*
D03*
D51*
X73160Y26830D02*
D03*
Y18190D02*
D03*
D52*
X77340Y26830D02*
D03*
Y18190D02*
D03*
D53*
X20320Y60960D02*
D03*
D54*
Y58420D02*
D03*
Y55880D02*
D03*
Y53340D02*
D03*
X30480Y66040D02*
D03*
X27940D02*
D03*
X25400D02*
D03*
D55*
X33020D02*
D03*
D56*
X40640Y5080D02*
D03*
Y25080D02*
D03*
D57*
X10000Y70000D02*
D03*
Y10000D02*
D03*
X70000D02*
D03*
Y70000D02*
D03*
M02*
