G04*
G04 #@! TF.GenerationSoftware,Altium Limited,Altium Designer,25.3.3 (18)*
G04*
G04 Layer_Color=16711935*
%FSLAX43Y43*%
%MOMM*%
G71*
G04*
G04 #@! TF.SameCoordinates,4CD547AF-F49B-4B8C-B07E-8A93D35C11E7*
G04*
G04*
G04 #@! TF.FilePolarity,Negative*
G04*
G01*
G75*
%ADD47R,1.253X1.253*%
%ADD48C,1.253*%
%ADD49C,1.443*%
%ADD50C,0.550*%
%ADD51O,2.303X1.203*%
%ADD52O,2.003X1.203*%
%ADD53R,1.573X1.573*%
%ADD54C,1.573*%
%ADD55R,1.573X1.573*%
%ADD56C,2.303*%
%ADD57C,6.203*%
D47*
X34290Y35560D02*
D03*
D48*
X36830D02*
D03*
X39370D02*
D03*
X41910D02*
D03*
X44450D02*
D03*
X46990D02*
D03*
Y45720D02*
D03*
X44450D02*
D03*
X41910D02*
D03*
X39370D02*
D03*
X36830D02*
D03*
X34290D02*
D03*
D49*
X27940Y30480D02*
D03*
X58420D02*
D03*
X73660D02*
D03*
X68580Y48260D02*
D03*
X12700D02*
D03*
X63500Y63500D02*
D03*
Y58420D02*
D03*
X76200Y30480D02*
D03*
X17780D02*
D03*
X22860D02*
D03*
X12700D02*
D03*
X66040D02*
D03*
D50*
X73660Y19620D02*
D03*
Y25400D02*
D03*
D51*
X73160Y26830D02*
D03*
Y18190D02*
D03*
D52*
X77340Y26830D02*
D03*
Y18190D02*
D03*
D53*
X20320Y60960D02*
D03*
D54*
Y58420D02*
D03*
Y55880D02*
D03*
Y53340D02*
D03*
X30480Y66040D02*
D03*
X27940D02*
D03*
X25400D02*
D03*
D55*
X33020D02*
D03*
D56*
X40640Y5080D02*
D03*
Y25080D02*
D03*
D57*
X10000Y70000D02*
D03*
Y10000D02*
D03*
X70000D02*
D03*
Y70000D02*
D03*
M02*
