G04*
G04 #@! TF.GenerationSoftware,Altium Limited,Altium Designer,25.3.3 (18)*
G04*
G04 Layer_Color=16711935*
%FSLAX44Y44*%
%MOMM*%
G71*
G04*
G04 #@! TF.SameCoordinates,4553B921-64C7-485E-A772-E3B30A5B98F9*
G04*
G04*
G04 #@! TF.FilePolarity,Negative*
G04*
G01*
G75*
%ADD55C,1.5732*%
%ADD56R,1.5732X1.5732*%
%ADD57C,1.4432*%
%ADD58C,2.3032*%
%ADD59C,1.2532*%
%ADD60R,1.2532X1.2532*%
%ADD61O,2.0032X1.2032*%
%ADD62O,2.3032X1.2032*%
%ADD63C,0.5500*%
%ADD64R,1.5732X1.5732*%
%ADD65C,6.2032*%
D55*
X203200Y533400D02*
D03*
Y558800D02*
D03*
Y584200D02*
D03*
X254000Y660400D02*
D03*
X279400D02*
D03*
X304800D02*
D03*
D56*
X203200Y609600D02*
D03*
D57*
X127000Y482600D02*
D03*
X736600Y304800D02*
D03*
X762000D02*
D03*
X660400D02*
D03*
X228600D02*
D03*
X177800D02*
D03*
X127000D02*
D03*
X584200D02*
D03*
X279400D02*
D03*
X635000Y635000D02*
D03*
Y584200D02*
D03*
X685800Y482600D02*
D03*
D58*
X406400Y250800D02*
D03*
Y50800D02*
D03*
D59*
X342900Y457200D02*
D03*
X368300D02*
D03*
X393700D02*
D03*
X419100D02*
D03*
X444500D02*
D03*
X469900D02*
D03*
Y355600D02*
D03*
X444500D02*
D03*
X419100D02*
D03*
X393700D02*
D03*
X368300D02*
D03*
D60*
X342900D02*
D03*
D61*
X773400Y181900D02*
D03*
Y268300D02*
D03*
D62*
X731600Y181900D02*
D03*
Y268300D02*
D03*
D63*
X736600Y254000D02*
D03*
Y196200D02*
D03*
D64*
X330200Y660400D02*
D03*
D65*
X100000Y700000D02*
D03*
Y100000D02*
D03*
X700000D02*
D03*
Y700000D02*
D03*
M02*
