G04*
G04 #@! TF.GenerationSoftware,Altium Limited,Altium Designer,25.3.3 (18)*
G04*
G04 Layer_Color=8421504*
%FSLAX44Y44*%
%MOMM*%
G71*
G04*
G04 #@! TF.SameCoordinates,4553B921-64C7-485E-A772-E3B30A5B98F9*
G04*
G04*
G04 #@! TF.FilePolarity,Positive*
G04*
G01*
G75*
%ADD18O,0.5000X2.2000*%
%ADD19R,1.3000X2.0000*%
%ADD20R,1.4000X0.3500*%
G04:AMPARAMS|DCode=21|XSize=1.6mm|YSize=0.51mm|CornerRadius=0.0263mm|HoleSize=0mm|Usage=FLASHONLY|Rotation=0.000|XOffset=0mm|YOffset=0mm|HoleType=Round|Shape=RoundedRectangle|*
%AMROUNDEDRECTD21*
21,1,1.6000,0.4575,0,0,0.0*
21,1,1.5475,0.5100,0,0,0.0*
1,1,0.0525,0.7738,-0.2288*
1,1,0.0525,-0.7738,-0.2288*
1,1,0.0525,-0.7738,0.2288*
1,1,0.0525,0.7738,0.2288*
%
%ADD21ROUNDEDRECTD21*%
%ADD22R,0.6300X1.1100*%
%ADD23R,1.0176X1.6526*%
G04:AMPARAMS|DCode=24|XSize=0.87mm|YSize=1.63mm|CornerRadius=0.0228mm|HoleSize=0mm|Usage=FLASHONLY|Rotation=0.000|XOffset=0mm|YOffset=0mm|HoleType=Round|Shape=RoundedRectangle|*
%AMROUNDEDRECTD24*
21,1,0.8700,1.5845,0,0,0.0*
21,1,0.8245,1.6300,0,0,0.0*
1,1,0.0455,0.4123,-0.7923*
1,1,0.0455,-0.4123,-0.7923*
1,1,0.0455,-0.4123,0.7923*
1,1,0.0455,0.4123,0.7923*
%
%ADD24ROUNDEDRECTD24*%
%ADD25R,0.9100X1.6300*%
%ADD26R,1.0500X0.5000*%
%ADD27R,1.0500X0.2000*%
%ADD28R,1.6043X0.9521*%
G04:AMPARAMS|DCode=29|XSize=1.6043mm|YSize=0.9521mm|CornerRadius=0.4761mm|HoleSize=0mm|Usage=FLASHONLY|Rotation=180.000|XOffset=0mm|YOffset=0mm|HoleType=Round|Shape=RoundedRectangle|*
%AMROUNDEDRECTD29*
21,1,1.6043,0.0000,0,0,180.0*
21,1,0.6522,0.9521,0,0,180.0*
1,1,0.9521,-0.3261,0.0000*
1,1,0.9521,0.3261,0.0000*
1,1,0.9521,0.3261,0.0000*
1,1,0.9521,-0.3261,0.0000*
%
%ADD29ROUNDEDRECTD29*%
G04:AMPARAMS|DCode=30|XSize=1.6043mm|YSize=3.2621mm|CornerRadius=0.4733mm|HoleSize=0mm|Usage=FLASHONLY|Rotation=180.000|XOffset=0mm|YOffset=0mm|HoleType=Round|Shape=RoundedRectangle|*
%AMROUNDEDRECTD30*
21,1,1.6043,2.3156,0,0,180.0*
21,1,0.6578,3.2621,0,0,180.0*
1,1,0.9465,-0.3289,1.1578*
1,1,0.9465,0.3289,1.1578*
1,1,0.9465,0.3289,-1.1578*
1,1,0.9465,-0.3289,-1.1578*
%
%ADD30ROUNDEDRECTD30*%
%ADD31R,1.5000X1.7000*%
%ADD32R,1.1000X1.7200*%
%ADD33R,1.6100X1.2800*%
%ADD34R,1.7200X1.0600*%
G04:AMPARAMS|DCode=35|XSize=1.72mm|YSize=1.05mm|CornerRadius=0.2605mm|HoleSize=0mm|Usage=FLASHONLY|Rotation=270.000|XOffset=0mm|YOffset=0mm|HoleType=Round|Shape=RoundedRectangle|*
%AMROUNDEDRECTD35*
21,1,1.7200,0.5290,0,0,270.0*
21,1,1.1990,1.0500,0,0,270.0*
1,1,0.5210,-0.2645,-0.5995*
1,1,0.5210,-0.2645,0.5995*
1,1,0.5210,0.2645,0.5995*
1,1,0.5210,0.2645,-0.5995*
%
%ADD35ROUNDEDRECTD35*%
%ADD36R,1.7200X1.1000*%
%ADD37R,1.6526X1.0176*%
%ADD38R,1.0600X1.7200*%
D18*
X184150Y132300D02*
D03*
X196850D02*
D03*
X209550D02*
D03*
X222250D02*
D03*
X234950D02*
D03*
X247650D02*
D03*
X260350D02*
D03*
X273050D02*
D03*
X184150Y223300D02*
D03*
X196850D02*
D03*
X209550D02*
D03*
X222250D02*
D03*
X234950D02*
D03*
X247650D02*
D03*
X260350D02*
D03*
X273050D02*
D03*
D19*
X76200Y457200D02*
D03*
Y366200D02*
D03*
X31200Y457200D02*
D03*
Y366200D02*
D03*
X781600Y457200D02*
D03*
Y366200D02*
D03*
X736600Y457200D02*
D03*
Y366200D02*
D03*
D20*
X250400Y613450D02*
D03*
Y606950D02*
D03*
Y600450D02*
D03*
Y593950D02*
D03*
Y587450D02*
D03*
Y580950D02*
D03*
Y574450D02*
D03*
Y567950D02*
D03*
Y561450D02*
D03*
Y554950D02*
D03*
X308400D02*
D03*
Y561450D02*
D03*
Y567950D02*
D03*
Y574450D02*
D03*
Y580950D02*
D03*
Y587450D02*
D03*
Y593950D02*
D03*
Y600450D02*
D03*
Y606950D02*
D03*
Y613450D02*
D03*
D21*
X447700Y628650D02*
D03*
Y615950D02*
D03*
Y603250D02*
D03*
Y590550D02*
D03*
Y577850D02*
D03*
Y565150D02*
D03*
Y552450D02*
D03*
Y539750D02*
D03*
Y527050D02*
D03*
Y514350D02*
D03*
X542900D02*
D03*
Y527050D02*
D03*
Y539750D02*
D03*
Y552450D02*
D03*
Y565150D02*
D03*
Y577850D02*
D03*
Y590550D02*
D03*
Y603250D02*
D03*
Y615950D02*
D03*
Y628650D02*
D03*
D22*
X698500Y237200D02*
D03*
Y270800D02*
D03*
D23*
X112268Y368300D02*
D03*
X141732D02*
D03*
X150368Y266700D02*
D03*
X179832D02*
D03*
X230632D02*
D03*
X201168D02*
D03*
X99568D02*
D03*
X129032D02*
D03*
X229108Y632460D02*
D03*
X258572D02*
D03*
X671068Y368300D02*
D03*
X700532D02*
D03*
D24*
X112450Y444500D02*
D03*
X141550D02*
D03*
X620450Y165100D02*
D03*
X649550D02*
D03*
X671250Y444500D02*
D03*
X700350D02*
D03*
D25*
X700900Y165100D02*
D03*
X670700D02*
D03*
D26*
X725850Y193100D02*
D03*
Y257100D02*
D03*
Y201100D02*
D03*
Y249100D02*
D03*
D27*
Y227600D02*
D03*
Y222600D02*
D03*
Y232600D02*
D03*
Y237600D02*
D03*
Y242600D02*
D03*
Y217600D02*
D03*
Y212600D02*
D03*
Y207600D02*
D03*
D28*
X668950Y205700D02*
D03*
D29*
Y228600D02*
D03*
Y251500D02*
D03*
D30*
X601050Y228600D02*
D03*
D31*
X661700Y279400D02*
D03*
X633700D02*
D03*
D32*
X141600Y406400D02*
D03*
X112400D02*
D03*
X252100Y266700D02*
D03*
X281300D02*
D03*
X255900Y533400D02*
D03*
X226700D02*
D03*
X700400Y406400D02*
D03*
X671200D02*
D03*
D33*
X571500Y228600D02*
D03*
Y202240D02*
D03*
D34*
X609600Y556750D02*
D03*
Y586250D02*
D03*
X127000Y163050D02*
D03*
Y192550D02*
D03*
X609600Y649750D02*
D03*
Y620250D02*
D03*
D35*
X442350Y660400D02*
D03*
X472050D02*
D03*
D36*
X152400Y192400D02*
D03*
Y163200D02*
D03*
D37*
X584200Y620268D02*
D03*
Y649732D02*
D03*
Y586232D02*
D03*
Y556768D02*
D03*
D38*
X281160Y632460D02*
D03*
X310660D02*
D03*
X548150Y660400D02*
D03*
X518650D02*
D03*
M02*
