G04*
G04 #@! TF.GenerationSoftware,Altium Limited,Altium Designer,25.3.3 (18)*
G04*
G04 Layer_Color=65535*
%FSLAX44Y44*%
%MOMM*%
G71*
G04*
G04 #@! TF.SameCoordinates,4553B921-64C7-485E-A772-E3B30A5B98F9*
G04*
G04*
G04 #@! TF.FilePolarity,Positive*
G04*
G01*
G75*
%ADD10C,0.2500*%
%ADD11C,0.6000*%
%ADD12C,0.1270*%
%ADD13C,0.4000*%
%ADD14C,0.0500*%
%ADD15C,0.2000*%
%ADD16C,0.2540*%
%ADD17C,0.1524*%
D10*
X176900Y132300D02*
G03*
X176900Y132300I-1250J0D01*
G01*
X670200Y193600D02*
G03*
X670200Y193600I-1250J0D01*
G01*
D11*
X189100Y157800D02*
G03*
X189100Y157800I-3000J0D01*
G01*
D12*
X71200Y411700D02*
G03*
X71200Y411700I-17500J0D01*
G01*
X776600D02*
G03*
X776600Y411700I-17500J0D01*
G01*
X23700Y381700D02*
X83672Y381703D01*
X23700Y381700D02*
Y441700D01*
X83700D01*
Y381779D02*
Y441700D01*
X457800Y634500D02*
X532800D01*
X457800Y508500D02*
X532800D01*
X707000Y239750D02*
Y268250D01*
X690000Y239750D02*
Y268250D01*
X120500Y452500D02*
X133500D01*
X120500Y436500D02*
X133500D01*
X678950Y157100D02*
X692650D01*
X678950Y173100D02*
X692650D01*
X256400Y336400D02*
X556400D01*
Y476400D01*
X256400D02*
X556400D01*
X256400Y336400D02*
Y476400D01*
X643700Y271400D02*
X651700D01*
X643700Y287400D02*
X651700D01*
X121600Y397400D02*
X132400D01*
X121600Y415400D02*
X132400D01*
X579500Y212320D02*
Y218520D01*
X563500Y212320D02*
Y218520D01*
X600600Y565800D02*
Y577200D01*
X618600Y565800D02*
Y577200D01*
X261300Y275700D02*
X272100D01*
X261300Y257700D02*
X272100D01*
X161400Y172400D02*
Y183200D01*
X143400Y172400D02*
Y183200D01*
X235900Y524400D02*
X246700D01*
X235900Y542400D02*
X246700D01*
X680400Y397400D02*
X691200D01*
X680400Y415400D02*
X691200D01*
X628500Y173100D02*
X641500D01*
X628500Y157100D02*
X641500D01*
X679300Y452500D02*
X692300D01*
X679300Y436500D02*
X692300D01*
X729100Y381700D02*
Y441621D01*
Y381700D02*
X789100D01*
Y441700D01*
X729128Y441697D02*
X789100Y441700D01*
X290210Y641460D02*
X301610D01*
X290210Y623460D02*
X301610D01*
X118000Y172100D02*
Y183500D01*
X136000Y172100D02*
Y183500D01*
X527700Y651400D02*
X539100D01*
X527700Y669400D02*
X539100D01*
X618600Y629300D02*
Y640700D01*
X600600Y629300D02*
Y640700D01*
X273905Y545253D02*
X273059Y546099D01*
X271366D01*
X270520Y545253D01*
Y544406D01*
X271366Y543560D01*
X273059D01*
X273905Y542714D01*
Y541867D01*
X273059Y541021D01*
X271366D01*
X270520Y541867D01*
X275598Y546099D02*
X278983D01*
X277291D01*
Y541021D01*
X280676D02*
Y546099D01*
X282369Y544406D01*
X284062Y546099D01*
Y541021D01*
X285755Y545253D02*
X286601Y546099D01*
X288294D01*
X289140Y545253D01*
Y544406D01*
X288294Y543560D01*
X289140Y542714D01*
Y541867D01*
X288294Y541021D01*
X286601D01*
X285755Y541867D01*
Y542714D01*
X286601Y543560D01*
X285755Y544406D01*
Y545253D01*
X286601Y543560D02*
X288294D01*
X294219Y545253D02*
X293372Y546099D01*
X291679D01*
X290833Y545253D01*
Y544406D01*
X291679Y543560D01*
X293372D01*
X294219Y542714D01*
Y541867D01*
X293372Y541021D01*
X291679D01*
X290833Y541867D01*
X295911Y541021D02*
X297604D01*
X296758D01*
Y546099D01*
X295911Y545253D01*
X300143D02*
X300990Y546099D01*
X302682D01*
X303529Y545253D01*
Y541867D01*
X302682Y541021D01*
X300990D01*
X300143Y541867D01*
Y545253D01*
X305222D02*
X306068Y546099D01*
X307761D01*
X308607Y545253D01*
Y544406D01*
X307761Y543560D01*
X306914D01*
X307761D01*
X308607Y542714D01*
Y541867D01*
X307761Y541021D01*
X306068D01*
X305222Y541867D01*
X313685Y546099D02*
X310300D01*
Y543560D01*
X311993D01*
X310300D01*
Y541021D01*
X315378Y545253D02*
X316225Y546099D01*
X317917D01*
X318764Y545253D01*
Y544406D01*
X317917Y543560D01*
X317071D01*
X317917D01*
X318764Y542714D01*
Y541867D01*
X317917Y541021D01*
X316225D01*
X315378Y541867D01*
X320457Y541021D02*
Y546099D01*
X322996D01*
X323842Y545253D01*
Y543560D01*
X322996Y542714D01*
X320457D01*
X328921Y546099D02*
X327228Y545253D01*
X325535Y543560D01*
Y541867D01*
X326381Y541021D01*
X328074D01*
X328921Y541867D01*
Y542714D01*
X328074Y543560D01*
X325535D01*
X399629Y327659D02*
Y322581D01*
X403014D01*
X408093Y326813D02*
X407246Y327659D01*
X405554D01*
X404707Y326813D01*
Y323427D01*
X405554Y322581D01*
X407246D01*
X408093Y323427D01*
X409786Y327659D02*
Y322581D01*
X412325D01*
X413171Y323427D01*
Y326813D01*
X412325Y327659D01*
X409786D01*
X614677Y180458D02*
X614692Y183844D01*
X616393Y185529D01*
X618078Y183828D01*
X618062Y180443D01*
X618074Y182982D01*
X614688Y182997D01*
X619755Y180435D02*
X619779Y185513D01*
X621464Y183812D01*
X623164Y185497D01*
X623141Y180419D01*
X628238Y184627D02*
X627396Y185478D01*
X625703Y185486D01*
X624853Y184643D01*
X624849Y183797D01*
X625691Y182946D01*
X627384Y182939D01*
X628227Y182088D01*
X628223Y181242D01*
X627373Y180399D01*
X625680Y180407D01*
X624837Y181258D01*
X629912Y180388D02*
X631604Y180380D01*
X630758Y180384D01*
X630782Y185462D01*
X629931Y184620D01*
X634144Y180368D02*
X635836Y180360D01*
X634990Y180364D01*
X635013Y185443D01*
X634163Y184600D01*
X638376Y180349D02*
X640068Y180341D01*
X639222Y180345D01*
X639245Y185423D01*
X638395Y184581D01*
X642631Y185407D02*
X646016Y185392D01*
X646012Y184545D01*
X642611Y181175D01*
X642607Y180329D01*
X647698Y182845D02*
X651083Y182829D01*
X652784Y184514D02*
X653634Y185357D01*
X655327Y185349D01*
X656169Y184499D01*
X656165Y183652D01*
X655315Y182810D01*
X654469Y182814D01*
X655315Y182810D01*
X656157Y181959D01*
X656153Y181113D01*
X655303Y180271D01*
X653610Y180278D01*
X652768Y181129D01*
X657842Y180259D02*
X657846Y181105D01*
X658693Y181101D01*
X658689Y180255D01*
X657842Y180259D01*
X662094Y184471D02*
X662944Y185314D01*
X664637Y185306D01*
X665479Y184456D01*
X665475Y183609D01*
X664625Y182767D01*
X663779Y182771D01*
X664625Y182767D01*
X665468Y181916D01*
X665464Y181070D01*
X664613Y180228D01*
X662921Y180235D01*
X662078Y181086D01*
D13*
X33200Y348200D02*
G03*
X33200Y348200I-2000J0D01*
G01*
X783600Y475200D02*
G03*
X783600Y475200I-2000J0D01*
G01*
D14*
X269636Y610200D02*
G03*
X269636Y610200I-2236J0D01*
G01*
D02*
G03*
X269636Y610200I-2236J0D01*
G01*
X251400Y619200D02*
G03*
X251400Y619200I-1000J0D01*
G01*
D15*
X430200Y628650D02*
G03*
X430200Y628650I-1000J0D01*
G01*
X699500Y284000D02*
G03*
X699500Y284000I-1000J0D01*
G01*
X204200Y628800D02*
G03*
X204200Y628800I-1000J0D01*
G01*
X659800Y165100D02*
G03*
X659800Y165100I-1000J0D01*
G01*
X249900Y355600D02*
G03*
X249900Y355600I-1000J0D01*
G01*
X714400Y192600D02*
G03*
X714400Y192600I-1000J0D01*
G01*
X350400Y660400D02*
G03*
X350400Y660400I-1000J0D01*
G01*
X176100Y147800D02*
X281100D01*
X176100Y207800D02*
X281100D01*
X176100Y147800D02*
Y207800D01*
X281100Y147800D02*
Y207800D01*
X261150Y616700D02*
X297650D01*
Y551700D02*
Y616700D01*
X261150Y551700D02*
X297650D01*
X261150D02*
Y616700D01*
X190500Y520700D02*
Y622300D01*
X215900Y520700D02*
Y622300D01*
X190500Y520700D02*
X215900D01*
X190500Y622300D02*
X215900D01*
X117000Y472600D02*
Y476550D01*
Y488650D02*
Y492600D01*
X137000Y488650D02*
Y492600D01*
Y472600D02*
Y476550D01*
X117000Y472600D02*
X119700D01*
X117000Y492600D02*
X119700D01*
X134300Y472600D02*
X137000D01*
X134300Y492600D02*
X137000D01*
X786600Y180400D02*
X799400D01*
X786600Y269800D02*
X799400D01*
X746900Y180400D02*
X759400D01*
X746900Y269800D02*
X759400D01*
X617475Y196075D02*
X652525D01*
X617475D02*
Y261125D01*
X652525D01*
Y196075D02*
Y261125D01*
X241300Y673100D02*
X342900D01*
X241300Y647700D02*
X342900D01*
X241300D02*
Y673100D01*
X342900Y647700D02*
Y673100D01*
X726600Y294800D02*
Y298750D01*
Y310850D02*
Y314800D01*
X746600Y310850D02*
Y314800D01*
Y294800D02*
Y298750D01*
X726600Y294800D02*
X729300D01*
X726600Y314800D02*
X729300D01*
X743900Y294800D02*
X746600D01*
X743900Y314800D02*
X746600D01*
X752000Y294800D02*
Y298750D01*
Y310850D02*
Y314800D01*
X772000Y310850D02*
Y314800D01*
Y294800D02*
Y298750D01*
X752000Y294800D02*
X754700D01*
X752000Y314800D02*
X754700D01*
X769300Y294800D02*
X772000D01*
X769300Y314800D02*
X772000D01*
X650400Y294800D02*
Y298750D01*
Y310850D02*
Y314800D01*
X670400Y310850D02*
Y314800D01*
Y294800D02*
Y298750D01*
X650400Y294800D02*
X653100D01*
X650400Y314800D02*
X653100D01*
X667700Y294800D02*
X670400D01*
X667700Y314800D02*
X670400D01*
X234650Y294800D02*
X238600D01*
X218600D02*
X222550D01*
X218600Y314800D02*
X222550D01*
X234650D02*
X238600D01*
Y294800D02*
Y297500D01*
X218600Y294800D02*
Y297500D01*
X238600Y312100D02*
Y314800D01*
X218600Y312100D02*
Y314800D01*
X183850Y294800D02*
X187800D01*
X167800D02*
X171750D01*
X167800Y314800D02*
X171750D01*
X183850D02*
X187800D01*
Y294800D02*
Y297500D01*
X167800Y294800D02*
Y297500D01*
X187800Y312100D02*
Y314800D01*
X167800Y312100D02*
Y314800D01*
X117000Y294800D02*
Y298750D01*
Y310850D02*
Y314800D01*
X137000Y310850D02*
Y314800D01*
Y294800D02*
Y298750D01*
X117000Y294800D02*
X119700D01*
X117000Y314800D02*
X119700D01*
X134300Y294800D02*
X137000D01*
X134300Y314800D02*
X137000D01*
X574200Y294800D02*
Y298750D01*
Y310850D02*
Y314800D01*
X594200Y310850D02*
Y314800D01*
Y294800D02*
Y298750D01*
X574200Y294800D02*
X576900D01*
X574200Y314800D02*
X576900D01*
X591500Y294800D02*
X594200D01*
X591500Y314800D02*
X594200D01*
X269400Y294800D02*
Y298750D01*
Y310850D02*
Y314800D01*
X289400Y310850D02*
Y314800D01*
Y294800D02*
Y298750D01*
X269400Y294800D02*
X272100D01*
X269400Y314800D02*
X272100D01*
X286700Y294800D02*
X289400D01*
X286700Y314800D02*
X289400D01*
X625000Y625000D02*
Y628950D01*
Y641050D02*
Y645000D01*
X645000Y641050D02*
Y645000D01*
Y625000D02*
Y628950D01*
X625000Y625000D02*
X627700D01*
X625000Y645000D02*
X627700D01*
X642300Y625000D02*
X645000D01*
X642300Y645000D02*
X645000D01*
X625000Y574200D02*
Y578150D01*
Y590250D02*
Y594200D01*
X645000Y590250D02*
Y594200D01*
Y574200D02*
Y578150D01*
X625000Y574200D02*
X627700D01*
X625000Y594200D02*
X627700D01*
X642300Y574200D02*
X645000D01*
X642300Y594200D02*
X645000D01*
X675800Y472600D02*
Y476550D01*
Y488650D02*
Y492600D01*
X695800Y488650D02*
Y492600D01*
Y472600D02*
Y476550D01*
X675800Y472600D02*
X678500D01*
X675800Y492600D02*
X678500D01*
X693100Y472600D02*
X695800D01*
X693100Y492600D02*
X695800D01*
X209939Y110179D02*
Y103181D01*
X213438D01*
X214604Y104347D01*
Y109013D01*
X213438Y110179D01*
X209939D01*
X221602Y109013D02*
X220436Y110179D01*
X218103D01*
X216937Y109013D01*
Y107846D01*
X218103Y106680D01*
X220436D01*
X221602Y105514D01*
Y104347D01*
X220436Y103181D01*
X218103D01*
X216937Y104347D01*
X223935Y109013D02*
X225101Y110179D01*
X227434D01*
X228600Y109013D01*
Y107846D01*
X227434Y106680D01*
X226267D01*
X227434D01*
X228600Y105514D01*
Y104347D01*
X227434Y103181D01*
X225101D01*
X223935Y104347D01*
X235598Y103181D02*
X230933D01*
X235598Y107846D01*
Y109013D01*
X234431Y110179D01*
X232099D01*
X230933Y109013D01*
X237930D02*
X239097Y110179D01*
X241429D01*
X242596Y109013D01*
Y107846D01*
X241429Y106680D01*
X240263D01*
X241429D01*
X242596Y105514D01*
Y104347D01*
X241429Y103181D01*
X239097D01*
X237930Y104347D01*
X244928Y103181D02*
X247261D01*
X246094D01*
Y110179D01*
X244928Y109013D01*
X476056Y498799D02*
X480721D01*
X478389D01*
Y491801D01*
X483054D02*
Y498799D01*
X485387Y496466D01*
X487719Y498799D01*
Y491801D01*
X490052D02*
X492384D01*
X491218D01*
Y498799D01*
X490052Y497633D01*
X500548Y498799D02*
X498216Y497633D01*
X495883Y495300D01*
Y492967D01*
X497049Y491801D01*
X499382D01*
X500548Y492967D01*
Y494134D01*
X499382Y495300D01*
X495883D01*
X502881Y497633D02*
X504047Y498799D01*
X506380D01*
X507546Y497633D01*
Y496466D01*
X506380Y495300D01*
X505214D01*
X506380D01*
X507546Y494134D01*
Y492967D01*
X506380Y491801D01*
X504047D01*
X502881Y492967D01*
X509879Y498799D02*
X514544D01*
Y497633D01*
X509879Y492967D01*
Y491801D01*
X695335Y223499D02*
Y216501D01*
X698834D01*
X700000Y217667D01*
Y222333D01*
X698834Y223499D01*
X695335D01*
X702333Y216501D02*
X704665D01*
X703499D01*
Y223499D01*
X702333Y222333D01*
X188538Y642809D02*
Y636144D01*
X189871Y634811D01*
X192537D01*
X193870Y636144D01*
Y642809D01*
X196535Y634811D02*
Y640143D01*
X199201Y642809D01*
X201867Y640143D01*
Y634811D01*
Y638810D01*
X196535D01*
X204533Y634811D02*
Y642809D01*
X208532D01*
X209865Y641476D01*
Y638810D01*
X208532Y637477D01*
X204533D01*
X207199D02*
X209865Y634811D01*
X212530Y642809D02*
X217862D01*
X215196D01*
Y634811D01*
X104341Y467549D02*
Y459551D01*
X108339D01*
X109672Y460884D01*
Y462217D01*
X108339Y463550D01*
X104341D01*
X108339D01*
X109672Y464883D01*
Y466216D01*
X108339Y467549D01*
X104341D01*
X112338D02*
Y460884D01*
X113671Y459551D01*
X116337D01*
X117670Y460884D01*
Y467549D01*
X120336D02*
X125667D01*
X123001D01*
Y459551D01*
X128333Y467549D02*
X133665D01*
X130999D01*
Y459551D01*
X140329Y467549D02*
X137663D01*
X136330Y466216D01*
Y460884D01*
X137663Y459551D01*
X140329D01*
X141662Y460884D01*
Y466216D01*
X140329Y467549D01*
X144328Y459551D02*
Y467549D01*
X149659Y459551D01*
Y467549D01*
X152419Y364001D02*
Y370999D01*
X155918D01*
X157084Y369833D01*
Y367500D01*
X155918Y366334D01*
X152419D01*
X154752D02*
X157084Y364001D01*
X159417D02*
X161749D01*
X160583D01*
Y370999D01*
X159417Y369833D01*
X165248Y364001D02*
X167581D01*
X166415D01*
Y370999D01*
X165248Y369833D01*
X151669Y441501D02*
Y448499D01*
X155167D01*
X156334Y447333D01*
Y445000D01*
X155167Y443834D01*
X151669D01*
X154001D02*
X156334Y441501D01*
X158666Y442667D02*
X159833Y441501D01*
X162165D01*
X163331Y442667D01*
Y447333D01*
X162165Y448499D01*
X159833D01*
X158666Y447333D01*
Y446166D01*
X159833Y445000D01*
X163331D01*
X391238Y286813D02*
X390072Y287979D01*
X387739D01*
X386573Y286813D01*
Y282147D01*
X387739Y280981D01*
X390072D01*
X391238Y282147D01*
X393571Y280981D02*
Y287979D01*
X397070D01*
X398236Y286813D01*
Y284480D01*
X397070Y283314D01*
X393571D01*
X395903D02*
X398236Y280981D01*
X405234D02*
X400569D01*
X405234Y285646D01*
Y286813D01*
X404067Y287979D01*
X401735D01*
X400569Y286813D01*
X407566D02*
X408733Y287979D01*
X411065D01*
X412231Y286813D01*
Y282147D01*
X411065Y280981D01*
X408733D01*
X407566Y282147D01*
Y286813D01*
X414564D02*
X415730Y287979D01*
X418063D01*
X419229Y286813D01*
Y285646D01*
X418063Y284480D01*
X416897D01*
X418063D01*
X419229Y283314D01*
Y282147D01*
X418063Y280981D01*
X415730D01*
X414564Y282147D01*
X426227Y280981D02*
X421562D01*
X426227Y285646D01*
Y286813D01*
X425061Y287979D01*
X422728D01*
X421562Y286813D01*
X679968Y151099D02*
Y144101D01*
X683467D01*
X684634Y145267D01*
Y149933D01*
X683467Y151099D01*
X679968D01*
X691631Y144101D02*
X686966D01*
X691631Y148766D01*
Y149933D01*
X690465Y151099D01*
X688133D01*
X686966Y149933D01*
X759020Y225749D02*
Y219917D01*
X760186Y218751D01*
X762518D01*
X763685Y219917D01*
Y225749D01*
X770683Y224583D02*
X769516Y225749D01*
X767184D01*
X766017Y224583D01*
Y223416D01*
X767184Y222250D01*
X769516D01*
X770683Y221084D01*
Y219917D01*
X769516Y218751D01*
X767184D01*
X766017Y219917D01*
X773015Y225749D02*
Y218751D01*
X776514D01*
X777680Y219917D01*
Y221084D01*
X776514Y222250D01*
X773015D01*
X776514D01*
X777680Y223416D01*
Y224583D01*
X776514Y225749D01*
X773015D01*
X630000Y299833D02*
X628834Y300999D01*
X626501D01*
X625335Y299833D01*
Y295167D01*
X626501Y294001D01*
X628834D01*
X630000Y295167D01*
X632333Y294001D02*
X634665D01*
X633499D01*
Y300999D01*
X632333Y299833D01*
X158418Y409833D02*
X157252Y410999D01*
X154919D01*
X153753Y409833D01*
Y405167D01*
X154919Y404001D01*
X157252D01*
X158418Y405167D01*
X160751Y404001D02*
X163083D01*
X161917D01*
Y410999D01*
X160751Y409833D01*
X166582D02*
X167748Y410999D01*
X170081D01*
X171247Y409833D01*
Y408666D01*
X170081Y407500D01*
X168915D01*
X170081D01*
X171247Y406334D01*
Y405167D01*
X170081Y404001D01*
X167748D01*
X166582Y405167D01*
X571334Y247333D02*
X570167Y248499D01*
X567835D01*
X566669Y247333D01*
Y242667D01*
X567835Y241501D01*
X570167D01*
X571334Y242667D01*
X578331Y241501D02*
X573666D01*
X578331Y246166D01*
Y247333D01*
X577165Y248499D01*
X574833D01*
X573666Y247333D01*
X608834Y604833D02*
X607667Y605999D01*
X605335D01*
X604169Y604833D01*
Y600167D01*
X605335Y599001D01*
X607667D01*
X608834Y600167D01*
X611166Y605999D02*
X615831D01*
Y604833D01*
X611166Y600167D01*
Y599001D01*
X453418Y682333D02*
X452252Y683499D01*
X449919D01*
X448753Y682333D01*
Y677667D01*
X449919Y676501D01*
X452252D01*
X453418Y677667D01*
X455751Y676501D02*
X458083D01*
X456917D01*
Y683499D01*
X455751Y682333D01*
X461582D02*
X462748Y683499D01*
X465081D01*
X466247Y682333D01*
Y677667D01*
X465081Y676501D01*
X462748D01*
X461582Y677667D01*
Y682333D01*
X265534Y251533D02*
X264367Y252699D01*
X262035D01*
X260868Y251533D01*
Y246867D01*
X262035Y245701D01*
X264367D01*
X265534Y246867D01*
X267866Y251533D02*
X269033Y252699D01*
X271365D01*
X272532Y251533D01*
Y250366D01*
X271365Y249200D01*
X270199D01*
X271365D01*
X272532Y248034D01*
Y246867D01*
X271365Y245701D01*
X269033D01*
X267866Y246867D01*
X151234Y210133D02*
X150067Y211299D01*
X147735D01*
X146568Y210133D01*
Y205467D01*
X147735Y204301D01*
X150067D01*
X151234Y205467D01*
X157065Y204301D02*
Y211299D01*
X153566Y207800D01*
X158231D01*
X273154Y530653D02*
X271987Y531819D01*
X269655D01*
X268489Y530653D01*
Y525987D01*
X269655Y524821D01*
X271987D01*
X273154Y525987D01*
X275486Y530653D02*
X276653Y531819D01*
X278985D01*
X280152Y530653D01*
Y529486D01*
X278985Y528320D01*
X280152Y527154D01*
Y525987D01*
X278985Y524821D01*
X276653D01*
X275486Y525987D01*
Y527154D01*
X276653Y528320D01*
X275486Y529486D01*
Y530653D01*
X276653Y528320D02*
X278985D01*
X646718Y408733D02*
X645552Y409899D01*
X643219D01*
X642053Y408733D01*
Y404067D01*
X643219Y402901D01*
X645552D01*
X646718Y404067D01*
X649051Y402901D02*
X651383D01*
X650217D01*
Y409899D01*
X649051Y408733D01*
X659547Y402901D02*
X654882D01*
X659547Y407566D01*
Y408733D01*
X658381Y409899D01*
X656048D01*
X654882Y408733D01*
X259845Y702678D02*
X258512Y704011D01*
X255847Y704012D01*
X254513Y702680D01*
X254513Y701347D01*
X255845Y700014D01*
X258511Y700013D01*
X259843Y698679D01*
X259843Y697346D01*
X258510Y696014D01*
X255844Y696015D01*
X254511Y697348D01*
X262511Y704010D02*
X267843Y704008D01*
X265177Y704009D01*
X265174Y696011D01*
X270507Y700008D02*
X275839Y700006D01*
X278506Y704004D02*
X278503Y696006D01*
X283835Y696004D01*
X286500Y696003D02*
X289166Y696003D01*
X287833Y696003D01*
X287835Y701335D01*
X286502Y701335D01*
X293165Y696001D02*
X293167Y701333D01*
X297166Y701331D01*
X298498Y699998D01*
X298497Y695999D01*
X301162Y695998D02*
X301165Y703996D01*
X301163Y698664D02*
X305163Y701328D01*
X301163Y698664D02*
X305161Y695997D01*
X317160Y703990D02*
X317158Y698658D01*
X319823Y695991D01*
X322490Y698656D01*
X322492Y703988D01*
X330486Y695987D02*
X325155Y695989D01*
X330488Y701319D01*
X330489Y702652D01*
X329156Y703985D01*
X326491Y703986D01*
X325157Y702654D01*
X160435Y245701D02*
Y252699D01*
X163934D01*
X165100Y251533D01*
Y249200D01*
X163934Y248034D01*
X160435D01*
X162767D02*
X165100Y245701D01*
X167433D02*
X169765D01*
X168599D01*
Y252699D01*
X167433Y251533D01*
X210068Y245701D02*
Y252699D01*
X213567D01*
X214734Y251533D01*
Y249200D01*
X213567Y248034D01*
X210068D01*
X212401D02*
X214734Y245701D01*
X221731D02*
X217066D01*
X221731Y250366D01*
Y251533D01*
X220565Y252699D01*
X218233D01*
X217066Y251533D01*
X108469Y245701D02*
Y252699D01*
X111967D01*
X113134Y251533D01*
Y249200D01*
X111967Y248034D01*
X108469D01*
X110801D02*
X113134Y245701D01*
X115466Y251533D02*
X116633Y252699D01*
X118965D01*
X120132Y251533D01*
Y250366D01*
X118965Y249200D01*
X117799D01*
X118965D01*
X120132Y248034D01*
Y246867D01*
X118965Y245701D01*
X116633D01*
X115466Y246867D01*
X579169Y664001D02*
Y670999D01*
X582667D01*
X583834Y669833D01*
Y667500D01*
X582667Y666334D01*
X579169D01*
X581501D02*
X583834Y664001D01*
X589665D02*
Y670999D01*
X586166Y667500D01*
X590831D01*
X579169Y599001D02*
Y605999D01*
X582667D01*
X583834Y604833D01*
Y602500D01*
X582667Y601334D01*
X579169D01*
X581501D02*
X583834Y599001D01*
X590831Y605999D02*
X586166D01*
Y602500D01*
X588499Y603666D01*
X589665D01*
X590831Y602500D01*
Y600167D01*
X589665Y599001D01*
X587333D01*
X586166Y600167D01*
X224168Y649001D02*
Y655999D01*
X227667D01*
X228834Y654833D01*
Y652500D01*
X227667Y651334D01*
X224168D01*
X226501D02*
X228834Y649001D01*
X235832Y655999D02*
X233499Y654833D01*
X231166Y652500D01*
Y650167D01*
X232333Y649001D01*
X234665D01*
X235832Y650167D01*
Y651334D01*
X234665Y652500D01*
X231166D01*
X629169Y144101D02*
Y151099D01*
X632667D01*
X633834Y149933D01*
Y147600D01*
X632667Y146434D01*
X629169D01*
X631501D02*
X633834Y144101D01*
X636166Y151099D02*
X640832D01*
Y149933D01*
X636166Y145267D01*
Y144101D01*
X649169Y441501D02*
Y448499D01*
X652667D01*
X653834Y447333D01*
Y445000D01*
X652667Y443834D01*
X649169D01*
X651501D02*
X653834Y441501D01*
X656166Y447333D02*
X657333Y448499D01*
X659665D01*
X660832Y447333D01*
Y446166D01*
X659665Y445000D01*
X660832Y443834D01*
Y442667D01*
X659665Y441501D01*
X657333D01*
X656166Y442667D01*
Y443834D01*
X657333Y445000D01*
X656166Y446166D01*
Y447333D01*
X657333Y445000D02*
X659665D01*
X642053Y364801D02*
Y371799D01*
X645552D01*
X646718Y370633D01*
Y368300D01*
X645552Y367134D01*
X642053D01*
X644385D02*
X646718Y364801D01*
X649051D02*
X651383D01*
X650217D01*
Y371799D01*
X649051Y370633D01*
X654882D02*
X656048Y371799D01*
X658381D01*
X659547Y370633D01*
Y365967D01*
X658381Y364801D01*
X656048D01*
X654882Y365967D01*
Y370633D01*
X725937Y285750D02*
X731268D01*
X728603Y288416D02*
Y283084D01*
X739266Y289749D02*
X733934D01*
Y285750D01*
X736600Y287083D01*
X737933D01*
X739266Y285750D01*
Y283084D01*
X737933Y281751D01*
X735267D01*
X733934Y283084D01*
X741932Y289749D02*
Y284417D01*
X744597Y281751D01*
X747263Y284417D01*
Y289749D01*
X756668Y288416D02*
X755335Y289749D01*
X752670D01*
X751337Y288416D01*
Y283084D01*
X752670Y281751D01*
X755335D01*
X756668Y283084D01*
Y285750D01*
X754003D01*
X759334Y281751D02*
Y289749D01*
X764666Y281751D01*
Y289749D01*
X767332D02*
Y281751D01*
X771330D01*
X772663Y283084D01*
Y288416D01*
X771330Y289749D01*
X767332D01*
X675803Y308799D02*
Y303467D01*
X678469Y300801D01*
X681135Y303467D01*
Y308799D01*
X683801Y300801D02*
X686466D01*
X685134D01*
Y306133D01*
X683801D01*
X690465Y300801D02*
Y306133D01*
X694464D01*
X695797Y304800D01*
Y300801D01*
X223268Y288416D02*
X221936Y289749D01*
X219270D01*
X217937Y288416D01*
Y287083D01*
X219270Y285750D01*
X221936D01*
X223268Y284417D01*
Y283084D01*
X221936Y281751D01*
X219270D01*
X217937Y283084D01*
X225934Y289749D02*
Y281751D01*
X229933D01*
X231266Y283084D01*
Y288416D01*
X229933Y289749D01*
X225934D01*
X233932Y281751D02*
Y287083D01*
X236597Y289749D01*
X239263Y287083D01*
Y281751D01*
Y285750D01*
X233932D01*
X172468Y288416D02*
X171136Y289749D01*
X168470D01*
X167137Y288416D01*
Y287083D01*
X168470Y285750D01*
X171136D01*
X172468Y284417D01*
Y283084D01*
X171136Y281751D01*
X168470D01*
X167137Y283084D01*
X180466Y288416D02*
X179133Y289749D01*
X176467D01*
X175134Y288416D01*
Y283084D01*
X176467Y281751D01*
X179133D01*
X180466Y283084D01*
X183132Y289749D02*
Y281751D01*
X188463D01*
X106340Y288416D02*
X105007Y289749D01*
X102341D01*
X101008Y288416D01*
Y287083D01*
X102341Y285750D01*
X105007D01*
X106340Y284417D01*
Y283084D01*
X105007Y281751D01*
X102341D01*
X101008Y283084D01*
X114337D02*
Y288416D01*
X113005Y289749D01*
X110339D01*
X109006Y288416D01*
Y283084D01*
X110339Y281751D01*
X113005D01*
X111672Y284417D02*
X114337Y281751D01*
X113005D02*
X114337Y283084D01*
X117003Y289749D02*
Y281751D01*
X119669Y284417D01*
X122335Y281751D01*
Y289749D01*
X125001Y281751D02*
X130332Y287083D01*
X132998Y289749D02*
X135664D01*
X134331D01*
Y281751D01*
X132998D01*
X135664D01*
X139663D02*
Y289749D01*
X144994Y281751D01*
Y289749D01*
X147660D02*
X152992D01*
X150326D01*
Y281751D01*
X566206Y285750D02*
X571537D01*
X568872Y288416D02*
Y283084D01*
X574203Y288416D02*
X575536Y289749D01*
X578202D01*
X579535Y288416D01*
Y287083D01*
X578202Y285750D01*
X576869D01*
X578202D01*
X579535Y284417D01*
Y283084D01*
X578202Y281751D01*
X575536D01*
X574203Y283084D01*
X582201Y281751D02*
Y283084D01*
X583534D01*
Y281751D01*
X582201D01*
X588865Y288416D02*
X590198Y289749D01*
X592864D01*
X594197Y288416D01*
Y287083D01*
X592864Y285750D01*
X591531D01*
X592864D01*
X594197Y284417D01*
Y283084D01*
X592864Y281751D01*
X590198D01*
X588865Y283084D01*
X596863Y289749D02*
Y284417D01*
X599528Y281751D01*
X602194Y284417D01*
Y289749D01*
X264738D02*
Y284417D01*
X267404Y281751D01*
X270070Y284417D01*
Y289749D01*
X272736D02*
Y281751D01*
X276734D01*
X278067Y283084D01*
Y284417D01*
X276734Y285750D01*
X272736D01*
X276734D01*
X278067Y287083D01*
Y288416D01*
X276734Y289749D01*
X272736D01*
X280733Y281751D02*
Y287083D01*
X283399Y289749D01*
X286064Y287083D01*
Y281751D01*
Y285750D01*
X280733D01*
X288730Y289749D02*
X294062D01*
X291396D01*
Y281751D01*
X629668Y618616D02*
X628335Y619949D01*
X625670D01*
X624337Y618616D01*
Y613284D01*
X625670Y611951D01*
X628335D01*
X629668Y613284D01*
X632334Y619949D02*
Y611951D01*
X637666D01*
X640332Y619949D02*
Y611951D01*
Y614617D01*
X645663Y619949D01*
X641665Y615950D01*
X645663Y611951D01*
X625003Y569149D02*
Y561151D01*
X629002D01*
X630335Y562484D01*
Y567816D01*
X629002Y569149D01*
X625003D01*
X633001D02*
X635666D01*
X634334D01*
Y561151D01*
X633001D01*
X635666D01*
X643664Y569149D02*
X640998D01*
X639665Y567816D01*
Y562484D01*
X640998Y561151D01*
X643664D01*
X644997Y562484D01*
Y567816D01*
X643664Y569149D01*
X663141Y467549D02*
Y459551D01*
X667139D01*
X668472Y460884D01*
Y462217D01*
X667139Y463550D01*
X663141D01*
X667139D01*
X668472Y464883D01*
Y466216D01*
X667139Y467549D01*
X663141D01*
X671138D02*
Y460884D01*
X672471Y459551D01*
X675137D01*
X676470Y460884D01*
Y467549D01*
X679136D02*
X684467D01*
X681801D01*
Y459551D01*
X687133Y467549D02*
X692465D01*
X689799D01*
Y459551D01*
X699129Y467549D02*
X696463D01*
X695130Y466216D01*
Y460884D01*
X696463Y459551D01*
X699129D01*
X700462Y460884D01*
Y466216D01*
X699129Y467549D01*
X703128Y459551D02*
Y467549D01*
X708459Y459551D01*
Y467549D01*
X327084Y642333D02*
X325918Y643499D01*
X323585D01*
X322419Y642333D01*
Y637667D01*
X323585Y636501D01*
X325918D01*
X327084Y637667D01*
X329417Y636501D02*
X331749D01*
X330583D01*
Y643499D01*
X329417Y642333D01*
X335248Y636501D02*
X337581D01*
X336415D01*
Y643499D01*
X335248Y642333D01*
X125834Y210133D02*
X124667Y211299D01*
X122335D01*
X121168Y210133D01*
Y205467D01*
X122335Y204301D01*
X124667D01*
X125834Y205467D01*
X132831Y211299D02*
X128166D01*
Y207800D01*
X130499Y208966D01*
X131665D01*
X132831Y207800D01*
Y205467D01*
X131665Y204301D01*
X129333D01*
X128166Y205467D01*
X533834Y682333D02*
X532667Y683499D01*
X530335D01*
X529169Y682333D01*
Y677667D01*
X530335Y676501D01*
X532667D01*
X533834Y677667D01*
X536166D02*
X537333Y676501D01*
X539665D01*
X540831Y677667D01*
Y682333D01*
X539665Y683499D01*
X537333D01*
X536166Y682333D01*
Y681166D01*
X537333Y680000D01*
X540831D01*
X608834Y669833D02*
X607667Y670999D01*
X605335D01*
X604169Y669833D01*
Y665167D01*
X605335Y664001D01*
X607667D01*
X608834Y665167D01*
X615831Y670999D02*
X613499Y669833D01*
X611166Y667500D01*
Y665167D01*
X612333Y664001D01*
X614665D01*
X615831Y665167D01*
Y666334D01*
X614665Y667500D01*
X611166D01*
X470215Y376132D02*
X469049Y377298D01*
X466716D01*
X465550Y376132D01*
Y371466D01*
X466716Y370300D01*
X469049D01*
X470215Y371466D01*
Y373799D01*
X467883D01*
X476047Y370300D02*
Y377298D01*
X472548Y373799D01*
X477213D01*
X444815Y376132D02*
X443649Y377298D01*
X441316D01*
X440150Y376132D01*
Y374965D01*
X441316Y373799D01*
X443649D01*
X444815Y372633D01*
Y371466D01*
X443649Y370300D01*
X441316D01*
X440150Y371466D01*
X447148Y377298D02*
X451813D01*
Y376132D01*
X447148Y371466D01*
Y370300D01*
X419415Y376132D02*
X418249Y377298D01*
X415916D01*
X414750Y376132D01*
Y374965D01*
X415916Y373799D01*
X418249D01*
X419415Y372633D01*
Y371466D01*
X418249Y370300D01*
X415916D01*
X414750Y371466D01*
X421748Y376132D02*
X422914Y377298D01*
X425247D01*
X426413Y376132D01*
Y374965D01*
X425247Y373799D01*
X424080D01*
X425247D01*
X426413Y372633D01*
Y371466D01*
X425247Y370300D01*
X422914D01*
X421748Y371466D01*
X394015Y376132D02*
X392849Y377298D01*
X390516D01*
X389350Y376132D01*
Y374965D01*
X390516Y373799D01*
X392849D01*
X394015Y372633D01*
Y371466D01*
X392849Y370300D01*
X390516D01*
X389350Y371466D01*
X396348Y376132D02*
X397514Y377298D01*
X399847D01*
X401013Y376132D01*
Y374965D01*
X399847Y373799D01*
X401013Y372633D01*
Y371466D01*
X399847Y370300D01*
X397514D01*
X396348Y371466D01*
Y372633D01*
X397514Y373799D01*
X396348Y374965D01*
Y376132D01*
X397514Y373799D02*
X399847D01*
X368615Y376132D02*
X367449Y377298D01*
X365116D01*
X363950Y376132D01*
Y374965D01*
X365116Y373799D01*
X367449D01*
X368615Y372633D01*
Y371466D01*
X367449Y370300D01*
X365116D01*
X363950Y371466D01*
X374447Y370300D02*
Y377298D01*
X370948Y373799D01*
X375613D01*
X343215Y376132D02*
X342049Y377298D01*
X339716D01*
X338550Y376132D01*
Y374965D01*
X339716Y373799D01*
X342049D01*
X343215Y372633D01*
Y371466D01*
X342049Y370300D01*
X339716D01*
X338550Y371466D01*
X350213Y377298D02*
X345548D01*
Y373799D01*
X347880Y374965D01*
X349047D01*
X350213Y373799D01*
Y371466D01*
X349047Y370300D01*
X346714D01*
X345548Y371466D01*
X470215Y445981D02*
X469049Y447148D01*
X466716D01*
X465550Y445981D01*
Y444815D01*
X466716Y443649D01*
X469049D01*
X470215Y442483D01*
Y441316D01*
X469049Y440150D01*
X466716D01*
X465550Y441316D01*
X477213Y440150D02*
X472548D01*
X477213Y444815D01*
Y445981D01*
X476047Y447148D01*
X473714D01*
X472548Y445981D01*
X444815D02*
X443649Y447148D01*
X441316D01*
X440150Y445981D01*
Y441316D01*
X441316Y440150D01*
X443649D01*
X444815Y441316D01*
Y443649D01*
X442483D01*
X447148Y445981D02*
X448314Y447148D01*
X450647D01*
X451813Y445981D01*
Y444815D01*
X450647Y443649D01*
X449480D01*
X450647D01*
X451813Y442483D01*
Y441316D01*
X450647Y440150D01*
X448314D01*
X447148Y441316D01*
X419415Y445981D02*
X418249Y447148D01*
X415916D01*
X414750Y445981D01*
Y441316D01*
X415916Y440150D01*
X418249D01*
X419415Y441316D01*
Y443649D01*
X417083D01*
X426413Y440150D02*
X421748D01*
X426413Y444815D01*
Y445981D01*
X425247Y447148D01*
X422914D01*
X421748Y445981D01*
X394015D02*
X392849Y447148D01*
X390516D01*
X389350Y445981D01*
Y444815D01*
X390516Y443649D01*
X392849D01*
X394015Y442483D01*
Y441316D01*
X392849Y440150D01*
X390516D01*
X389350Y441316D01*
X401013Y447148D02*
X398680Y445981D01*
X396348Y443649D01*
Y441316D01*
X397514Y440150D01*
X399847D01*
X401013Y441316D01*
Y442483D01*
X399847Y443649D01*
X396348D01*
X368615Y445981D02*
X367449Y447148D01*
X365116D01*
X363950Y445981D01*
Y444815D01*
X365116Y443649D01*
X367449D01*
X368615Y442483D01*
Y441316D01*
X367449Y440150D01*
X365116D01*
X363950Y441316D01*
X370948Y440150D02*
X373280D01*
X372114D01*
Y447148D01*
X370948Y445981D01*
X343215D02*
X342049Y447148D01*
X339716D01*
X338550Y445981D01*
Y441316D01*
X339716Y440150D01*
X342049D01*
X343215Y441316D01*
Y443649D01*
X340883D01*
X345548Y440150D02*
X347880D01*
X346714D01*
Y447148D01*
X345548Y445981D01*
X173450Y586848D02*
X178115D01*
X175783D01*
Y579850D01*
X180448Y586848D02*
X185113Y579850D01*
Y586848D02*
X180448Y579850D01*
X173450Y554450D02*
Y561448D01*
X176949D01*
X178115Y560281D01*
Y557949D01*
X176949Y556783D01*
X173450D01*
X175783D02*
X178115Y554450D01*
X180448Y561448D02*
X185113Y554450D01*
Y561448D02*
X180448Y554450D01*
X171765Y534882D02*
X170599Y536048D01*
X168266D01*
X167100Y534882D01*
Y530216D01*
X168266Y529050D01*
X170599D01*
X171765Y530216D01*
Y532549D01*
X169433D01*
X174098Y529050D02*
Y536048D01*
X178763Y529050D01*
Y536048D01*
X181096D02*
Y529050D01*
X184594D01*
X185761Y530216D01*
Y534882D01*
X184594Y536048D01*
X181096D01*
X154500Y607999D02*
X159165D01*
X156833Y610331D02*
Y605666D01*
X161498Y610331D02*
X162664Y611498D01*
X164997D01*
X166163Y610331D01*
Y609165D01*
X164997Y607999D01*
X163830D01*
X164997D01*
X166163Y606833D01*
Y605666D01*
X164997Y604500D01*
X162664D01*
X161498Y605666D01*
X168496Y604500D02*
Y605666D01*
X169662D01*
Y604500D01*
X168496D01*
X174327Y610331D02*
X175493Y611498D01*
X177826D01*
X178992Y610331D01*
Y609165D01*
X177826Y607999D01*
X176660D01*
X177826D01*
X178992Y606833D01*
Y605666D01*
X177826Y604500D01*
X175493D01*
X174327Y605666D01*
X181325Y611498D02*
Y606833D01*
X183657Y604500D01*
X185990Y606833D01*
Y611498D01*
X274165Y687831D02*
X272999Y688998D01*
X270666D01*
X269500Y687831D01*
Y683166D01*
X270666Y682000D01*
X272999D01*
X274165Y683166D01*
Y685499D01*
X271833D01*
X276498Y682000D02*
Y688998D01*
X281163Y682000D01*
Y688998D01*
X283496D02*
Y682000D01*
X286994D01*
X288161Y683166D01*
Y687831D01*
X286994Y688998D01*
X283496D01*
X327000Y682000D02*
Y688998D01*
X330499D01*
X331665Y687831D01*
Y685499D01*
X330499Y684333D01*
X327000D01*
X329333D02*
X331665Y682000D01*
X338663Y687831D02*
X337497Y688998D01*
X335164D01*
X333998Y687831D01*
Y686665D01*
X335164Y685499D01*
X337497D01*
X338663Y684333D01*
Y683166D01*
X337497Y682000D01*
X335164D01*
X333998Y683166D01*
X340995Y688998D02*
X345661D01*
X343328D01*
Y682000D01*
X299165Y687831D02*
X297999Y688998D01*
X295666D01*
X294500Y687831D01*
Y686665D01*
X295666Y685499D01*
X297999D01*
X299165Y684333D01*
Y683166D01*
X297999Y682000D01*
X295666D01*
X294500Y683166D01*
X301498Y688998D02*
Y682000D01*
X303830Y684333D01*
X306163Y682000D01*
Y688998D01*
X308496D02*
X310828D01*
X309662D01*
Y682000D01*
X308496D01*
X310828D01*
X314327D02*
Y688998D01*
X318992Y682000D01*
Y688998D01*
X232000Y685499D02*
X236665D01*
X234333Y687831D02*
Y683166D01*
X238998Y687831D02*
X240164Y688998D01*
X242497D01*
X243663Y687831D01*
Y686665D01*
X242497Y685499D01*
X241330D01*
X242497D01*
X243663Y684333D01*
Y683166D01*
X242497Y682000D01*
X240164D01*
X238998Y683166D01*
X245996Y682000D02*
Y683166D01*
X247162D01*
Y682000D01*
X245996D01*
X251827Y687831D02*
X252993Y688998D01*
X255326D01*
X256492Y687831D01*
Y686665D01*
X255326Y685499D01*
X254160D01*
X255326D01*
X256492Y684333D01*
Y683166D01*
X255326Y682000D01*
X252993D01*
X251827Y683166D01*
X258825Y688998D02*
Y684333D01*
X261157Y682000D01*
X263490Y684333D01*
Y688998D01*
D16*
X377457Y236924D02*
G03*
X435343Y236924I28943J-106124D01*
G01*
X396400Y210800D02*
X416400D01*
X406400Y200800D02*
Y220800D01*
X396400Y70800D02*
X416400D01*
X376400Y270800D02*
X436400D01*
X376400Y230800D02*
X436400D01*
X376400D02*
Y270800D01*
X436400Y230800D02*
Y270800D01*
X261617Y782314D02*
X259077Y784853D01*
X253999D01*
X251460Y782314D01*
Y772158D01*
X253999Y769618D01*
X259077D01*
X261617Y772158D01*
X266695Y769618D02*
X271773D01*
X269234D01*
Y784853D01*
X266695D01*
X281930Y769618D02*
X287008D01*
X289548Y772158D01*
Y777236D01*
X287008Y779775D01*
X281930D01*
X279391Y777236D01*
Y772158D01*
X281930Y769618D01*
X304783Y779775D02*
X297165D01*
X294626Y777236D01*
Y772158D01*
X297165Y769618D01*
X304783D01*
X309861D02*
Y784853D01*
Y774697D02*
X317479Y779775D01*
X309861Y774697D02*
X317479Y769618D01*
X340331Y784853D02*
Y769618D01*
X347949D01*
X350488Y772158D01*
Y774697D01*
Y777236D01*
X347949Y779775D01*
X340331D01*
X355566D02*
Y772158D01*
X358106Y769618D01*
X365723D01*
Y767079D01*
X363184Y764540D01*
X360645D01*
X365723Y769618D02*
Y779775D01*
X386036Y784853D02*
Y769618D01*
X393654D01*
X396193Y772158D01*
Y782314D01*
X393654Y784853D01*
X386036D01*
X408889Y769618D02*
X403811D01*
X401272Y772158D01*
Y777236D01*
X403811Y779775D01*
X408889D01*
X411428Y777236D01*
Y774697D01*
X401272D01*
X416507Y769618D02*
Y779775D01*
X424124D01*
X426663Y777236D01*
Y769618D01*
X431742Y779775D02*
Y772158D01*
X434281Y769618D01*
X441898D01*
Y767079D01*
X439359Y764540D01*
X436820D01*
X441898Y769618D02*
Y779775D01*
X446977Y769618D02*
X454594D01*
X457133Y772158D01*
X454594Y774697D01*
X449516D01*
X446977Y777236D01*
X449516Y779775D01*
X457133D01*
X462212Y769618D02*
Y772158D01*
X464751D01*
Y769618D01*
X462212D01*
X490143D02*
Y784853D01*
X497760D01*
X500299Y782314D01*
Y777236D01*
X497760Y774697D01*
X490143D01*
X495221D02*
X500299Y769618D01*
X512995D02*
X507917D01*
X505378Y772158D01*
Y777236D01*
X507917Y779775D01*
X512995D01*
X515535Y777236D01*
Y774697D01*
X505378D01*
X520613Y779775D02*
X525691Y769618D01*
X530770Y779775D01*
X535848Y769618D02*
Y772158D01*
X538387D01*
Y769618D01*
X535848D01*
X548544D02*
X553622D01*
X551083D01*
Y784853D01*
X548544Y782314D01*
X561240Y769618D02*
Y772158D01*
X563779D01*
Y769618D01*
X561240D01*
X573936Y782314D02*
X576475Y784853D01*
X581553D01*
X584092Y782314D01*
Y772158D01*
X581553Y769618D01*
X576475D01*
X573936Y772158D01*
Y782314D01*
D17*
X121158Y359664D02*
X132842D01*
X121158Y376936D02*
X132842D01*
X159258Y258064D02*
X170942D01*
X159258Y275336D02*
X170942D01*
X210058D02*
X221742D01*
X210058Y258064D02*
X221742D01*
X108458D02*
X120142D01*
X108458Y275336D02*
X120142D01*
X592836Y629158D02*
Y640842D01*
X575564Y629158D02*
Y640842D01*
Y565658D02*
Y577342D01*
X592836Y565658D02*
Y577342D01*
X237998Y623824D02*
X249682D01*
X237998Y641096D02*
X249682D01*
X679958Y359664D02*
X691642D01*
X679958Y376936D02*
X691642D01*
M02*
