G04*
G04 #@! TF.GenerationSoftware,Altium Limited,Altium Designer,25.3.3 (18)*
G04*
G04 Layer_Physical_Order=1*
G04 Layer_Color=255*
%FSLAX44Y44*%
%MOMM*%
G71*
G04*
G04 #@! TF.SameCoordinates,4553B921-64C7-485E-A772-E3B30A5B98F9*
G04*
G04*
G04 #@! TF.FilePolarity,Positive*
G04*
G01*
G75*
%ADD16C,0.2540*%
%ADD28R,1.6043X0.9521*%
G04:AMPARAMS|DCode=29|XSize=1.6043mm|YSize=0.9521mm|CornerRadius=0.4761mm|HoleSize=0mm|Usage=FLASHONLY|Rotation=180.000|XOffset=0mm|YOffset=0mm|HoleType=Round|Shape=RoundedRectangle|*
%AMROUNDEDRECTD29*
21,1,1.6043,0.0000,0,0,180.0*
21,1,0.6522,0.9521,0,0,180.0*
1,1,0.9521,-0.3261,0.0000*
1,1,0.9521,0.3261,0.0000*
1,1,0.9521,0.3261,0.0000*
1,1,0.9521,-0.3261,0.0000*
%
%ADD29ROUNDEDRECTD29*%
G04:AMPARAMS|DCode=30|XSize=1.6043mm|YSize=3.2621mm|CornerRadius=0.4733mm|HoleSize=0mm|Usage=FLASHONLY|Rotation=180.000|XOffset=0mm|YOffset=0mm|HoleType=Round|Shape=RoundedRectangle|*
%AMROUNDEDRECTD30*
21,1,1.6043,2.3156,0,0,180.0*
21,1,0.6578,3.2621,0,0,180.0*
1,1,0.9465,-0.3289,1.1578*
1,1,0.9465,0.3289,1.1578*
1,1,0.9465,0.3289,-1.1578*
1,1,0.9465,-0.3289,-1.1578*
%
%ADD30ROUNDEDRECTD30*%
%ADD66O,0.6000X2.3000*%
%ADD67R,1.4000X2.1000*%
%ADD68R,1.5000X0.4500*%
G04:AMPARAMS|DCode=69|XSize=1.7mm|YSize=0.61mm|CornerRadius=0.0763mm|HoleSize=0mm|Usage=FLASHONLY|Rotation=0.000|XOffset=0mm|YOffset=0mm|HoleType=Round|Shape=RoundedRectangle|*
%AMROUNDEDRECTD69*
21,1,1.7000,0.4575,0,0,0.0*
21,1,1.5475,0.6100,0,0,0.0*
1,1,0.1525,0.7738,-0.2288*
1,1,0.1525,-0.7738,-0.2288*
1,1,0.1525,-0.7738,0.2288*
1,1,0.1525,0.7738,0.2288*
%
%ADD69ROUNDEDRECTD69*%
%ADD70R,0.7300X1.2100*%
%ADD71R,1.1176X1.7526*%
G04:AMPARAMS|DCode=72|XSize=0.97mm|YSize=1.73mm|CornerRadius=0.0728mm|HoleSize=0mm|Usage=FLASHONLY|Rotation=0.000|XOffset=0mm|YOffset=0mm|HoleType=Round|Shape=RoundedRectangle|*
%AMROUNDEDRECTD72*
21,1,0.9700,1.5845,0,0,0.0*
21,1,0.8245,1.7300,0,0,0.0*
1,1,0.1455,0.4123,-0.7923*
1,1,0.1455,-0.4123,-0.7923*
1,1,0.1455,-0.4123,0.7923*
1,1,0.1455,0.4123,0.7923*
%
%ADD72ROUNDEDRECTD72*%
%ADD73R,1.0100X1.7300*%
%ADD74R,1.1500X0.6000*%
%ADD75R,1.1500X0.3000*%
%ADD76R,1.6000X1.8000*%
%ADD77R,1.2000X1.8200*%
%ADD78R,1.7100X1.3800*%
%ADD79R,1.8200X1.1600*%
G04:AMPARAMS|DCode=80|XSize=1.82mm|YSize=1.15mm|CornerRadius=0.3105mm|HoleSize=0mm|Usage=FLASHONLY|Rotation=270.000|XOffset=0mm|YOffset=0mm|HoleType=Round|Shape=RoundedRectangle|*
%AMROUNDEDRECTD80*
21,1,1.8200,0.5290,0,0,270.0*
21,1,1.1990,1.1500,0,0,270.0*
1,1,0.6210,-0.2645,-0.5995*
1,1,0.6210,-0.2645,0.5995*
1,1,0.6210,0.2645,0.5995*
1,1,0.6210,0.2645,-0.5995*
%
%ADD80ROUNDEDRECTD80*%
%ADD81R,1.8200X1.2000*%
%ADD82R,1.7526X1.1176*%
%ADD83R,1.1600X1.8200*%
%ADD84C,0.5080*%
%ADD85C,0.3000*%
%ADD86C,0.3420*%
%ADD87C,0.7620*%
%ADD88C,0.3810*%
%ADD89C,1.3700*%
%ADD90R,1.3700X1.3700*%
%ADD91C,1.2400*%
%ADD92C,2.1000*%
%ADD93C,1.0500*%
%ADD94R,1.0500X1.0500*%
%ADD95O,1.8000X1.0000*%
%ADD96O,2.1000X1.0000*%
%ADD97C,0.6500*%
%ADD98R,1.3700X1.3700*%
%ADD99C,6.0000*%
%ADD100C,1.2700*%
G36*
X709503Y796483D02*
X718914Y795087D01*
X728143Y792775D01*
X737101Y789570D01*
X745702Y785502D01*
X753862Y780611D01*
X761504Y774943D01*
X768554Y768554D01*
X774943Y761504D01*
X780611Y753862D01*
X785502Y745702D01*
X789570Y737101D01*
X792775Y728143D01*
X795087Y718914D01*
X796483Y709503D01*
X796940Y700199D01*
X796900Y700000D01*
Y100000D01*
X796940Y99801D01*
X796483Y90497D01*
X795087Y81086D01*
X792775Y71857D01*
X789570Y62899D01*
X785502Y54298D01*
X780611Y46138D01*
X774943Y38496D01*
X768554Y31446D01*
X761504Y25057D01*
X753862Y19389D01*
X745702Y14498D01*
X737101Y10430D01*
X728143Y7225D01*
X718914Y4913D01*
X709503Y3517D01*
X700199Y3060D01*
X700000Y3100D01*
X100000D01*
X99801Y3060D01*
X90497Y3517D01*
X81086Y4913D01*
X71857Y7225D01*
X62899Y10430D01*
X54298Y14498D01*
X46138Y19389D01*
X38496Y25057D01*
X31446Y31446D01*
X25057Y38496D01*
X19389Y46138D01*
X14498Y54298D01*
X10430Y62899D01*
X7225Y71857D01*
X4913Y81086D01*
X3517Y90497D01*
X3060Y99801D01*
X3100Y100000D01*
Y700000D01*
X3060Y700199D01*
X3517Y709503D01*
X4913Y718914D01*
X7225Y728143D01*
X10430Y737101D01*
X14498Y745702D01*
X19389Y753862D01*
X25057Y761504D01*
X31446Y768554D01*
X38496Y774943D01*
X46138Y780611D01*
X54298Y785502D01*
X62899Y789570D01*
X71857Y792775D01*
X81086Y795087D01*
X90497Y796483D01*
X99801Y796940D01*
X100000Y796900D01*
X700000D01*
X700199Y796940D01*
X709503Y796483D01*
D02*
G37*
%LPC*%
G36*
X702561Y732540D02*
X697439D01*
X692380Y731739D01*
X687509Y730156D01*
X682945Y727831D01*
X678802Y724820D01*
X675180Y721199D01*
X672169Y717055D01*
X669844Y712491D01*
X668261Y707620D01*
X667460Y702561D01*
Y697439D01*
X668261Y692380D01*
X669844Y687509D01*
X672169Y682945D01*
X675180Y678802D01*
X678802Y675180D01*
X682945Y672169D01*
X687509Y669844D01*
X692380Y668261D01*
X697439Y667460D01*
X702561D01*
X707620Y668261D01*
X712491Y669844D01*
X717055Y672169D01*
X721199Y675180D01*
X724820Y678802D01*
X727831Y682945D01*
X730156Y687509D01*
X731739Y692380D01*
X732540Y697439D01*
Y702561D01*
X731739Y707620D01*
X730156Y712491D01*
X727831Y717055D01*
X724820Y721199D01*
X721199Y724820D01*
X717055Y727831D01*
X712491Y730156D01*
X707620Y731739D01*
X702561Y732540D01*
D02*
G37*
G36*
X102561D02*
X97439D01*
X92380Y731739D01*
X87509Y730156D01*
X82945Y727831D01*
X78801Y724820D01*
X75180Y721199D01*
X72169Y717055D01*
X69844Y712491D01*
X68261Y707620D01*
X67460Y702561D01*
Y697439D01*
X68261Y692380D01*
X69844Y687509D01*
X72169Y682945D01*
X75180Y678802D01*
X78801Y675180D01*
X82945Y672169D01*
X87509Y669844D01*
X92380Y668261D01*
X97439Y667460D01*
X102561D01*
X107620Y668261D01*
X112491Y669844D01*
X117055Y672169D01*
X121198Y675180D01*
X124820Y678802D01*
X127830Y682945D01*
X130156Y687509D01*
X131739Y692380D01*
X132540Y697439D01*
Y702561D01*
X131739Y707620D01*
X130156Y712491D01*
X127830Y717055D01*
X124820Y721199D01*
X121198Y724820D01*
X117055Y727831D01*
X112491Y730156D01*
X107620Y731739D01*
X102561Y732540D01*
D02*
G37*
G36*
X342392Y702410D02*
X214630D01*
X212648Y702015D01*
X210968Y700892D01*
X123337Y613262D01*
X122215Y611582D01*
X121820Y609600D01*
Y491121D01*
X121817Y491080D01*
X121755Y490693D01*
X121674Y490345D01*
X121575Y490034D01*
X121460Y489757D01*
X121331Y489507D01*
X121187Y489282D01*
X121026Y489073D01*
X120765Y488793D01*
X120656Y488616D01*
X120006Y487966D01*
X118856Y485974D01*
X118260Y483751D01*
Y481449D01*
X118856Y479226D01*
X120006Y477234D01*
X121634Y475606D01*
X123626Y474456D01*
X125849Y473860D01*
X126456D01*
X127404Y473040D01*
X135076Y465368D01*
Y454781D01*
X135072Y454778D01*
X134350Y453697D01*
X134096Y452422D01*
Y436577D01*
X134350Y435303D01*
X135072Y434222D01*
X135101Y434203D01*
Y418040D01*
X133060D01*
Y394760D01*
X150140D01*
Y418040D01*
X148049D01*
Y434253D01*
X148751Y435303D01*
X149004Y436577D01*
Y452422D01*
X148751Y453697D01*
X148028Y454778D01*
X148025Y454781D01*
Y468050D01*
X147532Y470527D01*
X146128Y472628D01*
X136177Y482579D01*
X135878Y482936D01*
X135740Y483123D01*
Y483751D01*
X135144Y485974D01*
X133994Y487966D01*
X133344Y488616D01*
X133235Y488793D01*
X132974Y489073D01*
X132813Y489282D01*
X132669Y489507D01*
X132540Y489757D01*
X132425Y490034D01*
X132326Y490345D01*
X132245Y490693D01*
X132183Y491080D01*
X132179Y491121D01*
Y607455D01*
X216775Y692050D01*
X340247D01*
X359310Y672987D01*
Y629670D01*
X341769Y612129D01*
X322499D01*
X320980Y611827D01*
X319287Y612722D01*
X318440Y613403D01*
Y618240D01*
X320964Y618280D01*
X321540D01*
Y629920D01*
X310660D01*
Y632460D01*
X308120D01*
Y646640D01*
X304290D01*
X303237Y649180D01*
X303582Y649525D01*
X303610Y649548D01*
X303998Y649846D01*
X304393Y650116D01*
X304797Y650360D01*
X305210Y650579D01*
X305634Y650774D01*
X306070Y650944D01*
X306518Y651091D01*
X307050Y651233D01*
X307267Y651340D01*
X308424Y651650D01*
X310566Y652886D01*
X312314Y654634D01*
X313550Y656776D01*
X314190Y659164D01*
Y661636D01*
X313550Y664024D01*
X312314Y666166D01*
X310566Y667914D01*
X308424Y669150D01*
X308274Y669191D01*
X308608Y671730D01*
X311545D01*
X318850Y664426D01*
X319701Y663509D01*
X320310Y662750D01*
X320773Y662087D01*
X320810Y662023D01*
Y651010D01*
X339590D01*
Y669790D01*
X328577D01*
X328513Y669827D01*
X327879Y670270D01*
X326409Y671516D01*
X317353Y680573D01*
X315672Y681695D01*
X313690Y682089D01*
X276860D01*
X276860Y682089D01*
X274878Y681695D01*
X273197Y680573D01*
X273197Y680572D01*
X262602Y669977D01*
X262078Y669193D01*
X260531Y668337D01*
X258911Y668407D01*
X257624Y669150D01*
X255236Y669790D01*
X252764D01*
X250376Y669150D01*
X248234Y667914D01*
X247514Y667193D01*
X247330Y667078D01*
X246951Y666720D01*
X246638Y666468D01*
X246317Y666251D01*
X245984Y666065D01*
X245636Y665907D01*
X245269Y665776D01*
X244878Y665672D01*
X244460Y665595D01*
X244311Y665580D01*
X225965D01*
X225896Y665586D01*
X225502Y665651D01*
X225145Y665738D01*
X224821Y665844D01*
X224527Y665968D01*
X224259Y666110D01*
X224010Y666271D01*
X223777Y666453D01*
X223474Y666737D01*
X223295Y666848D01*
X222629Y667514D01*
X220601Y668684D01*
X218340Y669290D01*
X216000D01*
X213739Y668684D01*
X211711Y667514D01*
X210056Y665859D01*
X208886Y663831D01*
X208280Y661570D01*
Y660628D01*
X208232Y660423D01*
X208218Y660008D01*
X208182Y659714D01*
X208120Y659425D01*
X208030Y659135D01*
X207911Y658839D01*
X207757Y658535D01*
X207565Y658222D01*
X207333Y657897D01*
X207288Y657843D01*
X199538Y650092D01*
X198415Y648412D01*
X198020Y646430D01*
Y620364D01*
X197987Y619985D01*
X197897Y619441D01*
X197794Y619054D01*
X197767Y618990D01*
X193810D01*
Y600210D01*
X208566D01*
X209538Y597863D01*
X206389Y594714D01*
X206272Y594620D01*
X205922Y594378D01*
X205572Y594175D01*
X205220Y594008D01*
X204863Y593874D01*
X204496Y593770D01*
X204115Y593697D01*
X203715Y593653D01*
X203195Y593638D01*
X202983Y593590D01*
X201964D01*
X199576Y592950D01*
X197434Y591714D01*
X195686Y589966D01*
X194450Y587824D01*
X193810Y585436D01*
Y582964D01*
X194450Y580576D01*
X195686Y578434D01*
X197434Y576686D01*
X199576Y575450D01*
X201964Y574810D01*
X204436D01*
X206824Y575450D01*
X208966Y576686D01*
X210714Y578434D01*
X211950Y580576D01*
X212590Y582964D01*
Y583983D01*
X212638Y584195D01*
X212653Y584715D01*
X212697Y585115D01*
X212770Y585496D01*
X212874Y585862D01*
X213008Y586220D01*
X213175Y586572D01*
X213378Y586922D01*
X213620Y587272D01*
X213713Y587389D01*
X227852Y601527D01*
X230571Y601458D01*
X232311Y599440D01*
Y595235D01*
X206389Y569314D01*
X206272Y569220D01*
X205922Y568978D01*
X205572Y568775D01*
X205220Y568608D01*
X204863Y568474D01*
X204496Y568370D01*
X204115Y568297D01*
X203715Y568253D01*
X203195Y568238D01*
X202983Y568190D01*
X201964D01*
X199576Y567550D01*
X197434Y566314D01*
X195686Y564566D01*
X194450Y562424D01*
X193810Y560036D01*
Y557564D01*
X194450Y555176D01*
X195686Y553034D01*
X197434Y551286D01*
X199576Y550050D01*
X201964Y549410D01*
X204436D01*
X206824Y550050D01*
X208966Y551286D01*
X210714Y553034D01*
X211950Y555176D01*
X212590Y557564D01*
Y558583D01*
X212638Y558795D01*
X212653Y559315D01*
X212697Y559715D01*
X212770Y560096D01*
X212874Y560462D01*
X213008Y560820D01*
X213175Y561172D01*
X213378Y561522D01*
X213620Y561872D01*
X213713Y561989D01*
X238013Y586288D01*
X240360Y585316D01*
Y581780D01*
X237820D01*
Y576990D01*
X240359D01*
Y576159D01*
X250400D01*
Y572741D01*
X240359D01*
Y571910D01*
X237820D01*
Y567120D01*
X240360D01*
Y562004D01*
X237820Y560104D01*
X237490Y560169D01*
X235508Y559775D01*
X233827Y558652D01*
X230152Y554977D01*
X220813D01*
X218831Y554582D01*
X217150Y553460D01*
X211467Y547777D01*
X210345Y546096D01*
X210325Y545995D01*
X208100Y544690D01*
X207459Y544610D01*
X205740Y545070D01*
Y533400D01*
Y521730D01*
X207411Y522177D01*
X209951Y520971D01*
Y393805D01*
X130274Y314129D01*
X130220Y314085D01*
X129927Y313882D01*
X129658Y313727D01*
X129413Y313615D01*
X129188Y313538D01*
X128979Y313490D01*
X128778Y313467D01*
X128574Y313465D01*
X128338Y313490D01*
X128151Y313540D01*
X125849D01*
X123626Y312944D01*
X121634Y311794D01*
X120006Y310166D01*
X118856Y308174D01*
X118260Y305951D01*
Y303649D01*
X118856Y301427D01*
X120006Y299433D01*
X121634Y297806D01*
X121846Y297684D01*
X121847Y297683D01*
X122120Y297469D01*
X122258Y297333D01*
X122380Y297183D01*
X122491Y297011D01*
X122593Y296807D01*
X122685Y296562D01*
X122766Y296269D01*
X122829Y295923D01*
X122837Y295850D01*
Y278003D01*
X120904D01*
Y255397D01*
X124361D01*
Y243840D01*
X124755Y241858D01*
X125878Y240177D01*
X160229Y205827D01*
X159256Y203480D01*
X154940D01*
Y194940D01*
X166580D01*
Y196156D01*
X168927Y197128D01*
X204370Y161685D01*
Y151130D01*
X204765Y149148D01*
X205460Y148107D01*
X205665Y145008D01*
Y144867D01*
X205556Y144794D01*
X204583Y143338D01*
X203200Y143131D01*
X201817Y143338D01*
X200844Y144794D01*
X200735Y144867D01*
Y148590D01*
X200621Y149163D01*
X200760Y149860D01*
X200365Y151842D01*
X199242Y153523D01*
X185902Y166863D01*
X184222Y167985D01*
X182240Y168380D01*
X164040D01*
Y171740D01*
X141035D01*
X140760Y171740D01*
X140760Y171740D01*
X138640Y171390D01*
Y171390D01*
X115360D01*
Y168230D01*
X109605D01*
X104747Y173087D01*
Y255397D01*
X107696D01*
Y278003D01*
X91440D01*
Y273807D01*
X88900Y272755D01*
X36380Y325275D01*
Y353160D01*
X40740D01*
Y379240D01*
X36380D01*
Y444160D01*
X40740D01*
Y470240D01*
X21660D01*
Y444160D01*
X26021D01*
Y379240D01*
X21660D01*
Y353160D01*
X26021D01*
Y323130D01*
X26415Y321147D01*
X27538Y319467D01*
X83968Y263037D01*
X85648Y261915D01*
X87630Y261521D01*
X91440D01*
Y255397D01*
X94389D01*
Y170942D01*
X94783Y168960D01*
X95906Y167279D01*
X103797Y159388D01*
X105478Y158265D01*
X107460Y157871D01*
X115360D01*
Y154710D01*
X121820D01*
Y152400D01*
X122215Y150418D01*
X123337Y148737D01*
X169058Y103018D01*
X170738Y101895D01*
X172720Y101501D01*
X447930D01*
X449912Y101895D01*
X451592Y103018D01*
X555523Y206948D01*
X557870Y205976D01*
Y204780D01*
X568960D01*
Y214220D01*
X566114D01*
X565141Y216567D01*
X567735Y219160D01*
X582590D01*
Y223421D01*
X590426D01*
Y217022D01*
X590676Y215124D01*
X591408Y213354D01*
X592574Y211835D01*
X594093Y210669D01*
X595863Y209937D01*
X595870Y209935D01*
Y173650D01*
X596265Y171668D01*
X597387Y169988D01*
X605938Y161438D01*
X605938Y161437D01*
X607618Y160315D01*
X609600Y159921D01*
X609600Y159921D01*
X612996D01*
Y157177D01*
X613249Y155903D01*
X613972Y154822D01*
X615052Y154100D01*
X616327Y153846D01*
X624572D01*
X625847Y154100D01*
X626928Y154822D01*
X627650Y155903D01*
X627904Y157177D01*
Y173022D01*
X627650Y174297D01*
X626928Y175378D01*
X625847Y176100D01*
X624572Y176354D01*
X616327D01*
X615052Y176100D01*
X613972Y175378D01*
X613249Y174297D01*
X612996Y173022D01*
Y172621D01*
X610456Y171569D01*
X606229Y175796D01*
Y209935D01*
X606237Y209937D01*
X608006Y210669D01*
X609526Y211835D01*
X610691Y213354D01*
X611424Y215124D01*
X611674Y217022D01*
Y223421D01*
X660462D01*
X660482Y223393D01*
X662008Y222223D01*
X663783Y221487D01*
X665689Y221236D01*
X672211D01*
X674117Y221487D01*
X675893Y222223D01*
X677418Y223393D01*
X678588Y224918D01*
X679324Y226694D01*
X679575Y228600D01*
X679324Y230506D01*
X678588Y232282D01*
X677418Y233807D01*
X675893Y234977D01*
X674117Y235713D01*
X672211Y235964D01*
X665689D01*
X663783Y235713D01*
X662008Y234977D01*
X660482Y233807D01*
X660462Y233780D01*
X611674D01*
Y240178D01*
X611424Y242076D01*
X610691Y243846D01*
X609526Y245365D01*
X608006Y246531D01*
X606237Y247264D01*
X604339Y247513D01*
X597761D01*
X595863Y247264D01*
X594093Y246531D01*
X592574Y245365D01*
X591408Y243846D01*
X590676Y242076D01*
X590426Y240178D01*
Y233780D01*
X582590D01*
Y238040D01*
X576679D01*
Y251855D01*
X587863Y263037D01*
X588985Y264718D01*
X589380Y266700D01*
Y296278D01*
X589383Y296320D01*
X589445Y296707D01*
X589526Y297055D01*
X589625Y297366D01*
X589740Y297643D01*
X589869Y297893D01*
X590013Y298118D01*
X590174Y298327D01*
X590415Y298585D01*
X590673Y298826D01*
X590882Y298987D01*
X591107Y299131D01*
X591357Y299260D01*
X591634Y299375D01*
X591945Y299474D01*
X592293Y299555D01*
X592680Y299617D01*
X592721Y299620D01*
X601980D01*
X603962Y300015D01*
X605643Y301138D01*
X637145Y332640D01*
X769620D01*
X771602Y333035D01*
X773282Y334157D01*
X785262Y346137D01*
X786385Y347817D01*
X786779Y349800D01*
X786779Y349800D01*
Y353160D01*
X791140D01*
Y379240D01*
X786779D01*
Y444160D01*
X791140D01*
Y470240D01*
X786779D01*
Y501100D01*
X786385Y503083D01*
X785262Y504763D01*
X765663Y524362D01*
X763982Y525485D01*
X762000Y525880D01*
X615855D01*
X615786Y525886D01*
X615392Y525951D01*
X615035Y526038D01*
X614711Y526144D01*
X614417Y526268D01*
X614149Y526410D01*
X613900Y526571D01*
X613667Y526753D01*
X613364Y527037D01*
X613185Y527148D01*
X612519Y527814D01*
X610491Y528984D01*
X608230Y529590D01*
X607288D01*
X607083Y529638D01*
X606668Y529652D01*
X606374Y529688D01*
X606085Y529750D01*
X605794Y529840D01*
X605499Y529959D01*
X605195Y530113D01*
X604882Y530305D01*
X604557Y530537D01*
X604504Y530581D01*
X589380Y545705D01*
Y548640D01*
X595420D01*
Y545870D01*
X607060D01*
Y556750D01*
Y567630D01*
X595420D01*
Y564896D01*
X572897D01*
Y548640D01*
X579021D01*
Y543560D01*
X579415Y541578D01*
X580537Y539897D01*
X597179Y523256D01*
X597223Y523203D01*
X597455Y522879D01*
X597647Y522565D01*
X597801Y522261D01*
X597920Y521965D01*
X598010Y521675D01*
X598072Y521386D01*
X598108Y521092D01*
X598122Y520677D01*
X598170Y520472D01*
Y519530D01*
X598776Y517269D01*
X599946Y515241D01*
X601601Y513586D01*
X603629Y512416D01*
X605890Y511810D01*
X608230D01*
X610491Y512416D01*
X612519Y513586D01*
X613185Y514252D01*
X613364Y514364D01*
X613667Y514647D01*
X613900Y514829D01*
X614149Y514990D01*
X614417Y515132D01*
X614711Y515256D01*
X615035Y515362D01*
X615392Y515449D01*
X615786Y515514D01*
X615855Y515521D01*
X759855D01*
X776420Y498955D01*
Y470240D01*
X772060D01*
Y444160D01*
X776420D01*
Y379240D01*
X772060D01*
Y353160D01*
X774043D01*
X775095Y350620D01*
X767475Y342999D01*
X635000D01*
X635000Y342999D01*
X633018Y342605D01*
X631338Y341483D01*
X599835Y309979D01*
X592721D01*
X592680Y309983D01*
X592293Y310045D01*
X591945Y310126D01*
X591634Y310225D01*
X591357Y310340D01*
X591107Y310469D01*
X590882Y310613D01*
X590673Y310774D01*
X590393Y311035D01*
X590216Y311144D01*
X589566Y311794D01*
X587574Y312944D01*
X585351Y313540D01*
X583049D01*
X580826Y312944D01*
X578834Y311794D01*
X578184Y311144D01*
X578007Y311035D01*
X577727Y310774D01*
X577519Y310613D01*
X577293Y310469D01*
X577043Y310340D01*
X576766Y310225D01*
X576455Y310126D01*
X576107Y310045D01*
X575720Y309983D01*
X575679Y309979D01*
X512361D01*
X511591Y312519D01*
X511662Y312568D01*
X600340Y401245D01*
X662660D01*
Y394760D01*
X679740D01*
Y418040D01*
X676404D01*
Y433451D01*
X676647Y433500D01*
X677728Y434222D01*
X678450Y435303D01*
X678704Y436577D01*
Y452422D01*
X678450Y453697D01*
X677728Y454778D01*
X676647Y455500D01*
X676429Y455544D01*
Y465904D01*
X683437Y472912D01*
X683469Y472939D01*
X683786Y473169D01*
X684089Y473357D01*
X684379Y473507D01*
X684656Y473622D01*
X684924Y473707D01*
X685186Y473765D01*
X685447Y473799D01*
X685829Y473812D01*
X686032Y473860D01*
X686951D01*
X689174Y474456D01*
X691167Y475606D01*
X692794Y477234D01*
X693944Y479226D01*
X694540Y481449D01*
Y483751D01*
X693944Y485974D01*
X692794Y487966D01*
X691167Y489594D01*
X689174Y490744D01*
X686951Y491340D01*
X684649D01*
X682427Y490744D01*
X680434Y489594D01*
X678806Y487966D01*
X677656Y485974D01*
X677060Y483751D01*
Y482832D01*
X677012Y482630D01*
X676999Y482247D01*
X676965Y481986D01*
X676907Y481724D01*
X676822Y481456D01*
X676707Y481180D01*
X676557Y480890D01*
X676369Y480586D01*
X676139Y480269D01*
X676112Y480237D01*
X667587Y471712D01*
X666465Y470032D01*
X666070Y468050D01*
Y455544D01*
X665852Y455500D01*
X664772Y454778D01*
X664049Y453697D01*
X663796Y452422D01*
Y436577D01*
X664049Y435303D01*
X664772Y434222D01*
X665852Y433500D01*
X666046Y433461D01*
Y418040D01*
X662660D01*
Y411604D01*
X598195D01*
X596213Y411210D01*
X594532Y410087D01*
X505855Y321409D01*
X337425D01*
X306169Y352665D01*
Y442624D01*
X308710Y442958D01*
X309216Y441069D01*
X310386Y439041D01*
X312041Y437386D01*
X314069Y436216D01*
X316330Y435610D01*
X318670D01*
X320931Y436216D01*
X322481Y437110D01*
X324094Y436544D01*
X325020Y435856D01*
Y350616D01*
X325415Y348634D01*
X326538Y346953D01*
X335959Y337532D01*
X337640Y336409D01*
X339622Y336015D01*
X353894D01*
X355876Y336409D01*
X357557Y337532D01*
X367172Y347147D01*
X367351Y347289D01*
X367596Y347460D01*
X367805Y347587D01*
X367975Y347674D01*
X368103Y347725D01*
X368184Y347749D01*
X368221Y347755D01*
X368387Y347764D01*
X368566Y347810D01*
X369326D01*
X371307Y348341D01*
X373083Y349366D01*
X374534Y350817D01*
X375559Y352593D01*
X376090Y354574D01*
Y356626D01*
X375559Y358607D01*
X374534Y360383D01*
X373083Y361833D01*
X371307Y362859D01*
X369326Y363390D01*
X367274D01*
X365293Y362859D01*
X363517Y361833D01*
X362066Y360383D01*
X361041Y358607D01*
X360510Y356626D01*
Y355866D01*
X360464Y355687D01*
X360455Y355521D01*
X360449Y355484D01*
X360425Y355403D01*
X360374Y355275D01*
X360287Y355105D01*
X360160Y354895D01*
X360008Y354679D01*
X359777Y354402D01*
X353230Y347855D01*
X350690Y348907D01*
Y355623D01*
X350727Y355687D01*
X351170Y356321D01*
X352416Y357791D01*
X384663Y390037D01*
X385785Y391718D01*
X386180Y393700D01*
Y450112D01*
X388719Y451164D01*
X388917Y450966D01*
X390693Y449941D01*
X392674Y449410D01*
X394726D01*
X396707Y449941D01*
X398483Y450966D01*
X398680Y451164D01*
X401221Y450112D01*
Y370445D01*
X394828Y364053D01*
X394649Y363911D01*
X394404Y363740D01*
X394195Y363613D01*
X394025Y363526D01*
X393897Y363475D01*
X393816Y363451D01*
X393779Y363445D01*
X393613Y363436D01*
X393434Y363390D01*
X392674D01*
X390693Y362859D01*
X388917Y361833D01*
X387467Y360383D01*
X386441Y358607D01*
X385910Y356626D01*
Y354574D01*
X386441Y352593D01*
X387467Y350817D01*
X388917Y349366D01*
X390693Y348341D01*
X392674Y347810D01*
X394726D01*
X396707Y348341D01*
X398483Y349366D01*
X399934Y350817D01*
X400959Y352593D01*
X401490Y354574D01*
Y355334D01*
X401536Y355513D01*
X401545Y355679D01*
X401551Y355716D01*
X401575Y355797D01*
X401626Y355925D01*
X401713Y356095D01*
X401840Y356305D01*
X401992Y356521D01*
X402223Y356798D01*
X410062Y364637D01*
X411185Y366318D01*
X411580Y368300D01*
Y450112D01*
X414119Y451164D01*
X414317Y450966D01*
X416093Y449941D01*
X418074Y449410D01*
X420126D01*
X422107Y449941D01*
X423883Y450966D01*
X424081Y451164D01*
X426620Y450112D01*
Y370445D01*
X420228Y364053D01*
X420049Y363911D01*
X419804Y363740D01*
X419595Y363613D01*
X419425Y363526D01*
X419297Y363475D01*
X419216Y363451D01*
X419179Y363445D01*
X419013Y363436D01*
X418834Y363390D01*
X418074D01*
X416093Y362859D01*
X414317Y361833D01*
X412867Y360383D01*
X411841Y358607D01*
X411310Y356626D01*
Y354574D01*
X411841Y352593D01*
X412867Y350817D01*
X414317Y349366D01*
X416093Y348341D01*
X418074Y347810D01*
X420126D01*
X422107Y348341D01*
X423883Y349366D01*
X425334Y350817D01*
X426359Y352593D01*
X426890Y354574D01*
Y355334D01*
X426936Y355513D01*
X426945Y355679D01*
X426951Y355716D01*
X426975Y355797D01*
X427026Y355925D01*
X427113Y356095D01*
X427240Y356305D01*
X427392Y356521D01*
X427623Y356798D01*
X435462Y364637D01*
X436585Y366318D01*
X436979Y368300D01*
Y450112D01*
X439520Y451164D01*
X439717Y450966D01*
X441493Y449941D01*
X443474Y449410D01*
X445526D01*
X447507Y449941D01*
X449283Y450966D01*
X449481Y451164D01*
X452020Y450112D01*
Y370445D01*
X445628Y364053D01*
X445449Y363911D01*
X445204Y363740D01*
X444995Y363613D01*
X444825Y363526D01*
X444697Y363475D01*
X444616Y363451D01*
X444579Y363445D01*
X444413Y363436D01*
X444234Y363390D01*
X443474D01*
X441493Y362859D01*
X439717Y361833D01*
X438266Y360383D01*
X437241Y358607D01*
X436710Y356626D01*
Y354574D01*
X437241Y352593D01*
X438266Y350817D01*
X439717Y349366D01*
X441493Y348341D01*
X443474Y347810D01*
X445526D01*
X447507Y348341D01*
X449283Y349366D01*
X450733Y350817D01*
X451759Y352593D01*
X452290Y354574D01*
Y355334D01*
X452336Y355513D01*
X452345Y355679D01*
X452351Y355716D01*
X452375Y355797D01*
X452426Y355925D01*
X452513Y356095D01*
X452640Y356305D01*
X452792Y356521D01*
X453023Y356798D01*
X460863Y364637D01*
X461985Y366318D01*
X462379Y368300D01*
Y450112D01*
X464920Y451164D01*
X465117Y450966D01*
X466893Y449941D01*
X468874Y449410D01*
X470926D01*
X472907Y449941D01*
X474683Y450966D01*
X476133Y452417D01*
X477159Y454193D01*
X477690Y456174D01*
Y458226D01*
X477159Y460207D01*
X476133Y461983D01*
X474683Y463433D01*
X472907Y464459D01*
X470926Y464990D01*
X468874D01*
X466893Y464459D01*
X465117Y463433D01*
X464920Y463236D01*
X462379Y464288D01*
Y470295D01*
X488874Y496789D01*
X491221Y495817D01*
Y397648D01*
X491615Y395666D01*
X492738Y393986D01*
X495713Y391010D01*
X495713Y391010D01*
X497394Y389887D01*
X499376Y389493D01*
X500164D01*
X500886Y388241D01*
X502541Y386586D01*
X504569Y385416D01*
X506830Y384810D01*
X509170D01*
X511431Y385416D01*
X513459Y386586D01*
X515114Y388241D01*
X516284Y390269D01*
X516890Y392530D01*
Y394870D01*
X516284Y397131D01*
X515114Y399159D01*
X513459Y400814D01*
X511431Y401984D01*
X509170Y402590D01*
X506830D01*
X504569Y401984D01*
X504119Y401725D01*
X501580Y403191D01*
Y409609D01*
X504119Y411075D01*
X504569Y410816D01*
X506830Y410210D01*
X509170D01*
X511431Y410816D01*
X513459Y411986D01*
X515114Y413641D01*
X516284Y415669D01*
X516890Y417930D01*
Y418872D01*
X516938Y419077D01*
X516952Y419492D01*
X516988Y419786D01*
X517050Y420075D01*
X517140Y420365D01*
X517259Y420661D01*
X517413Y420965D01*
X517605Y421278D01*
X517837Y421603D01*
X517881Y421656D01*
X519524Y423299D01*
X521870Y422327D01*
Y389495D01*
X510556Y378181D01*
X510503Y378137D01*
X510179Y377905D01*
X509865Y377713D01*
X509561Y377559D01*
X509266Y377439D01*
X508975Y377350D01*
X508686Y377288D01*
X508392Y377252D01*
X507977Y377238D01*
X507772Y377190D01*
X506830D01*
X504569Y376584D01*
X502541Y375414D01*
X500886Y373759D01*
X499716Y371731D01*
X499110Y369470D01*
Y367130D01*
X499716Y364869D01*
X500610Y363320D01*
X500044Y361707D01*
X499356Y360779D01*
X476675D01*
X476448Y360806D01*
X476154Y360858D01*
X475916Y360916D01*
X475734Y360975D01*
X475608Y361029D01*
X475533Y361070D01*
X475503Y361091D01*
X475379Y361202D01*
X475220Y361296D01*
X474683Y361833D01*
X472907Y362859D01*
X470926Y363390D01*
X468874D01*
X466893Y362859D01*
X465117Y361833D01*
X463666Y360383D01*
X462641Y358607D01*
X462110Y356626D01*
Y354574D01*
X462641Y352593D01*
X463666Y350817D01*
X465117Y349366D01*
X466893Y348341D01*
X468874Y347810D01*
X470926D01*
X472907Y348341D01*
X474683Y349366D01*
X475220Y349904D01*
X475379Y349998D01*
X475503Y350109D01*
X475533Y350130D01*
X475608Y350171D01*
X475734Y350225D01*
X475916Y350284D01*
X476154Y350342D01*
X476414Y350388D01*
X476774Y350420D01*
X511465D01*
X513447Y350815D01*
X515127Y351937D01*
X575163Y411973D01*
X576285Y413653D01*
X576679Y415635D01*
Y522804D01*
X576285Y524786D01*
X575163Y526467D01*
X570917Y530713D01*
X569236Y531835D01*
X567254Y532229D01*
X553286D01*
X552577Y534683D01*
X552614Y534811D01*
X553019Y535082D01*
X553749Y536174D01*
X554005Y537463D01*
Y542038D01*
X553749Y543326D01*
X553019Y544418D01*
X552614Y544689D01*
X552491Y545113D01*
Y547087D01*
X552614Y547511D01*
X553019Y547782D01*
X553749Y548874D01*
X554005Y550163D01*
Y554738D01*
X553749Y556026D01*
X553019Y557118D01*
X552614Y557389D01*
X552491Y557813D01*
Y559787D01*
X552614Y560211D01*
X553019Y560482D01*
X553749Y561574D01*
X554005Y562863D01*
Y567438D01*
X553749Y568726D01*
X553019Y569818D01*
X552614Y570089D01*
X552491Y570513D01*
Y572487D01*
X552614Y572911D01*
X553019Y573182D01*
X553749Y574274D01*
X554005Y575563D01*
Y580137D01*
X553749Y581426D01*
X553683Y581525D01*
X554557Y584208D01*
X554646Y584306D01*
X555682Y584512D01*
X558540Y581654D01*
X560640Y580250D01*
X563118Y579758D01*
X572897D01*
Y578104D01*
X595503D01*
Y578104D01*
X597960Y577910D01*
Y577910D01*
X597963Y577910D01*
X621240D01*
Y580045D01*
X626048D01*
X626121Y580038D01*
X626465Y579975D01*
X626758Y579894D01*
X627003Y579802D01*
X627206Y579700D01*
X627378Y579590D01*
X627527Y579468D01*
X627662Y579330D01*
X627875Y579057D01*
X627879Y579053D01*
X628006Y578834D01*
X629633Y577206D01*
X631627Y576056D01*
X633849Y575460D01*
X636151D01*
X638373Y576056D01*
X640367Y577206D01*
X641994Y578834D01*
X643144Y580826D01*
X643740Y583049D01*
Y583968D01*
X643788Y584170D01*
X643801Y584553D01*
X643835Y584814D01*
X643893Y585076D01*
X643978Y585344D01*
X644093Y585620D01*
X644243Y585910D01*
X644431Y586214D01*
X644661Y586531D01*
X644688Y586563D01*
X656381Y598256D01*
X657504Y599936D01*
X657898Y601918D01*
Y675702D01*
X657898Y675702D01*
X657504Y677684D01*
X656381Y679364D01*
X656381Y679364D01*
X640186Y695558D01*
X638506Y696681D01*
X636524Y697076D01*
X439637D01*
X437655Y696681D01*
X435975Y695558D01*
X372016Y631600D01*
X369669Y632572D01*
Y675132D01*
X369275Y677114D01*
X368153Y678794D01*
X346054Y700892D01*
X344374Y702015D01*
X342392Y702410D01*
D02*
G37*
G36*
X321540Y646640D02*
X313200D01*
Y635000D01*
X321540D01*
Y646640D01*
D02*
G37*
G36*
X623780Y567630D02*
X612140D01*
Y559290D01*
X623780D01*
Y567630D01*
D02*
G37*
G36*
Y554210D02*
X612140D01*
Y545870D01*
X623780D01*
Y554210D01*
D02*
G37*
G36*
X200660Y545070D02*
X198595Y544517D01*
X195875Y542946D01*
X193654Y540725D01*
X192083Y538005D01*
X191530Y535940D01*
X200660D01*
Y545070D01*
D02*
G37*
G36*
Y530860D02*
X191530D01*
X192083Y528795D01*
X193654Y526075D01*
X195875Y523854D01*
X198595Y522283D01*
X200660Y521730D01*
Y530860D01*
D02*
G37*
G36*
X746140Y470240D02*
X727060D01*
Y459864D01*
X723900D01*
X721422Y459372D01*
X719322Y457968D01*
X712328Y450974D01*
X707804D01*
Y452422D01*
X707551Y453697D01*
X706828Y454778D01*
X705748Y455500D01*
X704473Y455754D01*
X696228D01*
X694953Y455500D01*
X693872Y454778D01*
X693150Y453697D01*
X692896Y452422D01*
Y436577D01*
X693150Y435303D01*
X693872Y434222D01*
X694953Y433500D01*
X696228Y433246D01*
X704473D01*
X705748Y433500D01*
X706828Y434222D01*
X707551Y435303D01*
X707804Y436577D01*
Y438026D01*
X715010D01*
X717488Y438518D01*
X719588Y439922D01*
X724520Y444854D01*
X727060Y444160D01*
Y444160D01*
X730126D01*
Y379240D01*
X727060D01*
Y373724D01*
X708660D01*
Y379603D01*
X692404D01*
Y356997D01*
X708660D01*
Y360776D01*
X727060D01*
Y353160D01*
X746140D01*
Y379240D01*
X743074D01*
Y444160D01*
X746140D01*
Y470240D01*
D02*
G37*
G36*
X85740D02*
X66660D01*
Y444160D01*
X69726D01*
Y379240D01*
X66660D01*
Y353160D01*
X85740D01*
Y360776D01*
X104140D01*
Y356997D01*
X120396D01*
Y379603D01*
X104140D01*
Y373724D01*
X85740D01*
Y379240D01*
X82674D01*
Y444160D01*
X85740D01*
Y448186D01*
X88758D01*
X97022Y439922D01*
X99122Y438518D01*
X101600Y438026D01*
X104996D01*
Y436577D01*
X105249Y435303D01*
X105972Y434222D01*
X107052Y433500D01*
X108327Y433246D01*
X116572D01*
X117847Y433500D01*
X118928Y434222D01*
X119650Y435303D01*
X119904Y436577D01*
Y452422D01*
X119650Y453697D01*
X118928Y454778D01*
X117847Y455500D01*
X116572Y455754D01*
X108327D01*
X107052Y455500D01*
X105972Y454778D01*
X105249Y453697D01*
X105233Y453615D01*
X102546Y452710D01*
X96018Y459238D01*
X93918Y460642D01*
X91440Y461134D01*
X85740D01*
Y470240D01*
D02*
G37*
G36*
X123480Y420580D02*
X114940D01*
Y408940D01*
X123480D01*
Y420580D01*
D02*
G37*
G36*
X711480D02*
X702940D01*
Y408940D01*
X711480D01*
Y420580D01*
D02*
G37*
G36*
X697860D02*
X689320D01*
Y408940D01*
X697860D01*
Y420580D01*
D02*
G37*
G36*
X109860D02*
X101320D01*
Y408940D01*
X109860D01*
Y420580D01*
D02*
G37*
G36*
X711480Y403860D02*
X702940D01*
Y392220D01*
X711480D01*
Y403860D01*
D02*
G37*
G36*
X697860D02*
X689320D01*
Y392220D01*
X697860D01*
Y403860D01*
D02*
G37*
G36*
X123480D02*
X114940D01*
Y392220D01*
X123480D01*
Y403860D01*
D02*
G37*
G36*
X109860D02*
X101320D01*
Y392220D01*
X109860D01*
Y403860D01*
D02*
G37*
G36*
X681736Y382143D02*
X673608D01*
Y370840D01*
X681736D01*
Y382143D01*
D02*
G37*
G36*
X152400D02*
X144272D01*
Y370840D01*
X152400D01*
Y382143D01*
D02*
G37*
G36*
X139192D02*
X131064D01*
Y370840D01*
X139192D01*
Y382143D01*
D02*
G37*
G36*
X668528D02*
X660400D01*
Y370840D01*
X668528D01*
Y382143D01*
D02*
G37*
G36*
X681736Y365760D02*
X673608D01*
Y354457D01*
X681736D01*
Y365760D01*
D02*
G37*
G36*
X668528D02*
X660400D01*
Y354457D01*
X668528D01*
Y365760D01*
D02*
G37*
G36*
X152400D02*
X144272D01*
Y354457D01*
X152400D01*
Y365760D01*
D02*
G37*
G36*
X139192D02*
X131064D01*
Y354457D01*
X139192D01*
Y365760D01*
D02*
G37*
G36*
X764540Y315797D02*
Y307340D01*
X772997D01*
X772511Y309154D01*
X771026Y311726D01*
X768926Y313826D01*
X766354Y315311D01*
X764540Y315797D01*
D02*
G37*
G36*
X759460D02*
X757646Y315311D01*
X755074Y313826D01*
X752974Y311726D01*
X751489Y309154D01*
X751003Y307340D01*
X759460D01*
Y315797D01*
D02*
G37*
G36*
X772997Y302260D02*
X764540D01*
Y293803D01*
X766354Y294289D01*
X768926Y295774D01*
X771026Y297874D01*
X772511Y300446D01*
X772997Y302260D01*
D02*
G37*
G36*
X759460D02*
X751003D01*
X751489Y300446D01*
X752974Y297874D01*
X755074Y295774D01*
X757646Y294289D01*
X759460Y293803D01*
Y302260D01*
D02*
G37*
G36*
X646780Y293480D02*
X636240D01*
Y281940D01*
X646780D01*
Y293480D01*
D02*
G37*
G36*
X631160D02*
X620620D01*
Y281940D01*
X631160D01*
Y293480D01*
D02*
G37*
G36*
X777400Y278467D02*
X775940D01*
Y270840D01*
X787233D01*
X787221Y270931D01*
X786205Y273383D01*
X784589Y275489D01*
X782484Y277104D01*
X780031Y278120D01*
X777400Y278467D01*
D02*
G37*
G36*
X737100D02*
X734140D01*
Y270840D01*
X746933D01*
X746921Y270931D01*
X745905Y273383D01*
X744289Y275489D01*
X742184Y277104D01*
X739732Y278120D01*
X737100Y278467D01*
D02*
G37*
G36*
X770860D02*
X769400D01*
X766769Y278120D01*
X764317Y277104D01*
X762211Y275489D01*
X760595Y273383D01*
X759579Y270931D01*
X759567Y270840D01*
X770860D01*
Y278467D01*
D02*
G37*
G36*
X646780Y276860D02*
X636240D01*
Y265320D01*
X646780D01*
Y276860D01*
D02*
G37*
G36*
X631160D02*
X620620D01*
Y265320D01*
X631160D01*
Y276860D01*
D02*
G37*
G36*
X661551Y313540D02*
X659249D01*
X657027Y312944D01*
X655033Y311794D01*
X653406Y310166D01*
X652256Y308174D01*
X651660Y305951D01*
Y303649D01*
X652256Y301427D01*
X653406Y299433D01*
X654056Y298784D01*
X654165Y298607D01*
X654426Y298327D01*
X654587Y298118D01*
X654731Y297893D01*
X654860Y297643D01*
X654975Y297366D01*
X655074Y297055D01*
X655155Y296707D01*
X655217Y296320D01*
X655220Y296279D01*
Y290940D01*
X651160D01*
Y267860D01*
X656520D01*
Y256691D01*
X656915Y254709D01*
X658037Y253029D01*
X658470Y252596D01*
X658326Y251500D01*
X658577Y249594D01*
X659312Y247818D01*
X660482Y246293D01*
X662008Y245123D01*
X663783Y244387D01*
X665689Y244137D01*
X672211D01*
X674117Y244387D01*
X675893Y245123D01*
X677418Y246293D01*
X678588Y247818D01*
X679324Y249594D01*
X679575Y251500D01*
X679324Y253406D01*
X678588Y255182D01*
X677418Y256707D01*
X675893Y257877D01*
X674117Y258613D01*
X672211Y258864D01*
X666880D01*
Y267860D01*
X672240D01*
Y274221D01*
X674801D01*
X681883Y267138D01*
X681883Y267138D01*
X683564Y266015D01*
X685546Y265621D01*
X692310D01*
Y262210D01*
X704690D01*
Y279390D01*
X692310D01*
Y275980D01*
X687691D01*
X680609Y283062D01*
X678928Y284185D01*
X676946Y284580D01*
X672240D01*
Y290940D01*
X665580D01*
Y296278D01*
X665583Y296320D01*
X665645Y296707D01*
X665726Y297055D01*
X665825Y297366D01*
X665940Y297643D01*
X666069Y297893D01*
X666213Y298118D01*
X666374Y298327D01*
X666635Y298607D01*
X666744Y298784D01*
X667394Y299433D01*
X668544Y301427D01*
X669140Y303649D01*
Y305951D01*
X668544Y308174D01*
X667394Y310166D01*
X665767Y311794D01*
X663773Y312944D01*
X661551Y313540D01*
D02*
G37*
G36*
X787233Y265760D02*
X775940D01*
Y258133D01*
X777400D01*
X780031Y258479D01*
X782484Y259495D01*
X784589Y261111D01*
X786205Y263216D01*
X787221Y265668D01*
X787233Y265760D01*
D02*
G37*
G36*
X770860D02*
X759567D01*
X759579Y265668D01*
X760595Y263216D01*
X762211Y261111D01*
X764317Y259495D01*
X766769Y258479D01*
X769400Y258133D01*
X770860D01*
Y265760D01*
D02*
G37*
G36*
X737751Y313540D02*
X735449D01*
X733226Y312944D01*
X731234Y311794D01*
X729606Y310166D01*
X728456Y308174D01*
X727860Y305951D01*
Y303649D01*
X728456Y301427D01*
X729606Y299433D01*
X730821Y298218D01*
X710078Y277474D01*
X708955Y275794D01*
X708560Y273812D01*
Y242379D01*
X704690D01*
Y245790D01*
X692310D01*
Y228610D01*
X704690D01*
Y232020D01*
X708560D01*
Y202184D01*
X708955Y200202D01*
X710078Y198521D01*
X711758Y197399D01*
X712619Y197227D01*
X713090Y196913D01*
X714824Y196568D01*
X715020D01*
Y195640D01*
X717560D01*
Y195559D01*
X725850D01*
Y190560D01*
X715020D01*
Y185020D01*
X715020D01*
X715246Y184440D01*
X731600D01*
X746933D01*
X746921Y184531D01*
X745905Y186984D01*
X744289Y189089D01*
X742581Y190400D01*
X741508Y192920D01*
X742390Y195048D01*
Y197351D01*
X741508Y199480D01*
X739880Y201108D01*
X737752Y201990D01*
X735448D01*
X734140Y204197D01*
Y208560D01*
Y218560D01*
Y228560D01*
Y238560D01*
Y247336D01*
X735448Y248210D01*
X737752D01*
X739880Y249091D01*
X741508Y250720D01*
X742390Y252848D01*
Y255152D01*
X741508Y257280D01*
X742581Y259800D01*
X744289Y261111D01*
X745905Y263216D01*
X746921Y265668D01*
X746933Y265760D01*
X731600D01*
Y268300D01*
X729060D01*
Y279074D01*
X728260Y281007D01*
X740263Y293009D01*
X741385Y294690D01*
X741779Y296672D01*
Y297698D01*
X741966Y297806D01*
X743594Y299433D01*
X744744Y301427D01*
X745340Y303649D01*
Y305951D01*
X744744Y308174D01*
X743594Y310166D01*
X741966Y311794D01*
X739974Y312944D01*
X737751Y313540D01*
D02*
G37*
G36*
X682052Y215541D02*
X671490D01*
Y208240D01*
X682052D01*
Y215541D01*
D02*
G37*
G36*
X666410D02*
X655849D01*
Y208240D01*
X666410D01*
Y215541D01*
D02*
G37*
G36*
X585130Y214220D02*
X574040D01*
Y204780D01*
X585130D01*
Y214220D01*
D02*
G37*
G36*
X682052Y203160D02*
X671490D01*
Y195859D01*
X682052D01*
Y203160D01*
D02*
G37*
G36*
X666410D02*
X655849D01*
Y195859D01*
X666410D01*
Y203160D01*
D02*
G37*
G36*
X124460Y203430D02*
X112820D01*
Y195090D01*
X124460D01*
Y203430D01*
D02*
G37*
G36*
X585130Y199700D02*
X574040D01*
Y190260D01*
X585130D01*
Y199700D01*
D02*
G37*
G36*
X568960D02*
X557870D01*
Y190260D01*
X568960D01*
Y199700D01*
D02*
G37*
G36*
X777400Y192067D02*
X775940D01*
Y184440D01*
X787233D01*
X787221Y184531D01*
X786205Y186984D01*
X784589Y189089D01*
X782484Y190705D01*
X780031Y191721D01*
X777400Y192067D01*
D02*
G37*
G36*
X770860D02*
X769400D01*
X766769Y191721D01*
X764317Y190705D01*
X762211Y189089D01*
X760595Y186984D01*
X759579Y184531D01*
X759567Y184440D01*
X770860D01*
Y192067D01*
D02*
G37*
G36*
X124460Y190010D02*
X112820D01*
Y181670D01*
X124460D01*
Y190010D01*
D02*
G37*
G36*
X166580Y189860D02*
X154940D01*
Y181320D01*
X166580D01*
Y189860D01*
D02*
G37*
G36*
X149860Y203480D02*
X138220D01*
Y203430D01*
X129540D01*
Y192550D01*
Y181670D01*
X138220D01*
Y181320D01*
X149860D01*
Y192400D01*
Y203480D01*
D02*
G37*
G36*
X787233Y179360D02*
X775940D01*
Y171733D01*
X777400D01*
X780031Y172080D01*
X782484Y173095D01*
X784589Y174711D01*
X786205Y176817D01*
X787221Y179269D01*
X787233Y179360D01*
D02*
G37*
G36*
X770860D02*
X759567D01*
X759579Y179269D01*
X760595Y176817D01*
X762211Y174711D01*
X764317Y173095D01*
X766769Y172080D01*
X769400Y171733D01*
X770860D01*
Y179360D01*
D02*
G37*
G36*
X746933D02*
X734140D01*
Y171733D01*
X737100D01*
X739732Y172080D01*
X742184Y173095D01*
X744289Y174711D01*
X745905Y176817D01*
X746921Y179269D01*
X746933Y179360D01*
D02*
G37*
G36*
X729060D02*
X716268D01*
X716280Y179269D01*
X717295Y176817D01*
X718911Y174711D01*
X721017Y173095D01*
X723469Y172080D01*
X726100Y171733D01*
X729060D01*
Y179360D01*
D02*
G37*
G36*
X711030Y178830D02*
X703440D01*
Y167640D01*
X711030D01*
Y178830D01*
D02*
G37*
G36*
X698360D02*
X690770D01*
Y167640D01*
X698360D01*
Y178830D01*
D02*
G37*
G36*
X653673Y176354D02*
X645428D01*
X644153Y176100D01*
X643072Y175378D01*
X642350Y174297D01*
X642096Y173022D01*
Y157177D01*
X642350Y155903D01*
X643072Y154822D01*
X644153Y154100D01*
X645428Y153846D01*
X653673D01*
X654948Y154100D01*
X656028Y154822D01*
X656751Y155903D01*
X657004Y157177D01*
Y159921D01*
X663110D01*
Y153910D01*
X678290D01*
Y176290D01*
X663110D01*
Y170280D01*
X657004D01*
Y173022D01*
X656751Y174297D01*
X656028Y175378D01*
X654948Y176100D01*
X653673Y176354D01*
D02*
G37*
G36*
X711030Y162560D02*
X703440D01*
Y151370D01*
X711030D01*
Y162560D01*
D02*
G37*
G36*
X698360D02*
X690770D01*
Y151370D01*
X698360D01*
Y162560D01*
D02*
G37*
G36*
X702561Y132540D02*
X697439D01*
X692380Y131739D01*
X687509Y130156D01*
X682945Y127830D01*
X678802Y124820D01*
X675180Y121198D01*
X672169Y117055D01*
X669844Y112491D01*
X668261Y107620D01*
X667460Y102561D01*
Y97439D01*
X668261Y92380D01*
X669844Y87509D01*
X672169Y82945D01*
X675180Y78801D01*
X678802Y75180D01*
X682945Y72169D01*
X687509Y69844D01*
X692380Y68261D01*
X697439Y67460D01*
X702561D01*
X707620Y68261D01*
X712491Y69844D01*
X717055Y72169D01*
X721199Y75180D01*
X724820Y78801D01*
X727831Y82945D01*
X730156Y87509D01*
X731739Y92380D01*
X732540Y97439D01*
Y102561D01*
X731739Y107620D01*
X730156Y112491D01*
X727831Y117055D01*
X724820Y121198D01*
X721199Y124820D01*
X717055Y127830D01*
X712491Y130156D01*
X707620Y131739D01*
X702561Y132540D01*
D02*
G37*
G36*
X102561D02*
X97439D01*
X92380Y131739D01*
X87509Y130156D01*
X82945Y127830D01*
X78801Y124820D01*
X75180Y121198D01*
X72169Y117055D01*
X69844Y112491D01*
X68261Y107620D01*
X67460Y102561D01*
Y97439D01*
X68261Y92380D01*
X69844Y87509D01*
X72169Y82945D01*
X75180Y78801D01*
X78801Y75180D01*
X82945Y72169D01*
X87509Y69844D01*
X92380Y68261D01*
X97439Y67460D01*
X102561D01*
X107620Y68261D01*
X112491Y69844D01*
X117055Y72169D01*
X121198Y75180D01*
X124820Y78801D01*
X127830Y82945D01*
X130156Y87509D01*
X131739Y92380D01*
X132540Y97439D01*
Y102561D01*
X131739Y107620D01*
X130156Y112491D01*
X127830Y117055D01*
X124820Y121198D01*
X121198Y124820D01*
X117055Y127830D01*
X112491Y130156D01*
X107620Y131739D01*
X102561Y132540D01*
D02*
G37*
G36*
X408940Y66180D02*
Y53340D01*
X421780D01*
X421381Y55345D01*
X420207Y58180D01*
X418502Y60732D01*
X416332Y62902D01*
X413780Y64607D01*
X410945Y65781D01*
X408940Y66180D01*
D02*
G37*
G36*
X403860D02*
X401856Y65781D01*
X399020Y64607D01*
X396468Y62902D01*
X394298Y60732D01*
X392593Y58180D01*
X391419Y55345D01*
X391020Y53340D01*
X403860D01*
Y66180D01*
D02*
G37*
G36*
X421780Y48260D02*
X408940D01*
Y35420D01*
X410945Y35819D01*
X413780Y36993D01*
X416332Y38698D01*
X418502Y40868D01*
X420207Y43420D01*
X421381Y46255D01*
X421780Y48260D01*
D02*
G37*
G36*
X403860D02*
X391020D01*
X391419Y46255D01*
X392593Y43420D01*
X394298Y40868D01*
X396468Y38698D01*
X399020Y36993D01*
X401856Y35819D01*
X403860Y35420D01*
Y48260D01*
D02*
G37*
%LPD*%
G36*
X495435Y676750D02*
X492016Y673331D01*
X490893Y671650D01*
X490499Y669668D01*
Y668549D01*
X490478Y668249D01*
X490438Y667966D01*
X490406Y667811D01*
X489892Y667514D01*
X489225Y666848D01*
X489046Y666737D01*
X488743Y666453D01*
X488510Y666271D01*
X488261Y666110D01*
X487993Y665968D01*
X487699Y665844D01*
X487375Y665738D01*
X487018Y665651D01*
X486624Y665586D01*
X486555Y665580D01*
X480450D01*
Y666395D01*
X480012Y668597D01*
X478765Y670465D01*
X476897Y671712D01*
X474695Y672151D01*
X469405D01*
X467202Y671712D01*
X465335Y670465D01*
X464087Y668597D01*
X463649Y666395D01*
Y654405D01*
X464087Y652203D01*
X465335Y650335D01*
X467202Y649088D01*
X469405Y648649D01*
X474695D01*
X476897Y649088D01*
X478765Y650335D01*
X480012Y652203D01*
X480450Y654405D01*
Y655220D01*
X486555D01*
X486624Y655214D01*
X487018Y655149D01*
X487375Y655062D01*
X487699Y654956D01*
X487993Y654832D01*
X488261Y654690D01*
X488510Y654529D01*
X488743Y654347D01*
X489029Y654079D01*
X489297Y653793D01*
X489479Y653560D01*
X489640Y653311D01*
X489782Y653043D01*
X489906Y652749D01*
X490013Y652425D01*
X490099Y652068D01*
X490164Y651674D01*
X490171Y651605D01*
Y612090D01*
X490565Y610108D01*
X491688Y608428D01*
X525928Y574188D01*
X527608Y573065D01*
X528589Y572869D01*
X528339Y570330D01*
X528320D01*
X526338Y569935D01*
X524658Y568812D01*
X504338Y548493D01*
X504119Y548166D01*
X501580Y548937D01*
Y569130D01*
X501185Y571112D01*
X500062Y572793D01*
X465942Y606912D01*
X464262Y608035D01*
X462280Y608429D01*
X458086D01*
X457376Y610883D01*
X457414Y611011D01*
X457818Y611282D01*
X458548Y612374D01*
X458805Y613662D01*
Y618237D01*
X458548Y619526D01*
X458548Y619526D01*
X457850Y620645D01*
X459627Y622135D01*
X459650Y622150D01*
X460941Y624083D01*
X461344Y626110D01*
X434056D01*
X434459Y624083D01*
X434779Y623605D01*
X433610Y620782D01*
X433374Y620735D01*
X431693Y619613D01*
X426867Y614786D01*
X425745Y613106D01*
X425350Y611124D01*
Y592695D01*
X313838Y481183D01*
X312715Y479502D01*
X312320Y477520D01*
Y453295D01*
X312314Y453226D01*
X312249Y452832D01*
X312162Y452475D01*
X312056Y452151D01*
X311932Y451857D01*
X311790Y451589D01*
X311630Y451340D01*
X311447Y451107D01*
X311164Y450804D01*
X311052Y450625D01*
X310386Y449959D01*
X309216Y447931D01*
X308710Y446042D01*
X306169Y446376D01*
Y499505D01*
X326046Y519381D01*
X327169Y521062D01*
X327563Y523044D01*
Y567450D01*
X327169Y569433D01*
X326046Y571113D01*
X326046Y571113D01*
X325807Y571353D01*
X324126Y572475D01*
X322144Y572869D01*
X320948D01*
X319419Y575152D01*
X320158Y576831D01*
X336567D01*
X337564Y576165D01*
X339546Y575770D01*
X341528Y576165D01*
X343209Y577287D01*
X429103Y663182D01*
X429686Y662940D01*
X442350D01*
X453251D01*
Y666395D01*
X452970Y668532D01*
X452145Y670523D01*
X450833Y672233D01*
X449123Y673545D01*
X447132Y674369D01*
X444995Y674651D01*
X443891D01*
X442919Y676997D01*
X445018Y679097D01*
X494463D01*
X495435Y676750D01*
D02*
G37*
G36*
X498227Y668995D02*
X498349Y667326D01*
X498423Y666887D01*
X498513Y666506D01*
X498619Y666184D01*
X498742Y665921D01*
X498881Y665716D01*
X499037Y665570D01*
X492217Y665923D01*
X492392Y666055D01*
X492548Y666240D01*
X492687Y666480D01*
X492807Y666773D01*
X492908Y667121D01*
X492991Y667522D01*
X493055Y667978D01*
X493129Y669051D01*
X493138Y669668D01*
X498218D01*
X498227Y668995D01*
D02*
G37*
G36*
X324425Y669803D02*
X326297Y668216D01*
X327124Y667638D01*
X327878Y667204D01*
X328560Y666914D01*
X329170Y666767D01*
X329707Y666764D01*
X330172Y666905D01*
X330565Y667189D01*
X323411Y660035D01*
X323695Y660428D01*
X323836Y660892D01*
X323833Y661430D01*
X323686Y662040D01*
X323396Y662722D01*
X322962Y663476D01*
X322384Y664304D01*
X321662Y665203D01*
X319788Y667219D01*
X323381Y670812D01*
X324425Y669803D01*
D02*
G37*
G36*
X500272Y664483D02*
X500686Y664159D01*
X501128Y663873D01*
X501596Y663626D01*
X502092Y663416D01*
X502615Y663245D01*
X503166Y663111D01*
X503743Y663016D01*
X504348Y662959D01*
X504980Y662940D01*
Y657860D01*
X504348Y657841D01*
X503743Y657784D01*
X503166Y657689D01*
X502615Y657555D01*
X502092Y657384D01*
X501596Y657174D01*
X501128Y656926D01*
X500686Y656641D01*
X500272Y656317D01*
X499885Y655955D01*
Y664845D01*
X500272Y664483D01*
D02*
G37*
G36*
X490815Y655955D02*
X490428Y656317D01*
X490014Y656641D01*
X489572Y656926D01*
X489104Y657174D01*
X488608Y657384D01*
X488085Y657555D01*
X487534Y657689D01*
X486957Y657784D01*
X486352Y657841D01*
X485720Y657860D01*
Y662940D01*
X486352Y662959D01*
X486957Y663016D01*
X487534Y663111D01*
X488085Y663245D01*
X488608Y663416D01*
X489104Y663626D01*
X489572Y663873D01*
X490014Y664159D01*
X490428Y664483D01*
X490815Y664845D01*
Y655955D01*
D02*
G37*
G36*
X249108Y655605D02*
X248654Y656033D01*
X248178Y656417D01*
X247678Y656755D01*
X247154Y657048D01*
X246608Y657296D01*
X246038Y657499D01*
X245446Y657657D01*
X244830Y657770D01*
X244191Y657837D01*
X243528Y657860D01*
Y662940D01*
X244191Y662963D01*
X244830Y663030D01*
X245446Y663143D01*
X246038Y663301D01*
X246608Y663504D01*
X247154Y663752D01*
X247678Y664045D01*
X248178Y664383D01*
X248654Y664766D01*
X249108Y665195D01*
Y655605D01*
D02*
G37*
G36*
X222092Y664483D02*
X222506Y664159D01*
X222948Y663873D01*
X223416Y663626D01*
X223912Y663416D01*
X224435Y663245D01*
X224986Y663111D01*
X225563Y663016D01*
X226168Y662959D01*
X226800Y662940D01*
Y657860D01*
X226168Y657841D01*
X225563Y657784D01*
X224986Y657689D01*
X224435Y657555D01*
X224214Y657483D01*
X224319Y657274D01*
X224614Y656791D01*
X224955Y656315D01*
X225342Y655847D01*
X225775Y655387D01*
X222183Y651795D01*
X221723Y652228D01*
X221255Y652615D01*
X220779Y652956D01*
X220296Y653251D01*
X219805Y653500D01*
X219306Y653702D01*
X218799Y653858D01*
X218285Y653969D01*
X217763Y654033D01*
X217234Y654050D01*
X221705Y658522D01*
Y664845D01*
X222092Y664483D01*
D02*
G37*
G36*
X217106Y654050D02*
X216577Y654033D01*
X216055Y653969D01*
X215541Y653858D01*
X215034Y653702D01*
X214535Y653500D01*
X214044Y653251D01*
X213561Y652956D01*
X213085Y652615D01*
X212617Y652228D01*
X212157Y651795D01*
X208565Y655387D01*
X208998Y655847D01*
X209385Y656315D01*
X209726Y656791D01*
X210021Y657274D01*
X210270Y657765D01*
X210472Y658264D01*
X210629Y658771D01*
X210739Y659285D01*
X210803Y659807D01*
X210820Y660337D01*
X217106Y654050D01*
D02*
G37*
G36*
X499433Y655478D02*
X499109Y655064D01*
X498824Y654622D01*
X498576Y654154D01*
X498366Y653658D01*
X498195Y653135D01*
X498061Y652584D01*
X497966Y652007D01*
X497909Y651402D01*
X497890Y650770D01*
X492810D01*
X492791Y651402D01*
X492734Y652007D01*
X492639Y652584D01*
X492505Y653135D01*
X492334Y653658D01*
X492124Y654154D01*
X491877Y654622D01*
X491591Y655064D01*
X491267Y655478D01*
X490905Y655865D01*
X499795D01*
X499433Y655478D01*
D02*
G37*
G36*
X306383Y653735D02*
X305781Y653575D01*
X305194Y653382D01*
X304621Y653158D01*
X304063Y652902D01*
X303520Y652615D01*
X302991Y652295D01*
X302477Y651944D01*
X301978Y651561D01*
X301494Y651146D01*
X301024Y650699D01*
X296462Y653321D01*
X296921Y653817D01*
X297316Y654322D01*
X297648Y654836D01*
X297915Y655359D01*
X298117Y655891D01*
X298256Y656432D01*
X298330Y656982D01*
X298341Y657540D01*
X298287Y658108D01*
X298168Y658684D01*
X306383Y653735D01*
D02*
G37*
G36*
X301326Y669191D02*
X301176Y669150D01*
X299034Y667914D01*
X297286Y666166D01*
X296050Y664024D01*
X295410Y661636D01*
Y659164D01*
X295630Y658342D01*
X295631Y658164D01*
X295722Y657724D01*
X295749Y657441D01*
X295744Y657179D01*
X295710Y656928D01*
X295645Y656676D01*
X295545Y656412D01*
X295400Y656130D01*
X295204Y655825D01*
X295100Y655693D01*
X292158Y652750D01*
X291035Y651070D01*
X290641Y649088D01*
Y646168D01*
X289500Y644100D01*
X288101Y644100D01*
X273185D01*
X271568Y646121D01*
X271912Y648555D01*
X273984Y649752D01*
X274795Y649283D01*
X276860Y648730D01*
Y660400D01*
X279400D01*
Y662940D01*
X291070D01*
X290517Y665005D01*
X288946Y667725D01*
X287481Y669191D01*
X288533Y671730D01*
X300992D01*
X301326Y669191D01*
D02*
G37*
G36*
X629821Y643521D02*
X629817Y643480D01*
X629755Y643093D01*
X629674Y642745D01*
X629575Y642434D01*
X629460Y642157D01*
X629331Y641907D01*
X629187Y641682D01*
X629026Y641473D01*
X628765Y641193D01*
X628656Y641016D01*
X628006Y640367D01*
X626856Y638373D01*
X626260Y636151D01*
Y634249D01*
X626214Y634178D01*
X626054Y633962D01*
X625728Y633591D01*
X623202Y631064D01*
X622811Y630480D01*
X621240Y628590D01*
X597963D01*
X597960Y628590D01*
Y628590D01*
X595503Y628396D01*
Y628396D01*
X572897D01*
Y626344D01*
X569323D01*
X566846Y625851D01*
X564745Y624447D01*
X556545Y616247D01*
X554005Y617299D01*
Y618237D01*
X553749Y619526D01*
X553019Y620618D01*
X552614Y620889D01*
X552491Y621313D01*
Y623287D01*
X552614Y623711D01*
X553019Y623982D01*
X553749Y625074D01*
X554005Y626362D01*
Y630938D01*
X553749Y632226D01*
X553019Y633318D01*
X551926Y634048D01*
X550638Y634305D01*
X535163D01*
X533874Y634048D01*
X532782Y633318D01*
X532052Y632226D01*
X531795Y630938D01*
Y626362D01*
X532052Y625074D01*
X532782Y623982D01*
X533186Y623711D01*
X533310Y623287D01*
Y621313D01*
X533186Y620889D01*
X532782Y620618D01*
X532052Y619526D01*
X531795Y618237D01*
Y613662D01*
X532052Y612374D01*
X532782Y611282D01*
X533186Y611011D01*
X533310Y610587D01*
Y608613D01*
X533186Y608189D01*
X532782Y607918D01*
X532052Y606826D01*
X531795Y605537D01*
Y600962D01*
X532052Y599674D01*
X532782Y598582D01*
X533186Y598311D01*
X533310Y597887D01*
Y595913D01*
X533186Y595489D01*
X532782Y595218D01*
X532052Y594126D01*
X531795Y592837D01*
Y588262D01*
X532052Y586974D01*
X530610Y584559D01*
X530289Y584477D01*
X500530Y614235D01*
Y651605D01*
X500536Y651674D01*
X500601Y652068D01*
X500688Y652425D01*
X500794Y652749D01*
X500918Y653043D01*
X501060Y653311D01*
X501221Y653560D01*
X501403Y653793D01*
X501671Y654079D01*
X501957Y654347D01*
X502190Y654529D01*
X502439Y654690D01*
X502707Y654832D01*
X503001Y654956D01*
X503325Y655062D01*
X503682Y655149D01*
X504076Y655214D01*
X504145Y655220D01*
X510310D01*
Y648760D01*
X526990D01*
Y670461D01*
X537270D01*
Y662940D01*
X559030D01*
Y670461D01*
X566815D01*
X576875Y660400D01*
X575823Y657860D01*
X572897D01*
Y641604D01*
X595420D01*
Y638870D01*
X607060D01*
Y649750D01*
Y659130D01*
X605790D01*
X605784Y659845D01*
X605730Y660630D01*
X595420D01*
Y657860D01*
X589380D01*
Y660400D01*
X588985Y662382D01*
X587863Y664062D01*
X575175Y676750D01*
X576147Y679097D01*
X629821D01*
Y643521D01*
D02*
G37*
G36*
X637579Y643524D02*
X637612Y643159D01*
X637702Y642593D01*
X637828Y642056D01*
X637990Y641547D01*
X638188Y641066D01*
X638422Y640614D01*
X638692Y640190D01*
X638998Y639795D01*
X639340Y639428D01*
X637661D01*
X637696Y637692D01*
X632304D01*
X632334Y637798D01*
X632360Y638053D01*
X632404Y639010D01*
X632407Y639428D01*
X630660D01*
X631002Y639795D01*
X631308Y640190D01*
X631578Y640614D01*
X631812Y641066D01*
X632010Y641547D01*
X632172Y642056D01*
X632298Y642593D01*
X632388Y643159D01*
X632442Y643753D01*
X632447Y643910D01*
X632460Y645460D01*
X637540D01*
X637579Y643524D01*
D02*
G37*
G36*
X635853Y628859D02*
X635758Y628823D01*
X635618Y628736D01*
X635432Y628598D01*
X634926Y628167D01*
X633373Y626688D01*
X632872Y626190D01*
X626446Y630540D01*
X626934Y631039D01*
X628071Y632334D01*
X628342Y632699D01*
X628558Y633031D01*
X628719Y633329D01*
X628826Y633594D01*
X628879Y633826D01*
X628877Y634024D01*
X635853Y628859D01*
D02*
G37*
G36*
X268804Y632714D02*
X263724Y625094D01*
X263675Y626059D01*
X263528Y626923D01*
X263283Y627685D01*
X262941Y628345D01*
X262500Y628904D01*
X261961Y629361D01*
X261324Y629717D01*
X260589Y629971D01*
X259757Y630123D01*
X258826Y630174D01*
Y635254D01*
X259757Y635305D01*
X260589Y635457D01*
X261324Y635711D01*
X261961Y636067D01*
X262500Y636524D01*
X262941Y637083D01*
X263283Y637743D01*
X263528Y638505D01*
X263675Y639369D01*
X263724Y640334D01*
X268804Y632714D01*
D02*
G37*
G36*
X244460Y655205D02*
X244879Y655128D01*
X245269Y655024D01*
X245636Y654893D01*
X245984Y654735D01*
X246317Y654549D01*
X246638Y654331D01*
X246951Y654080D01*
X247330Y653722D01*
X247514Y653607D01*
X248234Y652886D01*
X250376Y651650D01*
X252764Y651010D01*
X255236D01*
X257624Y651650D01*
X258545Y652181D01*
X261085Y650750D01*
Y643763D01*
X250444D01*
Y621157D01*
X258627D01*
X258912Y620780D01*
X257648Y618240D01*
X240360D01*
Y614074D01*
X237820Y612174D01*
X237490Y612239D01*
X226060D01*
X224078Y611845D01*
X222397Y610723D01*
X214937Y603262D01*
X212590Y604234D01*
Y618990D01*
X208633D01*
X208606Y619054D01*
X208503Y619441D01*
X208413Y619985D01*
X208379Y620364D01*
Y644285D01*
X214613Y650518D01*
X214667Y650563D01*
X214991Y650795D01*
X215305Y650987D01*
X215609Y651141D01*
X215905Y651261D01*
X216195Y651350D01*
X216484Y651412D01*
X216778Y651448D01*
X217170Y651461D01*
X217562Y651448D01*
X217856Y651412D01*
X218145Y651350D01*
X218435Y651261D01*
X218731Y651141D01*
X219035Y650987D01*
X219349Y650795D01*
X219673Y650563D01*
X219727Y650519D01*
X223942Y646303D01*
X223422Y643763D01*
X220980D01*
Y621157D01*
X237236D01*
Y643763D01*
X234669D01*
Y648081D01*
X234669Y648081D01*
X234274Y650063D01*
X233151Y651743D01*
X232021Y652874D01*
X232993Y655220D01*
X244311D01*
X244460Y655205D01*
D02*
G37*
G36*
X205765Y620528D02*
X205842Y619660D01*
X205969Y618893D01*
X206146Y618229D01*
X206375Y617667D01*
X206654Y617207D01*
X206985Y616849D01*
X207366Y616594D01*
X207797Y616440D01*
X208280Y616389D01*
X198120D01*
X198603Y616440D01*
X199034Y616594D01*
X199415Y616849D01*
X199746Y617207D01*
X200025Y617667D01*
X200254Y618229D01*
X200431Y618893D01*
X200558Y619660D01*
X200635Y620528D01*
X200660Y621499D01*
X205740D01*
X205765Y620528D01*
D02*
G37*
G36*
X647539Y673556D02*
Y604064D01*
X637363Y593888D01*
X637331Y593861D01*
X637014Y593631D01*
X636711Y593443D01*
X636421Y593293D01*
X636144Y593178D01*
X635876Y593093D01*
X635614Y593035D01*
X635353Y593001D01*
X634971Y592988D01*
X634768Y592940D01*
X633849D01*
X631627Y592344D01*
X629972Y591389D01*
X629906Y591362D01*
X629795Y591287D01*
X629633Y591194D01*
X629587Y591147D01*
X629577Y591141D01*
X629310Y590989D01*
X629022Y590851D01*
X628709Y590728D01*
X628368Y590621D01*
X627998Y590529D01*
X627632Y590462D01*
X627055Y590404D01*
X621240D01*
Y594590D01*
X597960D01*
Y594560D01*
X595503Y594360D01*
Y594360D01*
X572897D01*
Y592706D01*
X565800D01*
X563454Y595052D01*
X563446Y595073D01*
X563391Y595263D01*
X563647Y598003D01*
X564648Y598672D01*
X566052Y600772D01*
X566544Y603250D01*
Y607934D01*
X570472Y611862D01*
X572897Y612140D01*
Y612140D01*
X595503D01*
Y612140D01*
X597960Y611940D01*
Y611910D01*
X621240D01*
Y613794D01*
X623316D01*
X625794Y614286D01*
X627894Y615690D01*
X632358Y620154D01*
X633761Y622254D01*
X634024Y623574D01*
X636869Y626420D01*
X636926Y626468D01*
X638373Y626856D01*
X640367Y628006D01*
X641994Y629633D01*
X643144Y631627D01*
X643740Y633849D01*
Y636151D01*
X643144Y638373D01*
X641994Y640367D01*
X641344Y641016D01*
X641235Y641193D01*
X640974Y641473D01*
X640813Y641682D01*
X640669Y641907D01*
X640540Y642157D01*
X640425Y642434D01*
X640326Y642745D01*
X640245Y643093D01*
X640183Y643480D01*
X640180Y643521D01*
Y677597D01*
X642526Y678569D01*
X647539Y673556D01*
D02*
G37*
G36*
X239435Y608757D02*
X239673Y608667D01*
X240000Y608588D01*
X240416Y608520D01*
X241513Y608414D01*
X243823Y608335D01*
X244770Y608330D01*
Y605790D01*
X243823Y605785D01*
X240000Y605532D01*
X239673Y605453D01*
X239435Y605363D01*
X239285Y605263D01*
Y608857D01*
X239435Y608757D01*
D02*
G37*
G36*
X557378Y600554D02*
X557272Y600584D01*
X557017Y600610D01*
X556060Y600654D01*
X549610Y600710D01*
Y605790D01*
X557378Y605946D01*
Y600554D01*
D02*
G37*
G36*
X299385Y602147D02*
X299623Y602057D01*
X299950Y601978D01*
X300366Y601910D01*
X301463Y601804D01*
X303773Y601725D01*
X304720Y601720D01*
Y599180D01*
X303773Y599175D01*
X299950Y598922D01*
X299623Y598843D01*
X299385Y598753D01*
X299235Y598653D01*
Y602247D01*
X299385Y602147D01*
D02*
G37*
G36*
X261955Y592153D02*
X261805Y592253D01*
X261567Y592343D01*
X261240Y592422D01*
X260824Y592490D01*
X259727Y592596D01*
X257417Y592675D01*
X256470Y592680D01*
Y595220D01*
X257417Y595225D01*
X261240Y595478D01*
X261567Y595557D01*
X261805Y595647D01*
X261955Y595747D01*
Y592153D01*
D02*
G37*
G36*
X322499Y601770D02*
X338868D01*
X339840Y599424D01*
X331985Y591569D01*
X318440D01*
Y600497D01*
X319287Y601177D01*
X320980Y602072D01*
X322499Y601770D01*
D02*
G37*
G36*
X275981Y585566D02*
X265326Y574911D01*
X262980Y575883D01*
Y581780D01*
X260440D01*
Y587036D01*
X260647Y587368D01*
X262980Y588924D01*
X263750Y588770D01*
X265732Y589165D01*
X267412Y590288D01*
X269927Y592802D01*
X271049Y594482D01*
X271444Y596464D01*
X271444Y596464D01*
Y618850D01*
X272820Y620820D01*
X275981D01*
Y585566D01*
D02*
G37*
G36*
X556108Y587854D02*
X556002Y587884D01*
X555747Y587910D01*
X554790Y587954D01*
X548340Y588010D01*
Y593090D01*
X556108Y593246D01*
Y587854D01*
D02*
G37*
G36*
X212401Y589809D02*
X211948Y589324D01*
X211544Y588825D01*
X211188Y588309D01*
X210881Y587779D01*
X210622Y587232D01*
X210411Y586670D01*
X210248Y586093D01*
X210134Y585500D01*
X210068Y584892D01*
X210050Y584268D01*
X203269Y591050D01*
X203892Y591068D01*
X204501Y591134D01*
X205093Y591248D01*
X205671Y591411D01*
X206232Y591622D01*
X206779Y591881D01*
X207309Y592188D01*
X207824Y592544D01*
X208324Y592948D01*
X208808Y593401D01*
X212401Y589809D01*
D02*
G37*
G36*
X643426Y589034D02*
X642998Y588581D01*
X642616Y588122D01*
X642280Y587659D01*
X641989Y587190D01*
X641744Y586715D01*
X641544Y586235D01*
X641389Y585750D01*
X641281Y585259D01*
X641217Y584763D01*
X641200Y584262D01*
X635062Y590400D01*
X635563Y590417D01*
X636059Y590481D01*
X636550Y590589D01*
X637035Y590744D01*
X637515Y590944D01*
X637990Y591189D01*
X638459Y591480D01*
X638922Y591816D01*
X639381Y592198D01*
X639834Y592626D01*
X643426Y589034D01*
D02*
G37*
G36*
X629916Y580652D02*
X629614Y581038D01*
X629276Y581384D01*
X628901Y581689D01*
X628491Y581953D01*
X628044Y582177D01*
X627561Y582360D01*
X627042Y582502D01*
X626487Y582604D01*
X625896Y582665D01*
X625268Y582685D01*
X626207Y587765D01*
X626827Y587779D01*
X627996Y587895D01*
X628545Y587996D01*
X629071Y588127D01*
X629574Y588286D01*
X630053Y588474D01*
X630509Y588691D01*
X630941Y588937D01*
X631351Y589212D01*
X629916Y580652D01*
D02*
G37*
G36*
X263635Y565893D02*
X263485Y565993D01*
X263247Y566083D01*
X262920Y566162D01*
X262504Y566230D01*
X261407Y566336D01*
X259097Y566415D01*
X258150Y566420D01*
Y568960D01*
X259097Y568965D01*
X262920Y569218D01*
X263247Y569297D01*
X263485Y569387D01*
X263635Y569487D01*
Y565893D01*
D02*
G37*
G36*
X290172Y619603D02*
X290641Y618752D01*
Y602070D01*
X291035Y600088D01*
X292158Y598407D01*
X293778Y596787D01*
X295458Y595665D01*
X297440Y595270D01*
X298360Y594515D01*
Y582660D01*
Y576160D01*
Y568622D01*
X295910Y566520D01*
X282376D01*
X280394Y566125D01*
X278713Y565003D01*
X278713Y565002D01*
X275737Y562027D01*
X274898Y560770D01*
X273090Y560466D01*
X272065Y560546D01*
X271632Y561193D01*
X270666Y562159D01*
X269217Y563880D01*
X270666Y565601D01*
X284823Y579758D01*
X284823Y579758D01*
X285945Y581438D01*
X286340Y583420D01*
Y619024D01*
X287239Y619923D01*
X290172Y619603D01*
D02*
G37*
G36*
X212401Y564408D02*
X211948Y563924D01*
X211544Y563424D01*
X211188Y562909D01*
X210881Y562379D01*
X210622Y561832D01*
X210411Y561270D01*
X210248Y560693D01*
X210134Y560101D01*
X210068Y559492D01*
X210050Y558868D01*
X203269Y565650D01*
X203892Y565667D01*
X204501Y565734D01*
X205093Y565848D01*
X205671Y566011D01*
X206232Y566222D01*
X206779Y566481D01*
X207309Y566788D01*
X207824Y567144D01*
X208324Y567548D01*
X208808Y568001D01*
X212401Y564408D01*
D02*
G37*
G36*
X477539Y560178D02*
X477596Y559573D01*
X477691Y558996D01*
X477825Y558445D01*
X477996Y557922D01*
X478206Y557426D01*
X478453Y556958D01*
X478739Y556516D01*
X479063Y556102D01*
X479425Y555715D01*
X470535D01*
X470897Y556102D01*
X471221Y556516D01*
X471507Y556958D01*
X471754Y557426D01*
X471964Y557922D01*
X472135Y558445D01*
X472269Y558996D01*
X472364Y559573D01*
X472421Y560178D01*
X472440Y560810D01*
X477520D01*
X477539Y560178D01*
D02*
G37*
G36*
X260440Y550160D02*
X262791Y549703D01*
Y545040D01*
X247360D01*
Y521760D01*
X249010D01*
X249380Y521358D01*
X250377Y519907D01*
X250578Y519220D01*
X250562Y519155D01*
X250456Y518831D01*
X250332Y518537D01*
X250190Y518269D01*
X250029Y518020D01*
X249847Y517787D01*
X249563Y517484D01*
X249452Y517305D01*
X248786Y516639D01*
X247616Y514612D01*
X247010Y512351D01*
Y510010D01*
X247616Y507749D01*
X248786Y505722D01*
X248972Y505535D01*
X248977Y505526D01*
X249238Y505187D01*
X249418Y504913D01*
X249577Y504622D01*
X249718Y504312D01*
X249840Y503978D01*
X249943Y503617D01*
X250026Y503227D01*
X250088Y502806D01*
X250091Y502776D01*
Y407275D01*
X146706Y303890D01*
X145583Y302210D01*
X145189Y300228D01*
Y278003D01*
X142240D01*
Y255397D01*
X158496D01*
Y278003D01*
X155548D01*
Y298083D01*
X168204Y310739D01*
X170236Y309179D01*
X169656Y308174D01*
X169060Y305951D01*
Y303649D01*
X169656Y301427D01*
X170806Y299433D01*
X172433Y297806D01*
X174426Y296656D01*
X175204Y296447D01*
X175340Y296367D01*
X175499Y296311D01*
X175546Y296209D01*
X175605Y296018D01*
X175661Y295735D01*
X175669Y295667D01*
Y278003D01*
X171704D01*
Y255397D01*
X175947D01*
Y250190D01*
X176243Y248703D01*
X177085Y247443D01*
X180265Y244263D01*
Y235867D01*
X180156Y235794D01*
X178931Y233962D01*
X178501Y231800D01*
Y214800D01*
X178931Y212638D01*
X180156Y210806D01*
X181988Y209582D01*
X184150Y209151D01*
X186312Y209582D01*
X188144Y210806D01*
X189117Y212261D01*
X190500Y212469D01*
X191883Y212261D01*
X192856Y210806D01*
X194688Y209582D01*
X196850Y209151D01*
X199012Y209582D01*
X200844Y210806D01*
X201817Y212261D01*
X203200Y212469D01*
X204583Y212261D01*
X205556Y210806D01*
X207388Y209582D01*
X209550Y209151D01*
X211712Y209582D01*
X212655Y210212D01*
X214198Y210524D01*
X215915Y209783D01*
X216487Y209037D01*
X218175Y207742D01*
X219710Y207106D01*
Y223300D01*
X224790D01*
Y207106D01*
X226325Y207742D01*
X228013Y209037D01*
X228585Y209783D01*
X230303Y210524D01*
X231845Y210212D01*
X232788Y209582D01*
X234950Y209151D01*
X237112Y209582D01*
X238944Y210806D01*
X239917Y212261D01*
X241300Y212469D01*
X242683Y212261D01*
X243656Y210806D01*
X245488Y209582D01*
X247650Y209151D01*
X249812Y209582D01*
X251644Y210806D01*
X252617Y212261D01*
X254000Y212469D01*
X255383Y212261D01*
X256356Y210806D01*
X258188Y209582D01*
X260350Y209151D01*
X262512Y209582D01*
X264344Y210806D01*
X265317Y212261D01*
X266700Y212469D01*
X268083Y212261D01*
X269056Y210806D01*
X270888Y209582D01*
X273050Y209151D01*
X275212Y209582D01*
X277044Y210806D01*
X278269Y212638D01*
X278699Y214800D01*
Y231800D01*
X278269Y233962D01*
X277044Y235794D01*
X275212Y237019D01*
X273556Y237348D01*
X273806Y239888D01*
X276686D01*
X279163Y240381D01*
X281264Y241784D01*
X285728Y246248D01*
X287131Y248348D01*
X287624Y250826D01*
Y255060D01*
X289840D01*
Y260226D01*
X387818D01*
X391315Y256729D01*
X391551Y256435D01*
X391976Y255813D01*
X392338Y255180D01*
X392640Y254531D01*
X392885Y253865D01*
X393075Y253176D01*
X393209Y252459D01*
X393288Y251712D01*
X393312Y250834D01*
X393360Y250622D01*
Y249083D01*
X394249Y245767D01*
X395965Y242793D01*
X398393Y240366D01*
X401367Y238649D01*
X404683Y237760D01*
X408117D01*
X411433Y238649D01*
X414407Y240366D01*
X416835Y242793D01*
X418551Y245767D01*
X419440Y249083D01*
Y252517D01*
X418551Y255833D01*
X416835Y258807D01*
X414407Y261235D01*
X411433Y262952D01*
X408117Y263840D01*
X406578D01*
X406366Y263888D01*
X405488Y263912D01*
X404741Y263991D01*
X404024Y264125D01*
X403335Y264315D01*
X402669Y264560D01*
X402020Y264862D01*
X401387Y265224D01*
X400765Y265649D01*
X400471Y265885D01*
X395078Y271278D01*
X392978Y272682D01*
X390500Y273174D01*
X289840D01*
Y278340D01*
X285529D01*
Y296932D01*
X285582Y297337D01*
X285657Y297734D01*
X285749Y298100D01*
X285858Y298436D01*
X285982Y298745D01*
X286121Y299030D01*
X286275Y299294D01*
X286321Y299361D01*
X286394Y299433D01*
X287544Y301427D01*
X288140Y303649D01*
Y305951D01*
X287544Y308174D01*
X286394Y310166D01*
X284767Y311794D01*
X282773Y312944D01*
X280551Y313540D01*
X278249D01*
X276026Y312944D01*
X274034Y311794D01*
X272406Y310166D01*
X271256Y308174D01*
X270660Y305951D01*
Y303649D01*
X271256Y301427D01*
X272406Y299433D01*
X274034Y297806D01*
X274221Y297698D01*
X274445Y297519D01*
X274586Y297378D01*
X274710Y297224D01*
X274822Y297046D01*
X274926Y296837D01*
X275019Y296587D01*
X275100Y296290D01*
X275163Y295942D01*
X275170Y295871D01*
Y278340D01*
X272760D01*
Y255060D01*
X272760D01*
X271995Y252837D01*
X263180D01*
Y264160D01*
X252100D01*
Y266700D01*
X249560D01*
Y281669D01*
X248835Y283420D01*
X252582Y287167D01*
X253705Y288848D01*
X254100Y290830D01*
Y311545D01*
X258685Y316131D01*
X317278D01*
X332271Y301138D01*
X333952Y300015D01*
X335934Y299620D01*
X575678D01*
X575720Y299617D01*
X576107Y299555D01*
X576455Y299474D01*
X576766Y299375D01*
X577043Y299260D01*
X577293Y299131D01*
X577519Y298987D01*
X577727Y298826D01*
X577985Y298585D01*
X578226Y298327D01*
X578387Y298118D01*
X578531Y297893D01*
X578660Y297643D01*
X578775Y297366D01*
X578874Y297055D01*
X578955Y296707D01*
X579017Y296320D01*
X579021Y296279D01*
Y268845D01*
X567837Y257663D01*
X566715Y255982D01*
X566320Y254000D01*
Y238040D01*
X560410D01*
Y226485D01*
X445785Y111860D01*
X174865D01*
X134555Y152170D01*
X135607Y154710D01*
X138640D01*
Y154710D01*
X140760Y154660D01*
Y154660D01*
X141159Y154660D01*
X164040D01*
Y158021D01*
X180095D01*
X191350Y146765D01*
X192176Y145684D01*
X191366Y144061D01*
X188641Y144050D01*
X188144Y144794D01*
X186312Y146018D01*
X184150Y146448D01*
X181988Y146018D01*
X180156Y144794D01*
X178931Y142962D01*
X178501Y140800D01*
Y123800D01*
X178931Y121638D01*
X180156Y119806D01*
X181988Y118581D01*
X184150Y118151D01*
X186312Y118581D01*
X188144Y119806D01*
X189117Y121261D01*
X190500Y121469D01*
X191883Y121261D01*
X192856Y119806D01*
X194688Y118581D01*
X196850Y118151D01*
X199012Y118581D01*
X200844Y119806D01*
X201817Y121261D01*
X203200Y121469D01*
X204583Y121261D01*
X205556Y119806D01*
X207388Y118581D01*
X209550Y118151D01*
X211712Y118581D01*
X213544Y119806D01*
X214517Y121261D01*
X215900Y121469D01*
X217283Y121261D01*
X218256Y119806D01*
X220088Y118581D01*
X222250Y118151D01*
X224412Y118581D01*
X226244Y119806D01*
X227217Y121261D01*
X228600Y121469D01*
X229983Y121261D01*
X230956Y119806D01*
X232788Y118581D01*
X234950Y118151D01*
X237112Y118581D01*
X238944Y119806D01*
X239917Y121261D01*
X241300Y121469D01*
X242683Y121261D01*
X243656Y119806D01*
X245488Y118581D01*
X247650Y118151D01*
X249812Y118581D01*
X251644Y119806D01*
X252617Y121261D01*
X254000Y121469D01*
X255383Y121261D01*
X256356Y119806D01*
X258188Y118581D01*
X260350Y118151D01*
X262512Y118581D01*
X264344Y119806D01*
X265317Y121261D01*
X266700Y121469D01*
X268083Y121261D01*
X269056Y119806D01*
X270888Y118581D01*
X273050Y118151D01*
X275212Y118581D01*
X277044Y119806D01*
X278269Y121638D01*
X278699Y123800D01*
Y140800D01*
X278269Y142962D01*
X277044Y144794D01*
X275212Y146018D01*
X273050Y146448D01*
X270888Y146018D01*
X269056Y144794D01*
X268083Y143338D01*
X266700Y143131D01*
X265317Y143338D01*
X264344Y144794D01*
X262512Y146018D01*
X260350Y146448D01*
X258188Y146018D01*
X256356Y144794D01*
X255383Y143338D01*
X254000Y143131D01*
X252617Y143338D01*
X251644Y144794D01*
X249812Y146018D01*
X247650Y146448D01*
X245488Y146018D01*
X243656Y144794D01*
X242683Y143338D01*
X241300Y143131D01*
X239917Y143338D01*
X238944Y144794D01*
X237112Y146018D01*
X234950Y146448D01*
X232788Y146018D01*
X230956Y144794D01*
X229983Y143338D01*
X228600Y143131D01*
X227217Y143338D01*
X226244Y144794D01*
X224412Y146018D01*
X222250Y146448D01*
X220088Y146018D01*
X218256Y144794D01*
X217283Y143338D01*
X215900Y143131D01*
X214517Y143338D01*
X213544Y144794D01*
X213435Y144867D01*
Y145326D01*
X213490Y146939D01*
X213579Y147869D01*
X213612Y148065D01*
X214335Y149148D01*
X214729Y151130D01*
Y163830D01*
X214335Y165812D01*
X213213Y167493D01*
X134719Y245985D01*
Y255397D01*
X137160D01*
Y278003D01*
X133195D01*
Y296988D01*
X133247Y297391D01*
X133321Y297791D01*
X133412Y298160D01*
X133520Y298500D01*
X133643Y298813D01*
X133781Y299101D01*
X133933Y299367D01*
X133944Y299384D01*
X133994Y299433D01*
X134090Y299601D01*
X134154Y299696D01*
X134179Y299754D01*
X135144Y301427D01*
X135740Y303649D01*
Y303777D01*
X135763Y303906D01*
X135838Y304200D01*
X135938Y304498D01*
X136067Y304803D01*
X136225Y305116D01*
X136416Y305439D01*
X136621Y305741D01*
X136992Y306197D01*
X218792Y387998D01*
X219915Y389678D01*
X220310Y391660D01*
Y519220D01*
X224160D01*
Y533400D01*
X226700D01*
Y535940D01*
X237780D01*
Y547580D01*
X237780Y547580D01*
X237780D01*
X238927Y549019D01*
X240360Y550160D01*
Y550160D01*
X240360Y550160D01*
X260440D01*
Y550160D01*
D02*
G37*
G36*
X469800Y577628D02*
Y559975D01*
X469794Y559906D01*
X469729Y559512D01*
X469642Y559155D01*
X469536Y558831D01*
X469412Y558537D01*
X469270Y558269D01*
X469109Y558020D01*
X468927Y557787D01*
X468643Y557484D01*
X468532Y557305D01*
X467866Y556639D01*
X466696Y554611D01*
X466090Y552350D01*
Y550010D01*
X466696Y547749D01*
X466857Y547469D01*
X465391Y544930D01*
X458086D01*
X457376Y547383D01*
X457414Y547511D01*
X457818Y547782D01*
X458548Y548874D01*
X458805Y550163D01*
Y554738D01*
X458548Y556026D01*
X457818Y557118D01*
X457414Y557389D01*
X457290Y557813D01*
Y559787D01*
X457414Y560211D01*
X457818Y560482D01*
X458548Y561574D01*
X458805Y562863D01*
Y567438D01*
X458548Y568726D01*
X457818Y569818D01*
X457414Y570089D01*
X457290Y570513D01*
Y572487D01*
X457414Y572911D01*
X457818Y573182D01*
X458548Y574274D01*
X458805Y575563D01*
Y580137D01*
X458548Y581426D01*
X457818Y582518D01*
X457414Y582789D01*
X457376Y582917D01*
X458086Y585370D01*
X462058D01*
X469800Y577628D01*
D02*
G37*
G36*
X491221Y566985D02*
Y543043D01*
X488874Y542071D01*
X487533Y543413D01*
X485852Y544535D01*
X484497Y544805D01*
X483441Y546350D01*
X483103Y547469D01*
X483264Y547749D01*
X483870Y550010D01*
Y552350D01*
X483264Y554611D01*
X482094Y556639D01*
X481428Y557305D01*
X481316Y557484D01*
X481033Y557787D01*
X480851Y558020D01*
X480690Y558269D01*
X480548Y558537D01*
X480424Y558831D01*
X480318Y559155D01*
X480231Y559512D01*
X480166Y559906D01*
X480159Y559975D01*
Y574727D01*
X482506Y575699D01*
X491221Y566985D01*
D02*
G37*
G36*
X602507Y528872D02*
X602975Y528485D01*
X603451Y528144D01*
X603934Y527849D01*
X604425Y527600D01*
X604924Y527398D01*
X605431Y527242D01*
X605945Y527131D01*
X606467Y527067D01*
X606996Y527050D01*
X600710Y520764D01*
X600693Y521293D01*
X600629Y521815D01*
X600518Y522329D01*
X600362Y522836D01*
X600160Y523335D01*
X599911Y523826D01*
X599616Y524309D01*
X599275Y524785D01*
X598888Y525253D01*
X598455Y525713D01*
X602047Y529305D01*
X602507Y528872D01*
D02*
G37*
G36*
X480333Y523398D02*
X480009Y522984D01*
X479723Y522542D01*
X479476Y522074D01*
X479266Y521578D01*
X479095Y521055D01*
X478961Y520504D01*
X478866Y519927D01*
X478809Y519322D01*
X478790Y518690D01*
X473710D01*
X473691Y519322D01*
X473634Y519927D01*
X473539Y520504D01*
X473405Y521055D01*
X473234Y521578D01*
X473024Y522074D01*
X472776Y522542D01*
X472491Y522984D01*
X472167Y523398D01*
X471805Y523785D01*
X480695D01*
X480333Y523398D01*
D02*
G37*
G36*
X611982Y524783D02*
X612396Y524459D01*
X612838Y524173D01*
X613306Y523926D01*
X613802Y523716D01*
X614325Y523545D01*
X614876Y523411D01*
X615453Y523316D01*
X616058Y523259D01*
X616690Y523240D01*
Y518160D01*
X616058Y518141D01*
X615453Y518084D01*
X614876Y517989D01*
X614325Y517855D01*
X613802Y517684D01*
X613306Y517474D01*
X612838Y517226D01*
X612396Y516941D01*
X611982Y516617D01*
X611595Y516255D01*
Y525145D01*
X611982Y524783D01*
D02*
G37*
G36*
X258459Y520178D02*
X258516Y519573D01*
X258611Y518996D01*
X258745Y518445D01*
X258916Y517922D01*
X259126Y517426D01*
X259373Y516958D01*
X259659Y516516D01*
X259983Y516102D01*
X260345Y515715D01*
X251455D01*
X251817Y516102D01*
X252141Y516516D01*
X252426Y516958D01*
X252674Y517426D01*
X252884Y517922D01*
X253055Y518445D01*
X253188Y518996D01*
X253284Y519573D01*
X253341Y520178D01*
X253360Y520810D01*
X258440D01*
X258459Y520178D01*
D02*
G37*
G36*
X566320Y520659D02*
Y417781D01*
X534554Y386014D01*
X532213Y387265D01*
X532229Y387350D01*
Y506996D01*
X532630Y507472D01*
X534770Y508773D01*
X535163Y508695D01*
X550638D01*
X551926Y508952D01*
X553019Y509682D01*
X553749Y510774D01*
X554005Y512062D01*
Y516637D01*
X553749Y517926D01*
X553019Y519018D01*
X552614Y519289D01*
X552577Y519417D01*
X553286Y521870D01*
X565109D01*
X566320Y520659D01*
D02*
G37*
G36*
X468127Y532030D02*
X467966Y531751D01*
X467360Y529490D01*
Y527150D01*
X467966Y524889D01*
X469136Y522861D01*
X469802Y522195D01*
X469913Y522016D01*
X470197Y521713D01*
X470379Y521480D01*
X470540Y521231D01*
X470682Y520963D01*
X470806Y520669D01*
X470912Y520345D01*
X470999Y519988D01*
X471064Y519594D01*
X471071Y519525D01*
Y511415D01*
X428138Y468483D01*
X427015Y466802D01*
X426620Y464820D01*
Y464288D01*
X424081Y463236D01*
X423883Y463433D01*
X422107Y464459D01*
X420126Y464990D01*
X418074D01*
X416093Y464459D01*
X414317Y463433D01*
X414119Y463236D01*
X411580Y464288D01*
Y498235D01*
X434920Y521575D01*
X436525Y521368D01*
X437139Y520004D01*
X437432Y518794D01*
X436852Y517926D01*
X436595Y516637D01*
Y512062D01*
X436852Y510774D01*
X437581Y509682D01*
X438674Y508952D01*
X439962Y508695D01*
X455437D01*
X456726Y508952D01*
X457818Y509682D01*
X458548Y510774D01*
X458805Y512062D01*
Y516637D01*
X458548Y517926D01*
X457818Y519018D01*
X457414Y519289D01*
X457290Y519713D01*
Y521687D01*
X457414Y522111D01*
X457818Y522382D01*
X458548Y523474D01*
X458805Y524762D01*
Y529338D01*
X458548Y530626D01*
X457818Y531718D01*
X457414Y531989D01*
X457376Y532117D01*
X458086Y534571D01*
X466660D01*
X468127Y532030D01*
D02*
G37*
G36*
X438023Y544817D02*
X437986Y544689D01*
X437581Y544418D01*
X436852Y543326D01*
X436595Y542038D01*
Y537463D01*
X436852Y536174D01*
X437581Y535082D01*
X437986Y534811D01*
X438023Y534683D01*
X437314Y532229D01*
X433070D01*
X431088Y531835D01*
X429408Y530713D01*
X402738Y504043D01*
X401615Y502362D01*
X401419Y501381D01*
X398880Y501631D01*
Y512205D01*
X433945Y547271D01*
X437314D01*
X438023Y544817D01*
D02*
G37*
G36*
X259873Y506227D02*
X259481Y505880D01*
X259130Y505501D01*
X258821Y505089D01*
X258553Y504646D01*
X258326Y504171D01*
X258140Y503664D01*
X257996Y503125D01*
X257892Y502553D01*
X257831Y501950D01*
X257810Y501314D01*
X252730Y501868D01*
X252713Y502497D01*
X252662Y503102D01*
X252577Y503685D01*
X252458Y504244D01*
X252304Y504779D01*
X252117Y505292D01*
X251896Y505781D01*
X251640Y506247D01*
X251351Y506689D01*
X251027Y507109D01*
X259873Y506227D01*
D02*
G37*
G36*
X129579Y491124D02*
X129612Y490759D01*
X129702Y490193D01*
X129828Y489656D01*
X129990Y489147D01*
X130188Y488666D01*
X130422Y488214D01*
X130692Y487790D01*
X130998Y487395D01*
X131340Y487028D01*
X129661D01*
X129696Y485292D01*
X124304D01*
X124334Y485398D01*
X124360Y485653D01*
X124404Y486610D01*
X124408Y487028D01*
X122660D01*
X123002Y487395D01*
X123308Y487790D01*
X123578Y488214D01*
X123812Y488666D01*
X124010Y489147D01*
X124172Y489656D01*
X124298Y490193D01*
X124388Y490759D01*
X124442Y491353D01*
X124446Y491510D01*
X124460Y493060D01*
X129540D01*
X129579Y491124D01*
D02*
G37*
G36*
X685738Y476400D02*
X685237Y476383D01*
X684741Y476319D01*
X684250Y476211D01*
X683765Y476056D01*
X683285Y475856D01*
X682810Y475611D01*
X682341Y475320D01*
X681878Y474984D01*
X681419Y474602D01*
X680966Y474174D01*
X677374Y477766D01*
X677802Y478219D01*
X678184Y478678D01*
X678520Y479141D01*
X678811Y479610D01*
X679056Y480085D01*
X679256Y480565D01*
X679411Y481050D01*
X679519Y481541D01*
X679583Y482037D01*
X679600Y482538D01*
X685738Y476400D01*
D02*
G37*
G36*
X133224Y482371D02*
X133301Y482167D01*
X133429Y481926D01*
X133610Y481648D01*
X133842Y481334D01*
X134462Y480593D01*
X135291Y479705D01*
X135783Y479205D01*
X130395Y473817D01*
X129895Y474309D01*
X127951Y475990D01*
X127674Y476171D01*
X127433Y476299D01*
X127229Y476376D01*
X127062Y476400D01*
X133200Y482538D01*
X133224Y482371D01*
D02*
G37*
G36*
X375821Y512223D02*
Y464288D01*
X373280Y463236D01*
X373083Y463433D01*
X371307Y464459D01*
X369326Y464990D01*
X367274D01*
X365293Y464459D01*
X363517Y463433D01*
X362066Y461983D01*
X361041Y460207D01*
X360510Y458226D01*
Y456174D01*
X361041Y454193D01*
X362066Y452417D01*
X363517Y450966D01*
X365293Y449941D01*
X367274Y449410D01*
X369326D01*
X371307Y449941D01*
X373083Y450966D01*
X373280Y451164D01*
X375821Y450112D01*
Y395845D01*
X345326Y365350D01*
X344409Y364499D01*
X343650Y363890D01*
X342987Y363427D01*
X342923Y363390D01*
X335379D01*
Y450112D01*
X337920Y451164D01*
X338117Y450966D01*
X339893Y449941D01*
X341874Y449410D01*
X343926D01*
X345907Y449941D01*
X347683Y450966D01*
X349133Y452417D01*
X350159Y454193D01*
X350690Y456174D01*
Y458226D01*
X350159Y460207D01*
X349133Y461983D01*
X347683Y463433D01*
X345907Y464459D01*
X343926Y464990D01*
X341874D01*
X339893Y464459D01*
X338117Y463433D01*
X337920Y463236D01*
X335379Y464288D01*
Y475375D01*
X373280Y513275D01*
X375821Y512223D01*
D02*
G37*
G36*
X396251Y464386D02*
X396342Y463374D01*
X396422Y462922D01*
X396524Y462504D01*
X396649Y462122D01*
X396796Y461776D01*
X396966Y461465D01*
X397159Y461189D01*
X397375Y460949D01*
X390025D01*
X390241Y461189D01*
X390434Y461465D01*
X390604Y461776D01*
X390751Y462122D01*
X390876Y462504D01*
X390978Y462922D01*
X391058Y463374D01*
X391115Y463862D01*
X391160Y464945D01*
X396240D01*
X396251Y464386D01*
D02*
G37*
G36*
X510559Y453498D02*
X510616Y452893D01*
X510711Y452316D01*
X510845Y451765D01*
X511016Y451242D01*
X511226Y450746D01*
X511473Y450278D01*
X511759Y449836D01*
X512083Y449422D01*
X512445Y449035D01*
X503555D01*
X503917Y449422D01*
X504241Y449836D01*
X504527Y450278D01*
X504774Y450746D01*
X504984Y451242D01*
X505155Y451765D01*
X505289Y452316D01*
X505384Y452893D01*
X505441Y453498D01*
X505460Y454130D01*
X510540D01*
X510559Y453498D01*
D02*
G37*
G36*
X320059D02*
X320116Y452893D01*
X320211Y452316D01*
X320345Y451765D01*
X320516Y451242D01*
X320726Y450746D01*
X320974Y450278D01*
X321259Y449836D01*
X321583Y449422D01*
X321945Y449035D01*
X313055D01*
X313417Y449422D01*
X313741Y449836D01*
X314027Y450278D01*
X314274Y450746D01*
X314484Y451242D01*
X314655Y451765D01*
X314788Y452316D01*
X314884Y452893D01*
X314941Y453498D01*
X314960Y454130D01*
X320040D01*
X320059Y453498D01*
D02*
G37*
G36*
X516605Y424113D02*
X516172Y423653D01*
X515785Y423185D01*
X515444Y422709D01*
X515149Y422226D01*
X514900Y421735D01*
X514698Y421236D01*
X514542Y420729D01*
X514431Y420215D01*
X514367Y419693D01*
X514350Y419164D01*
X508064Y425450D01*
X508593Y425467D01*
X509115Y425531D01*
X509629Y425642D01*
X510136Y425798D01*
X510635Y426000D01*
X511126Y426249D01*
X511609Y426544D01*
X512085Y426885D01*
X512553Y427272D01*
X513013Y427705D01*
X516605Y424113D01*
D02*
G37*
G36*
X501920Y391869D02*
X501880Y391919D01*
X501793Y391964D01*
X501657Y392003D01*
X501475Y392038D01*
X501244Y392066D01*
X500640Y392109D01*
X499376Y392132D01*
Y397212D01*
X502759Y397285D01*
X501920Y391869D01*
D02*
G37*
G36*
X516605Y373313D02*
X516172Y372853D01*
X515785Y372385D01*
X515444Y371909D01*
X515149Y371426D01*
X514900Y370935D01*
X514698Y370436D01*
X514542Y369929D01*
X514431Y369415D01*
X514367Y368893D01*
X514350Y368363D01*
X508064Y374650D01*
X508593Y374667D01*
X509115Y374731D01*
X509629Y374841D01*
X510136Y374998D01*
X510635Y375200D01*
X511126Y375449D01*
X511609Y375744D01*
X512085Y376085D01*
X512553Y376472D01*
X513013Y376905D01*
X516605Y373313D01*
D02*
G37*
G36*
X351712Y360820D02*
X350703Y359775D01*
X349116Y357904D01*
X348538Y357076D01*
X348104Y356322D01*
X347814Y355640D01*
X347667Y355030D01*
X347664Y354492D01*
X347805Y354028D01*
X348089Y353635D01*
X340935Y360789D01*
X341328Y360505D01*
X341792Y360364D01*
X342330Y360367D01*
X342940Y360514D01*
X343622Y360804D01*
X344376Y361238D01*
X345204Y361816D01*
X346103Y362538D01*
X348120Y364412D01*
X351712Y360820D01*
D02*
G37*
G36*
X451772Y359280D02*
X451385Y358877D01*
X450734Y358098D01*
X450470Y357721D01*
X450247Y357354D01*
X450066Y356996D01*
X449925Y356646D01*
X449826Y356306D01*
X449767Y355975D01*
X449750Y355653D01*
X444552Y360850D01*
X444875Y360867D01*
X445206Y360926D01*
X445546Y361025D01*
X445896Y361166D01*
X446254Y361347D01*
X446621Y361570D01*
X446998Y361834D01*
X447383Y362139D01*
X448180Y362872D01*
X451772Y359280D01*
D02*
G37*
G36*
X426372D02*
X425985Y358877D01*
X425334Y358098D01*
X425070Y357721D01*
X424847Y357354D01*
X424666Y356996D01*
X424525Y356646D01*
X424426Y356306D01*
X424367Y355975D01*
X424350Y355653D01*
X419152Y360850D01*
X419475Y360867D01*
X419806Y360926D01*
X420146Y361025D01*
X420496Y361166D01*
X420854Y361347D01*
X421221Y361570D01*
X421598Y361834D01*
X421983Y362139D01*
X422780Y362872D01*
X426372Y359280D01*
D02*
G37*
G36*
X400972D02*
X400585Y358877D01*
X399934Y358098D01*
X399670Y357721D01*
X399447Y357354D01*
X399266Y356996D01*
X399125Y356646D01*
X399026Y356306D01*
X398967Y355975D01*
X398950Y355653D01*
X393753Y360850D01*
X394075Y360867D01*
X394406Y360926D01*
X394747Y361025D01*
X395096Y361166D01*
X395454Y361347D01*
X395821Y361570D01*
X396198Y361834D01*
X396583Y362139D01*
X397380Y362872D01*
X400972Y359280D01*
D02*
G37*
G36*
X473890Y359059D02*
X474165Y358866D01*
X474476Y358696D01*
X474823Y358549D01*
X475204Y358424D01*
X475622Y358322D01*
X476074Y358242D01*
X476562Y358185D01*
X477645Y358140D01*
Y353060D01*
X477086Y353049D01*
X476074Y352958D01*
X475622Y352878D01*
X475204Y352776D01*
X474823Y352651D01*
X474476Y352504D01*
X474165Y352334D01*
X473890Y352141D01*
X473649Y351925D01*
Y359275D01*
X473890Y359059D01*
D02*
G37*
G36*
X368247Y350350D02*
X367925Y350333D01*
X367594Y350274D01*
X367253Y350175D01*
X366904Y350034D01*
X366546Y349853D01*
X366179Y349630D01*
X365802Y349366D01*
X365417Y349061D01*
X364620Y348328D01*
X361028Y351920D01*
X361415Y352323D01*
X362066Y353102D01*
X362330Y353479D01*
X362553Y353846D01*
X362734Y354204D01*
X362875Y354553D01*
X362974Y354894D01*
X363033Y355225D01*
X363050Y355547D01*
X368247Y350350D01*
D02*
G37*
G36*
X317204Y525189D02*
X297327Y505312D01*
X296205Y503632D01*
X295811Y501650D01*
Y350520D01*
X296205Y348538D01*
X297327Y346857D01*
X315349Y328836D01*
X314377Y326489D01*
X256540D01*
X256540Y326489D01*
X254558Y326095D01*
X252878Y324972D01*
X245257Y317353D01*
X244135Y315672D01*
X243741Y313690D01*
Y292975D01*
X241695Y290930D01*
X236220D01*
X234238Y290535D01*
X232558Y289412D01*
X226970Y283825D01*
X225847Y282144D01*
X225452Y280162D01*
Y278003D01*
X222504D01*
Y255397D01*
X236264D01*
X238459Y252857D01*
X238456Y252837D01*
X209550D01*
X209442Y252815D01*
X207372Y254993D01*
X207474Y255397D01*
X209296D01*
Y278003D01*
X206348D01*
Y288177D01*
X217791Y299620D01*
X220079D01*
X220120Y299617D01*
X220507Y299555D01*
X220855Y299474D01*
X221166Y299375D01*
X221443Y299260D01*
X221693Y299131D01*
X221919Y298987D01*
X222127Y298826D01*
X222407Y298565D01*
X222584Y298456D01*
X223234Y297806D01*
X225226Y296656D01*
X227449Y296060D01*
X229751D01*
X231973Y296656D01*
X233967Y297806D01*
X235594Y299433D01*
X236744Y301427D01*
X237340Y303649D01*
Y305951D01*
X236744Y308174D01*
X235594Y310166D01*
X234944Y310816D01*
X234835Y310993D01*
X234574Y311273D01*
X234413Y311481D01*
X234269Y311707D01*
X234140Y311957D01*
X234025Y312234D01*
X233926Y312545D01*
X233845Y312893D01*
X233783Y313280D01*
X233780Y313321D01*
Y339485D01*
X290683Y396387D01*
X291805Y398068D01*
X292199Y400050D01*
Y543874D01*
X298383Y550057D01*
X298451Y550160D01*
X317204D01*
Y525189D01*
D02*
G37*
G36*
X274221Y532015D02*
Y408545D01*
X180163Y314488D01*
X180131Y314461D01*
X179814Y314231D01*
X179511Y314043D01*
X179221Y313893D01*
X178944Y313778D01*
X178676Y313693D01*
X178414Y313635D01*
X178153Y313601D01*
X177771Y313588D01*
X177568Y313540D01*
X176649D01*
X174426Y312944D01*
X173421Y312364D01*
X171861Y314396D01*
X258932Y401468D01*
X260055Y403148D01*
X260450Y405130D01*
Y502101D01*
X260459Y502191D01*
X260525Y502559D01*
X260612Y502882D01*
X260716Y503166D01*
X260835Y503415D01*
X260969Y503637D01*
X261120Y503838D01*
X261294Y504026D01*
X261305Y504035D01*
X261359Y504066D01*
X261503Y504211D01*
X261590Y504288D01*
X261621Y504329D01*
X263014Y505722D01*
X264184Y507749D01*
X264790Y510010D01*
Y512351D01*
X264184Y514612D01*
X263014Y516639D01*
X262348Y517305D01*
X262236Y517484D01*
X261953Y517787D01*
X261770Y518020D01*
X261610Y518269D01*
X261468Y518537D01*
X261344Y518831D01*
X261238Y519155D01*
X261222Y519220D01*
X261423Y519907D01*
X262420Y521358D01*
X262790Y521760D01*
X264440D01*
Y528220D01*
X264994D01*
X266976Y528615D01*
X268657Y529738D01*
X271632Y532713D01*
X271632Y532713D01*
X271681Y532785D01*
X274221Y532015D01*
D02*
G37*
G36*
X135710Y308648D02*
X135282Y308199D01*
X134541Y307288D01*
X134228Y306826D01*
X133952Y306360D01*
X133714Y305890D01*
X133514Y305415D01*
X133353Y304935D01*
X133229Y304452D01*
X133143Y303963D01*
X127959Y310925D01*
X128449Y310875D01*
X128936Y310878D01*
X129418Y310934D01*
X129898Y311043D01*
X130373Y311206D01*
X130845Y311422D01*
X131313Y311691D01*
X131778Y312014D01*
X132239Y312390D01*
X132697Y312819D01*
X135710Y308648D01*
D02*
G37*
G36*
X231158Y313553D02*
X231212Y312959D01*
X231302Y312393D01*
X231428Y311856D01*
X231590Y311347D01*
X231788Y310866D01*
X232022Y310414D01*
X232292Y309990D01*
X232598Y309595D01*
X232940Y309228D01*
X224260D01*
X224602Y309595D01*
X224908Y309990D01*
X225178Y310414D01*
X225412Y310866D01*
X225610Y311347D01*
X225772Y311856D01*
X225898Y312393D01*
X225988Y312959D01*
X226042Y313553D01*
X226060Y314176D01*
X231140D01*
X231158Y313553D01*
D02*
G37*
G36*
X186226Y309634D02*
X185798Y309181D01*
X185416Y308722D01*
X185080Y308259D01*
X184789Y307790D01*
X184544Y307315D01*
X184344Y306835D01*
X184189Y306350D01*
X184081Y305859D01*
X184017Y305363D01*
X184000Y304862D01*
X177862Y311000D01*
X178363Y311017D01*
X178859Y311081D01*
X179350Y311189D01*
X179835Y311344D01*
X180315Y311544D01*
X180790Y311789D01*
X181259Y312080D01*
X181722Y312416D01*
X182181Y312798D01*
X182634Y313226D01*
X186226Y309634D01*
D02*
G37*
G36*
X588995Y308798D02*
X589390Y308492D01*
X589814Y308222D01*
X590266Y307988D01*
X590747Y307790D01*
X591256Y307628D01*
X591793Y307502D01*
X592359Y307412D01*
X592953Y307358D01*
X593576Y307340D01*
Y302260D01*
X592953Y302242D01*
X592359Y302188D01*
X591793Y302098D01*
X591256Y301972D01*
X590747Y301810D01*
X590266Y301612D01*
X589814Y301378D01*
X589390Y301108D01*
X588995Y300802D01*
X588628Y300460D01*
Y309140D01*
X588995Y308798D01*
D02*
G37*
G36*
X579772Y300460D02*
X579405Y300802D01*
X579010Y301108D01*
X578586Y301378D01*
X578134Y301612D01*
X577653Y301810D01*
X577144Y301972D01*
X576607Y302098D01*
X576041Y302188D01*
X575447Y302242D01*
X574824Y302260D01*
Y307340D01*
X575447Y307358D01*
X576041Y307412D01*
X576607Y307502D01*
X577144Y307628D01*
X577653Y307790D01*
X578134Y307988D01*
X578586Y308222D01*
X579010Y308492D01*
X579405Y308798D01*
X579772Y309140D01*
Y300460D01*
D02*
G37*
G36*
X224172D02*
X223805Y300802D01*
X223410Y301108D01*
X222986Y301378D01*
X222534Y301612D01*
X222053Y301810D01*
X221544Y301972D01*
X221007Y302098D01*
X220441Y302188D01*
X219847Y302242D01*
X219224Y302260D01*
Y307340D01*
X219847Y307358D01*
X220441Y307412D01*
X221007Y307502D01*
X221544Y307628D01*
X222053Y307790D01*
X222534Y307988D01*
X222986Y308222D01*
X223410Y308492D01*
X223805Y308798D01*
X224172Y309140D01*
Y300460D01*
D02*
G37*
G36*
X588198Y300005D02*
X587892Y299610D01*
X587622Y299186D01*
X587388Y298734D01*
X587190Y298253D01*
X587028Y297744D01*
X586902Y297207D01*
X586812Y296641D01*
X586758Y296047D01*
X586740Y295424D01*
X581660D01*
X581642Y296047D01*
X581588Y296641D01*
X581498Y297207D01*
X581372Y297744D01*
X581210Y298253D01*
X581012Y298734D01*
X580778Y299186D01*
X580508Y299610D01*
X580202Y300005D01*
X579860Y300372D01*
X588540D01*
X588198Y300005D01*
D02*
G37*
G36*
X284086Y300682D02*
X283835Y300251D01*
X283614Y299797D01*
X283422Y299319D01*
X283259Y298817D01*
X283126Y298292D01*
X283023Y297743D01*
X282949Y297171D01*
X282905Y296575D01*
X282890Y295956D01*
X277810Y295087D01*
X277790Y295715D01*
X277729Y296306D01*
X277628Y296862D01*
X277487Y297383D01*
X277305Y297868D01*
X277083Y298317D01*
X276820Y298731D01*
X276517Y299110D01*
X276173Y299452D01*
X275790Y299760D01*
X284367Y301090D01*
X284086Y300682D01*
D02*
G37*
G36*
X131731Y300734D02*
X131485Y300302D01*
X131267Y299846D01*
X131078Y299367D01*
X130919Y298864D01*
X130788Y298339D01*
X130687Y297789D01*
X130614Y297217D01*
X130570Y296621D01*
X130556Y296001D01*
X125476Y295070D01*
X125456Y295698D01*
X125395Y296289D01*
X125293Y296845D01*
X125151Y297364D01*
X124968Y297847D01*
X124745Y298294D01*
X124480Y298705D01*
X124176Y299080D01*
X123830Y299418D01*
X123444Y299721D01*
X132007Y301143D01*
X131731Y300734D01*
D02*
G37*
G36*
X183624Y302604D02*
X183575Y302268D01*
X183493Y301270D01*
X183400Y297977D01*
X183388Y295681D01*
X178308Y294901D01*
X178287Y295542D01*
X178224Y296128D01*
X178118Y296658D01*
X177970Y297132D01*
X177780Y297551D01*
X177548Y297914D01*
X177274Y298222D01*
X176957Y298474D01*
X176598Y298670D01*
X176197Y298811D01*
X183680Y302833D01*
X183624Y302604D01*
D02*
G37*
G36*
X202865Y264755D02*
X202775Y264517D01*
X202696Y264190D01*
X202628Y263774D01*
X202522Y262677D01*
X202443Y260367D01*
X202438Y259420D01*
X199898D01*
X199893Y260367D01*
X199640Y264190D01*
X199561Y264517D01*
X199471Y264755D01*
X199371Y264905D01*
X202965D01*
X202865Y264755D01*
D02*
G37*
G36*
X181529D02*
X181439Y264517D01*
X181360Y264190D01*
X181292Y263774D01*
X181186Y262677D01*
X181107Y260367D01*
X181102Y259420D01*
X178562D01*
X178557Y260367D01*
X178304Y264190D01*
X178225Y264517D01*
X178135Y264755D01*
X178035Y264905D01*
X181629D01*
X181529Y264755D01*
D02*
G37*
G36*
X398458Y264181D02*
X399221Y263567D01*
X400012Y263027D01*
X400829Y262560D01*
X401673Y262167D01*
X402544Y261847D01*
X403442Y261600D01*
X404366Y261427D01*
X405317Y261326D01*
X406295Y261300D01*
X395900Y250905D01*
X395874Y251883D01*
X395774Y252834D01*
X395600Y253759D01*
X395353Y254656D01*
X395033Y255527D01*
X394640Y256371D01*
X394173Y257188D01*
X393633Y257979D01*
X393019Y258743D01*
X392332Y259479D01*
X397721Y264868D01*
X398458Y264181D01*
D02*
G37*
G36*
X211975Y243328D02*
X211733Y242872D01*
X211519Y242304D01*
X211333Y241621D01*
X211176Y240826D01*
X211048Y239918D01*
X210877Y237761D01*
X210820Y235150D01*
X208280D01*
X208266Y236512D01*
X207924Y240826D01*
X207767Y241621D01*
X207581Y242304D01*
X207367Y242872D01*
X207125Y243328D01*
X206854Y243670D01*
X212246D01*
X211975Y243328D01*
D02*
G37*
G36*
X223421Y339503D02*
Y313321D01*
X223417Y313280D01*
X223355Y312893D01*
X223274Y312545D01*
X223175Y312234D01*
X223060Y311957D01*
X222931Y311707D01*
X222787Y311481D01*
X222626Y311273D01*
X222385Y311015D01*
X222127Y310774D01*
X221919Y310613D01*
X221693Y310469D01*
X221443Y310340D01*
X221166Y310225D01*
X220855Y310126D01*
X220507Y310045D01*
X220120Y309983D01*
X220079Y309979D01*
X215646D01*
X213664Y309585D01*
X211984Y308463D01*
X197505Y293985D01*
X196383Y292304D01*
X195989Y290322D01*
Y278003D01*
X193040D01*
Y255397D01*
X197283D01*
Y252053D01*
X194103Y248873D01*
X193261Y247613D01*
X192965Y246126D01*
Y235867D01*
X192856Y235794D01*
X191883Y234339D01*
X190500Y234131D01*
X189117Y234339D01*
X188144Y235794D01*
X188035Y235867D01*
Y245872D01*
X187739Y247359D01*
X186897Y248619D01*
X183717Y251799D01*
Y255397D01*
X187960D01*
Y278003D01*
X186028D01*
Y299285D01*
X186080Y301128D01*
X186149Y301973D01*
X186169Y302109D01*
X186196Y302222D01*
X186203Y302394D01*
X186540Y303649D01*
Y304568D01*
X186588Y304771D01*
X186601Y305153D01*
X186635Y305415D01*
X186693Y305676D01*
X186778Y305944D01*
X186893Y306220D01*
X187043Y306510D01*
X187231Y306814D01*
X187461Y307131D01*
X187488Y307163D01*
X220881Y340555D01*
X223421Y339503D01*
D02*
G37*
G36*
X211247Y149185D02*
X211157Y148947D01*
X211078Y148620D01*
X211010Y148204D01*
X210904Y147107D01*
X210825Y144797D01*
X210820Y143850D01*
X208280D01*
X208275Y144797D01*
X208022Y148620D01*
X207943Y148947D01*
X207853Y149185D01*
X207753Y149335D01*
X211347D01*
X211247Y149185D01*
D02*
G37*
%LPC*%
G36*
X453251Y657860D02*
X444890D01*
Y646149D01*
X444995D01*
X447132Y646431D01*
X449123Y647255D01*
X450833Y648567D01*
X452145Y650277D01*
X452970Y652268D01*
X453251Y654405D01*
Y657860D01*
D02*
G37*
G36*
X439810D02*
X431450D01*
Y654405D01*
X431731Y652268D01*
X432556Y650277D01*
X433867Y648567D01*
X435577Y647255D01*
X437568Y646431D01*
X439705Y646149D01*
X439810D01*
Y657860D01*
D02*
G37*
G36*
X455437Y636894D02*
X450240D01*
Y631190D01*
X461344D01*
X460941Y633217D01*
X459650Y635150D01*
X457717Y636441D01*
X455437Y636894D01*
D02*
G37*
G36*
X445160D02*
X439962D01*
X437683Y636441D01*
X435750Y635150D01*
X434459Y633217D01*
X434056Y631190D01*
X445160D01*
Y636894D01*
D02*
G37*
G36*
X291070Y657860D02*
X281940D01*
Y648730D01*
X284005Y649283D01*
X286725Y650854D01*
X288946Y653075D01*
X290517Y655795D01*
X291070Y657860D01*
D02*
G37*
G36*
X623780Y660630D02*
X613448D01*
X613416Y659845D01*
X613410Y659130D01*
X612140D01*
Y652290D01*
X623780D01*
Y660630D01*
D02*
G37*
G36*
X559030Y657860D02*
X550690D01*
Y646220D01*
X559030D01*
Y657860D01*
D02*
G37*
G36*
X545610D02*
X537270D01*
Y646220D01*
X545610D01*
Y657860D01*
D02*
G37*
G36*
X623780Y647210D02*
X612140D01*
Y638870D01*
X623780D01*
Y647210D01*
D02*
G37*
G36*
X237780Y530860D02*
X229240D01*
Y519220D01*
X237780D01*
Y530860D01*
D02*
G37*
G36*
X263180Y280880D02*
X254640D01*
Y269240D01*
X263180D01*
Y280880D01*
D02*
G37*
%LPD*%
G36*
X664398Y300005D02*
X664092Y299610D01*
X663822Y299186D01*
X663588Y298734D01*
X663390Y298253D01*
X663228Y297744D01*
X663102Y297207D01*
X663012Y296641D01*
X662958Y296047D01*
X662940Y295424D01*
X657860D01*
X657842Y296047D01*
X657788Y296641D01*
X657698Y297207D01*
X657572Y297744D01*
X657410Y298253D01*
X657212Y298734D01*
X656978Y299186D01*
X656708Y299610D01*
X656402Y300005D01*
X656060Y300372D01*
X664740D01*
X664398Y300005D01*
D02*
G37*
G36*
X728390Y263318D02*
X728149Y263332D01*
X727933Y263286D01*
X727742Y263179D01*
X727577Y263013D01*
X727438Y262786D01*
X727323Y262499D01*
X727234Y262151D01*
X727171Y261744D01*
X727133Y261276D01*
X727120Y260747D01*
X724580Y261010D01*
X724568Y261577D01*
X724468Y262546D01*
X724380Y262948D01*
X724267Y263294D01*
X724130Y263586D01*
X723967Y263822D01*
X723779Y264003D01*
X723567Y264130D01*
X723329Y264201D01*
X728390Y263318D01*
D02*
G37*
G36*
X727133Y188924D02*
X727171Y188456D01*
X727234Y188048D01*
X727323Y187701D01*
X727438Y187414D01*
X727577Y187187D01*
X727742Y187020D01*
X727933Y186914D01*
X728149Y186868D01*
X728390Y186882D01*
X723329Y185999D01*
X723567Y186070D01*
X723779Y186196D01*
X723967Y186378D01*
X724130Y186614D01*
X724267Y186906D01*
X724380Y187252D01*
X724468Y187654D01*
X724530Y188111D01*
X724568Y188622D01*
X724580Y189189D01*
X727120Y189452D01*
X727133Y188924D01*
D02*
G37*
D16*
X250400Y593950D02*
X263750D01*
X238500Y600450D02*
X250400D01*
X237490Y607060D02*
X250290D01*
X250660Y567690D02*
X265430D01*
X250400Y561450D02*
X264050D01*
X265430Y560070D01*
X729296Y181900D02*
X731600D01*
X725850Y185346D02*
X729296Y181900D01*
X725850Y185346D02*
Y193100D01*
X729296Y268300D02*
X731600D01*
X725850Y264854D02*
X729296Y268300D01*
X725850Y257100D02*
Y264854D01*
X195580Y149860D02*
X196850Y148590D01*
Y132300D02*
Y148590D01*
X297440Y600450D02*
X308400D01*
X319780Y567950D02*
X320040Y567690D01*
X308400Y567950D02*
X319780D01*
X295950Y554950D02*
X308400D01*
X294720Y553720D02*
X295950Y554950D01*
X296020Y561450D02*
X308400D01*
X295910Y561340D02*
X296020Y561450D01*
X250400Y567950D02*
X250660Y567690D01*
X237490Y554990D02*
X237530Y554950D01*
X250400D01*
X237490Y599440D02*
X238500Y600450D01*
X250290Y607060D02*
X250400Y606950D01*
X209550Y223300D02*
Y246362D01*
Y132300D02*
Y151130D01*
X179832Y250190D02*
Y266700D01*
Y250190D02*
X184150Y245872D01*
Y223300D02*
Y245872D01*
X201168Y250444D02*
Y266700D01*
X196850Y246126D02*
X201168Y250444D01*
X196850Y223300D02*
Y246126D01*
D28*
X668950Y205700D02*
D03*
D29*
Y228600D02*
D03*
Y251500D02*
D03*
D30*
X601050Y228600D02*
D03*
D66*
X184150Y132300D02*
D03*
X196850D02*
D03*
X209550D02*
D03*
X222250D02*
D03*
X234950D02*
D03*
X247650D02*
D03*
X260350D02*
D03*
X273050D02*
D03*
X184150Y223300D02*
D03*
X196850D02*
D03*
X209550D02*
D03*
X222250D02*
D03*
X234950D02*
D03*
X247650D02*
D03*
X260350D02*
D03*
X273050D02*
D03*
D67*
X76200Y457200D02*
D03*
Y366200D02*
D03*
X31200Y457200D02*
D03*
Y366200D02*
D03*
X781600Y457200D02*
D03*
Y366200D02*
D03*
X736600Y457200D02*
D03*
Y366200D02*
D03*
D68*
X250400Y613450D02*
D03*
Y606950D02*
D03*
Y600450D02*
D03*
Y593950D02*
D03*
Y587450D02*
D03*
Y580950D02*
D03*
Y574450D02*
D03*
Y567950D02*
D03*
Y561450D02*
D03*
Y554950D02*
D03*
X308400D02*
D03*
Y561450D02*
D03*
Y567950D02*
D03*
Y574450D02*
D03*
Y580950D02*
D03*
Y587450D02*
D03*
Y593950D02*
D03*
Y600450D02*
D03*
Y606950D02*
D03*
Y613450D02*
D03*
D69*
X447700Y628650D02*
D03*
Y615950D02*
D03*
Y603250D02*
D03*
Y590550D02*
D03*
Y577850D02*
D03*
Y565150D02*
D03*
Y552450D02*
D03*
Y539750D02*
D03*
Y527050D02*
D03*
Y514350D02*
D03*
X542900D02*
D03*
Y527050D02*
D03*
Y539750D02*
D03*
Y552450D02*
D03*
Y565150D02*
D03*
Y577850D02*
D03*
Y590550D02*
D03*
Y603250D02*
D03*
Y615950D02*
D03*
Y628650D02*
D03*
D70*
X698500Y237200D02*
D03*
Y270800D02*
D03*
D71*
X112268Y368300D02*
D03*
X141732D02*
D03*
X150368Y266700D02*
D03*
X179832D02*
D03*
X230632D02*
D03*
X201168D02*
D03*
X99568D02*
D03*
X129032D02*
D03*
X229108Y632460D02*
D03*
X258572D02*
D03*
X671068Y368300D02*
D03*
X700532D02*
D03*
D72*
X112450Y444500D02*
D03*
X141550D02*
D03*
X620450Y165100D02*
D03*
X649550D02*
D03*
X671250Y444500D02*
D03*
X700350D02*
D03*
D73*
X700900Y165100D02*
D03*
X670700D02*
D03*
D74*
X725850Y193100D02*
D03*
Y257100D02*
D03*
Y201100D02*
D03*
Y249100D02*
D03*
D75*
Y227600D02*
D03*
Y222600D02*
D03*
Y232600D02*
D03*
Y237600D02*
D03*
Y242600D02*
D03*
Y217600D02*
D03*
Y212600D02*
D03*
Y207600D02*
D03*
D76*
X661700Y279400D02*
D03*
X633700D02*
D03*
D77*
X141600Y406400D02*
D03*
X112400D02*
D03*
X252100Y266700D02*
D03*
X281300D02*
D03*
X255900Y533400D02*
D03*
X226700D02*
D03*
X700400Y406400D02*
D03*
X671200D02*
D03*
D78*
X571500Y228600D02*
D03*
Y202240D02*
D03*
D79*
X609600Y556750D02*
D03*
Y586250D02*
D03*
X127000Y163050D02*
D03*
Y192550D02*
D03*
X609600Y649750D02*
D03*
Y620250D02*
D03*
D80*
X442350Y660400D02*
D03*
X472050D02*
D03*
D81*
X152400Y192400D02*
D03*
Y163200D02*
D03*
D82*
X584200Y620268D02*
D03*
Y649732D02*
D03*
Y586232D02*
D03*
Y556768D02*
D03*
D83*
X281160Y632460D02*
D03*
X310660D02*
D03*
X548150Y660400D02*
D03*
X518650D02*
D03*
D84*
X364490Y627525D02*
Y675132D01*
X214630Y697230D02*
X342392D01*
X364490Y675132D01*
X265430Y560070D02*
X267970Y557530D01*
X265430Y567690D02*
X281160Y583420D01*
X335228Y587530D02*
X335271D01*
X439637Y691896D02*
X636524D01*
X335271Y587530D02*
X439637Y691896D01*
X339546Y580950D02*
X442872Y684276D01*
X343915Y606950D02*
X364490Y627525D01*
X322499Y606950D02*
X343915D01*
X442872Y684276D02*
X633368D01*
X635000Y682644D01*
Y635000D02*
Y682644D01*
X530382Y539750D02*
X542900D01*
X529336Y552450D02*
X542900D01*
X519430Y542544D02*
X529336Y552450D01*
X528320Y565150D02*
X542900D01*
X529590Y577850D02*
X542900D01*
X447700Y603250D02*
X462280D01*
X464204Y590550D02*
X474980Y579774D01*
X447700Y590550D02*
X464204D01*
X406400Y500380D02*
X433070Y527050D01*
X447700D01*
X393700Y514350D02*
X431800Y552450D01*
X447700D01*
X430530Y565150D02*
X447700D01*
X435356Y615950D02*
X447700D01*
X430530Y611124D02*
X435356Y615950D01*
X279400Y406400D02*
Y558364D01*
X177800Y304800D02*
X279400Y406400D01*
X430530Y577850D02*
X447700D01*
X31200Y366200D02*
Y457200D01*
X99568Y170942D02*
Y266700D01*
X107460Y163050D02*
X127000D01*
X99568Y170942D02*
X107460Y163050D01*
X230632Y266700D02*
Y280162D01*
X236220Y285750D01*
X243840D01*
X248920Y290830D01*
Y313690D01*
X256540Y321310D01*
X319424D01*
X335934Y304800D01*
X584200D01*
X150368Y266700D02*
Y300228D01*
X255270Y405130D01*
Y510550D01*
X255900Y511180D01*
X215130Y391660D02*
Y544114D01*
X127635Y304165D02*
X215130Y391660D01*
X31200Y323130D02*
Y366200D01*
Y323130D02*
X87630Y266700D01*
X99568D01*
X229489Y632841D02*
Y648081D01*
X203200Y609600D02*
Y646430D01*
X217170Y660400D01*
X254000D01*
X217170D02*
X229489Y648081D01*
X229108Y632460D02*
X229489Y632841D01*
X255900Y511180D02*
Y533400D01*
X781600Y457200D02*
Y501100D01*
X762000Y520700D02*
X781600Y501100D01*
X607060Y520700D02*
X762000D01*
X584200Y543560D02*
X607060Y520700D01*
X584200Y543560D02*
Y556768D01*
X671250Y468050D02*
X685800Y482600D01*
X495350Y660400D02*
X495678Y660728D01*
Y669668D02*
X501650Y675640D01*
X495678Y660728D02*
Y669668D01*
X501650Y675640D02*
X568960D01*
X584200Y660400D01*
X636524Y691896D02*
X652718Y675702D01*
X584200Y649732D02*
Y660400D01*
X495350Y612090D02*
Y660400D01*
Y612090D02*
X529590Y577850D01*
X495350Y660400D02*
X518650D01*
X508000Y544830D02*
X528320Y565150D01*
X508000Y444500D02*
Y544830D01*
X472050Y660400D02*
X495350D01*
X172720Y106680D02*
X447930D01*
X127000Y152400D02*
X172720Y106680D01*
X127000Y152400D02*
Y163050D01*
X447930Y106680D02*
X569850Y228600D01*
X571500D01*
Y254000D01*
X152400Y163200D02*
X182240D01*
X195580Y149860D01*
X127000Y163050D02*
X127075Y163125D01*
X152325D01*
X152400Y163200D01*
X584200Y304800D02*
X601980D01*
X635000Y337820D01*
X769620D01*
X781600Y349800D01*
Y366200D01*
X584200Y266700D02*
Y304800D01*
X571500Y254000D02*
X584200Y266700D01*
X601050Y173650D02*
Y228600D01*
Y173650D02*
X609600Y165100D01*
X620450D01*
X571500Y228600D02*
X601050D01*
X668950D01*
X281160Y583420D02*
Y632460D01*
X263750Y593950D02*
X266264Y596464D01*
Y632714D01*
Y666314D01*
X276860Y676910D01*
X313690D01*
X330200Y660400D01*
X295820Y602070D02*
X297440Y600450D01*
X295820Y602070D02*
Y649088D01*
X304800Y658067D01*
Y660400D01*
X598195Y406425D02*
X671225D01*
X508000Y316230D02*
X598195Y406425D01*
X335280Y316230D02*
X508000D01*
X300990Y350520D02*
X335280Y316230D01*
X300990Y350520D02*
Y501650D01*
X322384Y523044D01*
Y567450D01*
X322144Y567690D02*
X322384Y567450D01*
X320040Y567690D02*
X322144D01*
X317500Y444500D02*
Y477520D01*
X430530Y590550D01*
X330200Y350616D02*
Y477520D01*
X430530Y577850D01*
X287020Y400050D02*
Y546020D01*
X339622Y341194D02*
X353894D01*
X330200Y350616D02*
X339622Y341194D01*
X353894D02*
X368300Y355600D01*
X127000Y609600D02*
X214630Y697230D01*
X127000Y482600D02*
Y609600D01*
X203200Y584200D02*
X226060Y607060D01*
X652718Y601918D02*
Y675702D01*
X282376Y561340D02*
X295910D01*
X279400Y558364D02*
X282376Y561340D01*
X287020Y546020D02*
X294720Y553720D01*
X393700Y457200D02*
Y514350D01*
X381000Y515620D02*
X430530Y565150D01*
X381000Y393700D02*
Y515620D01*
X342900Y355600D02*
X381000Y393700D01*
X635000Y584200D02*
X652718Y601918D01*
X430530Y590550D02*
Y611124D01*
X462280Y603250D02*
X496400Y569130D01*
X474980Y551180D02*
Y579774D01*
X496400Y397648D02*
Y569130D01*
X258826Y632714D02*
X266264D01*
X258572Y632460D02*
X258826Y632714D01*
X267970Y536376D02*
Y557530D01*
X264994Y533400D02*
X267970Y536376D01*
X255900Y533400D02*
X264994D01*
X228600Y304800D02*
Y341630D01*
X287020Y400050D01*
X178435Y304165D02*
X180848Y301752D01*
X177800Y304800D02*
X178435Y304165D01*
X201168Y266700D02*
Y290322D01*
X215646Y304800D02*
X228600D01*
X201168Y290322D02*
X215646Y304800D01*
X215130Y544114D02*
X220813Y549797D01*
X232297D01*
X237490Y554990D01*
X127635Y304165D02*
X128016Y303784D01*
X127000Y304800D02*
X127635Y304165D01*
X237490Y593090D02*
Y599440D01*
X203200Y558800D02*
X237490Y593090D01*
X226060Y607060D02*
X237490D01*
X781600Y366200D02*
Y457200D01*
X671250Y444500D02*
Y468050D01*
X671225Y444475D02*
X671250Y444500D01*
X671225Y406425D02*
Y444475D01*
X128016Y267716D02*
Y303784D01*
Y267716D02*
X129032Y266700D01*
X129540Y266192D01*
Y243840D02*
Y266192D01*
Y243840D02*
X209550Y163830D01*
Y151130D02*
Y163830D01*
X179832Y266700D02*
X180848Y267716D01*
Y301752D01*
X280350Y267650D02*
X281300Y266700D01*
X280350Y267650D02*
Y303850D01*
X279400Y304800D02*
X280350Y303850D01*
X666891Y251500D02*
X668950D01*
X661700Y256691D02*
X666891Y251500D01*
X661700Y256691D02*
Y279400D01*
X676946D02*
X685546Y270800D01*
X661700Y279400D02*
X676946D01*
X685546Y270800D02*
X698500D01*
X660400Y279400D02*
Y304800D01*
X713740Y202184D02*
Y273812D01*
X698500Y237200D02*
X713196D01*
X542900Y603250D02*
X560070D01*
X633975Y585225D02*
X635000Y584200D01*
X610625Y585225D02*
X633975D01*
X609600Y586250D02*
X610625Y585225D01*
X542900Y590550D02*
X558800D01*
X508000Y419100D02*
X519430Y430530D01*
X508000Y368300D02*
X527050Y387350D01*
X519430Y430530D02*
Y542544D01*
X527050Y387350D02*
Y536418D01*
X530382Y539750D01*
X499376Y394672D02*
X507028D01*
X508000Y393700D01*
X496400Y397648D02*
X499376Y394672D01*
X476250Y509270D02*
Y528320D01*
X487680Y502920D02*
Y535940D01*
X457200Y472440D02*
X487680Y502920D01*
X483870Y539750D02*
X487680Y535940D01*
X447700Y539750D02*
X483870D01*
X431800Y464820D02*
X476250Y509270D01*
X444500Y355600D02*
X457200Y368300D01*
Y472440D01*
X419100Y355600D02*
X431800Y368300D01*
Y464820D01*
X406400Y368300D02*
Y500380D01*
X571500Y415635D02*
Y522804D01*
X511465Y355600D02*
X571500Y415635D01*
X469900Y355600D02*
X511465D01*
X393700D02*
X406400Y368300D01*
X542900Y527050D02*
X567254D01*
X571500Y522804D01*
X713740Y273812D02*
X736600Y296672D01*
Y304800D01*
X649550Y165100D02*
X670700D01*
X660400Y279400D02*
X661700D01*
D85*
X335148Y587450D02*
X335228Y587530D01*
X308400Y587450D02*
X335148D01*
X308400Y580950D02*
X339546D01*
D86*
X308400Y606950D02*
X322499D01*
D87*
X609600Y649750D02*
Y668020D01*
X442350Y657050D02*
Y660400D01*
X141575Y406425D02*
X141600Y406400D01*
X141575Y406425D02*
Y444475D01*
X141550Y444500D02*
X141575Y444475D01*
X141550Y444500D02*
Y468050D01*
X127000Y482600D02*
X141550Y468050D01*
X76200Y366200D02*
X77250Y367250D01*
X111218D01*
X112268Y368300D01*
X76200Y457200D02*
X78740Y454660D01*
X91440D01*
X101600Y444500D01*
X112450D01*
X76200Y366200D02*
Y457200D01*
X736600Y366200D02*
Y457200D01*
Y456580D02*
Y457200D01*
X733410Y453390D02*
X736600Y456580D01*
X723900Y453390D02*
X733410D01*
X715010Y444500D02*
X723900Y453390D01*
X700350Y444500D02*
X715010D01*
X735550Y367250D02*
X736600Y366200D01*
X701582Y367250D02*
X735550D01*
X700532Y368300D02*
X701582Y367250D01*
X281150Y266549D02*
X281300Y266700D01*
X276686Y246362D02*
X281150Y250826D01*
Y266549D01*
X209550Y246362D02*
X276686D01*
X281300Y266700D02*
X390500D01*
X406400Y250800D01*
X560070Y603250D02*
Y610616D01*
X569323Y619869D02*
X583801D01*
X584200Y620268D01*
X560070Y610616D02*
X569323Y619869D01*
X635000Y633707D02*
Y635000D01*
X627780Y626486D02*
X635000Y633707D01*
X627780Y624732D02*
Y626486D01*
X623316Y620268D02*
X627780Y624732D01*
X609618Y620268D02*
X623316D01*
X609600Y620250D02*
X609618Y620268D01*
X584200D02*
X584209Y620259D01*
X609591D01*
X609600Y620250D01*
X558800Y590550D02*
X563118Y586232D01*
X584200D01*
X584209Y586241D01*
X609591D01*
X609600Y586250D01*
D88*
X714824Y201100D02*
X725850D01*
X716100Y249100D02*
X725850D01*
D89*
X203200Y533400D02*
D03*
Y558800D02*
D03*
Y584200D02*
D03*
X254000Y660400D02*
D03*
X279400D02*
D03*
X304800D02*
D03*
D90*
X203200Y609600D02*
D03*
D91*
X127000Y482600D02*
D03*
X736600Y304800D02*
D03*
X762000D02*
D03*
X660400D02*
D03*
X228600D02*
D03*
X177800D02*
D03*
X127000D02*
D03*
X584200D02*
D03*
X279400D02*
D03*
X635000Y635000D02*
D03*
Y584200D02*
D03*
X685800Y482600D02*
D03*
D92*
X406400Y250800D02*
D03*
Y50800D02*
D03*
D93*
X342900Y457200D02*
D03*
X368300D02*
D03*
X393700D02*
D03*
X419100D02*
D03*
X444500D02*
D03*
X469900D02*
D03*
Y355600D02*
D03*
X444500D02*
D03*
X419100D02*
D03*
X393700D02*
D03*
X368300D02*
D03*
D94*
X342900D02*
D03*
D95*
X773400Y181900D02*
D03*
Y268300D02*
D03*
D96*
X731600Y181900D02*
D03*
Y268300D02*
D03*
D97*
X736600Y254000D02*
D03*
Y196200D02*
D03*
D98*
X330200Y660400D02*
D03*
D99*
X100000Y700000D02*
D03*
Y100000D02*
D03*
X700000D02*
D03*
Y700000D02*
D03*
D100*
X746000Y746000D02*
D03*
X771000Y696000D02*
D03*
X746000Y646000D02*
D03*
X771000Y596000D02*
D03*
X746000Y546000D02*
D03*
Y246000D02*
D03*
Y146000D02*
D03*
X771000Y96000D02*
D03*
X746000Y46000D02*
D03*
X696000Y746000D02*
D03*
Y646000D02*
D03*
X721000Y596000D02*
D03*
X696000Y546000D02*
D03*
X721000Y496000D02*
D03*
X696000Y46000D02*
D03*
X646000Y746000D02*
D03*
X671000Y596000D02*
D03*
X646000Y546000D02*
D03*
X671000Y496000D02*
D03*
X646000Y446000D02*
D03*
Y246000D02*
D03*
Y146000D02*
D03*
Y46000D02*
D03*
X596000Y746000D02*
D03*
X621000Y496000D02*
D03*
X596000Y446000D02*
D03*
Y346000D02*
D03*
X621000Y196000D02*
D03*
X596000Y146000D02*
D03*
X621000Y96000D02*
D03*
X596000Y46000D02*
D03*
X546000Y746000D02*
D03*
Y446000D02*
D03*
X571000Y396000D02*
D03*
X546000Y246000D02*
D03*
Y146000D02*
D03*
X571000Y96000D02*
D03*
X546000Y46000D02*
D03*
X496000Y746000D02*
D03*
Y246000D02*
D03*
X521000Y96000D02*
D03*
X496000Y46000D02*
D03*
X446000Y746000D02*
D03*
Y246000D02*
D03*
X471000Y196000D02*
D03*
X446000Y146000D02*
D03*
X471000Y96000D02*
D03*
X446000Y46000D02*
D03*
X396000Y746000D02*
D03*
X421000Y696000D02*
D03*
Y496000D02*
D03*
Y196000D02*
D03*
X396000Y146000D02*
D03*
X346000Y746000D02*
D03*
Y646000D02*
D03*
X371000Y596000D02*
D03*
X346000Y546000D02*
D03*
Y246000D02*
D03*
X371000Y196000D02*
D03*
X346000Y146000D02*
D03*
Y46000D02*
D03*
X296000Y746000D02*
D03*
X321000Y296000D02*
D03*
X296000Y246000D02*
D03*
X321000Y196000D02*
D03*
X296000Y146000D02*
D03*
Y46000D02*
D03*
X246000Y746000D02*
D03*
X271000Y196000D02*
D03*
X246000Y46000D02*
D03*
X196000Y746000D02*
D03*
Y446000D02*
D03*
Y46000D02*
D03*
X146000Y746000D02*
D03*
X171000Y696000D02*
D03*
X146000Y646000D02*
D03*
X171000Y596000D02*
D03*
X146000Y546000D02*
D03*
X171000Y496000D02*
D03*
Y396000D02*
D03*
X146000Y346000D02*
D03*
Y246000D02*
D03*
Y46000D02*
D03*
X96000Y746000D02*
D03*
Y646000D02*
D03*
Y546000D02*
D03*
Y346000D02*
D03*
Y146000D02*
D03*
Y46000D02*
D03*
X46000Y746000D02*
D03*
Y646000D02*
D03*
X71000Y596000D02*
D03*
X46000Y546000D02*
D03*
X71000Y496000D02*
D03*
X46000Y346000D02*
D03*
Y246000D02*
D03*
X71000Y196000D02*
D03*
X46000Y146000D02*
D03*
Y46000D02*
D03*
X563626Y636016D02*
D03*
X411734Y620776D02*
D03*
X222250Y192786D02*
D03*
X609600Y279400D02*
D03*
X716280Y386080D02*
D03*
X93726Y385572D02*
D03*
X228600Y510540D02*
D03*
X609600Y668020D02*
D03*
X217170Y660400D02*
D03*
X255900Y511180D02*
D03*
X607060Y520700D02*
D03*
X495350Y660400D02*
D03*
X317500Y444500D02*
D03*
X508000D02*
D03*
X474980Y551180D02*
D03*
X508000Y419100D02*
D03*
X476250Y528320D02*
D03*
X508000Y393700D02*
D03*
Y368300D02*
D03*
M02*
